<svg id="camera" xmlns="http://www.w3.org/2000/svg" width="18.054" height="18.054" viewBox="0 0 18.054 18.054">
  <path id="Path_19660" data-name="Path 19660" d="M0,0H18.054V18.054H0Z" fill="none"/>
  <path id="Path_19661" data-name="Path 19661" d="M7.889,4.5l-1.5,1.5H3.5v9.027H15.54V6.009h-2.88l-1.5-1.5ZM7.266,3h4.513l1.5,1.5h3.009a.752.752,0,0,1,.752.752V15.788a.752.752,0,0,1-.752.752H2.752A.752.752,0,0,1,2,15.788V5.257A.752.752,0,0,1,2.752,4.5H5.761ZM9.522,14.284a4.137,4.137,0,1,1,4.137-4.137A4.137,4.137,0,0,1,9.522,14.284Zm0-1.5A2.633,2.633,0,1,0,6.89,10.146a2.633,2.633,0,0,0,2.633,2.633Z" transform="translate(-0.496 -0.743)" fill="#fff"/>
</svg>
