<svg xmlns="http://www.w3.org/2000/svg" width="24" height="24" viewBox="0 0 24 24">
  <g id="coloremoji10" opacity="0.998">
    <path id="Path_19673" data-name="Path 19673" d="M20.485,3.515A12,12,0,0,0,3.515,20.485,12,12,0,0,0,20.485,3.515ZM12,22.594A10.594,10.594,0,1,1,22.594,12,10.606,10.606,0,0,1,12,22.594Zm0,0" transform="translate(0 0)" fill="#ed0e69"/>
    <path id="Path_19674" data-name="Path 19674" d="M132.525,273.133H121.2a.7.7,0,0,0-.7.7,6.365,6.365,0,0,0,12.729,0A.7.7,0,0,0,132.525,273.133Zm-5.66,5.635a4.956,4.956,0,0,1-4.906-4.232h9.811A4.956,4.956,0,0,1,126.865,278.768Zm0,0" transform="translate(-114.865 -260.318)" fill="#ed0e69"/>
    <path id="Path_19675" data-name="Path 19675" d="M114.946,105.854a.7.7,0,0,0,.992,0l1.867-1.867a2.023,2.023,0,0,0-2.363-3.224,2.023,2.023,0,0,0-2.364,3.224Zm-.875-3.735a.619.619,0,0,1,.875,0,.7.7,0,0,0,.992,0,.619.619,0,0,1,.875.875l-1.371,1.371L114.071,103A.62.62,0,0,1,114.071,102.119Zm0,0" transform="translate(-107.211 -95.819)" fill="#ed0e69"/>
    <path id="Path_19676" data-name="Path 19676" d="M277.022,100.535a2.03,2.03,0,0,1-1.867,0,2.022,2.022,0,0,0-1.43,3.452l1.867,1.867a.7.7,0,0,0,.992,0l1.868-1.867a2.022,2.022,0,0,0-1.43-3.452Zm.438,2.46-1.371,1.371L274.717,103a.619.619,0,1,1,.875-.876.7.7,0,0,0,.5.206h0a.7.7,0,0,0,.5-.206.619.619,0,0,1,.875.875Zm0,0" transform="translate(-260.32 -95.819)" fill="#ed0e69"/>
  </g>
</svg>
