<svg xmlns="http://www.w3.org/2000/svg" width="24" height="24" viewBox="0 0 24 24">
  <g id="coloremoji1" transform="translate(0 0)">
    <path id="Path_19662" data-name="Path 19662" d="M20.49,3.511a12.006,12.006,0,1,0,0,16.977A12.019,12.019,0,0,0,20.49,3.511ZM19.18,19.18a10.154,10.154,0,1,1,0-14.359A10.165,10.165,0,0,1,19.18,19.18Zm-2.063-3.107a.787.787,0,0,1-.787.787H7.672a.787.787,0,1,1,0-1.574h8.658A.787.787,0,0,1,17.116,16.073ZM7.6,9.357,6.423,8.185A.712.712,0,0,1,7.43,7.177l2.14,2.14.008.01a1.4,1.4,0,1,1-1.983.03Zm9.981-2.18a.712.712,0,0,1,0,1.007L16.4,9.357a1.4,1.4,0,1,1-1.983-.03s0-.007.008-.01l2.14-2.14A.712.712,0,0,1,17.577,7.178Z" transform="translate(0 0)" fill="#ed0e69"/>
  </g>
</svg>
