<svg xmlns="http://www.w3.org/2000/svg" width="24" height="24" viewBox="0 0 24 24">
  <g id="coloremoji4" transform="translate(0 0)">
    <path id="Path_19663" data-name="Path 19663" d="M20.49,3.511a12.006,12.006,0,1,0,0,16.977A12.019,12.019,0,0,0,20.49,3.511ZM19.18,19.18a10.154,10.154,0,1,1,0-14.359A10.165,10.165,0,0,1,19.18,19.18ZM16.07,15.388a.678.678,0,0,1-.353.892c-.344.149-.625-.1-.892-.353a5.028,5.028,0,0,0-2.958-.98,7.133,7.133,0,0,0-2.913,1.2.9.9,0,0,1-.627.419.679.679,0,0,1-.627-.939,5.528,5.528,0,0,1,4.27-1.941A5.375,5.375,0,0,1,16.07,15.388ZM7.522,8.751a1.4,1.4,0,1,1,1.4,1.4A1.4,1.4,0,0,1,7.522,8.751Zm6.363,0a1.4,1.4,0,1,1,1.4,1.4A1.4,1.4,0,0,1,13.885,8.751Z" transform="translate(0 0)" fill="#ed0e69"/>
  </g>
</svg>
