<svg id="coloremoji9" xmlns="http://www.w3.org/2000/svg" width="24" height="24" viewBox="0 0 24 24">
  <g id="Group_28915" data-name="Group 28915" transform="translate(0 0)">
    <g id="Group_28914" data-name="Group 28914">
      <path id="Path_19669" data-name="Path 19669" d="M20.485,3.515A12,12,0,1,0,3.515,20.485,12,12,0,1,0,20.485,3.515ZM12,22.571A10.571,10.571,0,1,1,22.571,12,10.583,10.583,0,0,1,12,22.571Z" transform="translate(0 0)" fill="#ed0e69"/>
    </g>
  </g>
  <g id="Group_28917" data-name="Group 28917" transform="translate(4.955 7.956)">
    <g id="Group_28916" data-name="Group 28916">
      <path id="Path_19670" data-name="Path 19670" d="M110.091,170.556a3,3,0,0,0-4.233,0,.713.713,0,0,0,1.008,1.008,1.57,1.57,0,0,1,2.217,0,.713.713,0,1,0,1.008-1.008Z" transform="translate(-105.65 -169.681)" fill="#ed0e69"/>
    </g>
  </g>
  <g id="Group_28919" data-name="Group 28919" transform="translate(14.394 7.956)">
    <g id="Group_28918" data-name="Group 28918">
      <path id="Path_19671" data-name="Path 19671" d="M311.353,170.556a3,3,0,0,0-4.233,0,.713.713,0,0,0,1.008,1.008,1.57,1.57,0,0,1,2.217,0,.713.713,0,1,0,1.008-1.008Z" transform="translate(-306.912 -169.681)" fill="#ed0e69"/>
    </g>
  </g>
  <g id="Group_28921" data-name="Group 28921" transform="translate(4.969 12.538)">
    <g id="Group_28920" data-name="Group 28920">
      <path id="Path_19672" data-name="Path 19672" d="M119,267.175H106.364a.713.713,0,0,0-.713.713,7.031,7.031,0,0,0,14.063,0A.713.713,0,0,0,119,267.175Zm-6.319,6.319a5.614,5.614,0,0,1-5.561-4.894h11.122A5.614,5.614,0,0,1,112.682,273.494Z" transform="translate(-105.651 -267.175)" fill="#ed0e69"/>
    </g>
  </g>
</svg>
