<svg id="copy-link-icon" xmlns="http://www.w3.org/2000/svg" width="17.976" height="17.976" viewBox="0 0 17.976 17.976">
  <path id="Path_19641" data-name="Path 19641" d="M0,0H17.976V17.976H0Z" fill="none"/>
  <path id="Path_19642" data-name="Path 19642" d="M6,5V2.749A.749.749,0,0,1,6.745,2h8.988a.749.749,0,0,1,.749.749V13.235a.749.749,0,0,1-.749.749H13.486v2.247a.751.751,0,0,1-.754.749H3.754A.75.75,0,0,1,3,16.231L3,5.745A.751.751,0,0,1,3.756,5Zm-1.5,1.5,0,8.988h7.49V6.494ZM7.494,5h5.992v7.49h1.5V3.5H7.494Z" transform="translate(-0.753 -0.502)" fill="#fff"/>
</svg>
