<svg xmlns="http://www.w3.org/2000/svg" width="24" height="24" viewBox="0 0 24 24">
  <path id="emoji5" d="M12,24A12,12,0,0,1,3.515,3.515,12,12,0,0,1,20.485,20.485,11.922,11.922,0,0,1,12,24ZM12,1.875A10.125,10.125,0,1,0,22.125,12,10.136,10.136,0,0,0,12,1.875Zm4.687,13.734a.937.937,0,0,0-.937-.937H8.25a.937.937,0,0,0,0,1.875h7.5A.937.937,0,0,0,16.687,15.609ZM7.875,7.781A1.172,1.172,0,1,1,6.7,8.953,1.172,1.172,0,0,1,7.875,7.781Zm7.031,1.172a1.172,1.172,0,1,0,1.172-1.172A1.172,1.172,0,0,0,14.906,8.953Z" transform="translate(0 0)" opacity="0.235"/>
</svg>
