<svg xmlns="http://www.w3.org/2000/svg" width="24" height="24" viewBox="0 0 24 24">
  <g id="emoji10" opacity="0.235">
    <path id="Path_19673" data-name="Path 19673" d="M20.485,3.515A12,12,0,0,0,3.515,20.485,12,12,0,0,0,20.485,3.515ZM12,22.594A10.594,10.594,0,1,1,22.594,12,10.606,10.606,0,0,1,12,22.594Zm0,0" transform="translate(0 0)"/>
    <path id="Path_19674" data-name="Path 19674" d="M132.794,273.133H121.22a.7.7,0,0,0-.72.684,6.516,6.516,0,0,0,13.014,0A.7.7,0,0,0,132.794,273.133Zm-5.787,5.493a5,5,0,0,1-5.015-4.125h10.031A5,5,0,0,1,127.007,278.626Zm0,0" transform="translate(-115.007 -260.183)"/>
    <path id="Path_19675" data-name="Path 19675" d="M114.884,105.72a.684.684,0,0,0,.967,0l1.82-1.82a1.972,1.972,0,0,0-2.3-3.143,1.971,1.971,0,0,0-2.3,3.143Zm-.853-3.641a.6.6,0,0,1,.853,0,.684.684,0,0,0,.967,0,.6.6,0,0,1,.853.853l-1.337,1.337-1.337-1.336A.6.6,0,0,1,114.03,102.079Zm0,0" transform="translate(-107.167 -95.784)"/>
    <path id="Path_19676" data-name="Path 19676" d="M276.924,100.535a1.979,1.979,0,0,1-1.82,0,1.971,1.971,0,0,0-1.394,3.365l1.82,1.82a.684.684,0,0,0,.967,0l1.82-1.82a1.971,1.971,0,0,0-1.394-3.365Zm.427,2.4-1.337,1.337-1.337-1.337a.6.6,0,1,1,.853-.853.683.683,0,0,0,.483.2h0a.684.684,0,0,0,.483-.2.6.6,0,0,1,.853.853Zm0,0" transform="translate(-260.214 -95.784)"/>
  </g>
</svg>
