<svg xmlns="http://www.w3.org/2000/svg" width="24" height="24" viewBox="0 0 24 24">
  <g id="emoji8" transform="translate(0 0)" opacity="0.235">
    <path id="Path_19664" data-name="Path 19664" d="M20.49,3.511a12.006,12.006,0,1,0,0,16.977A12.019,12.019,0,0,0,20.49,3.511ZM19.18,19.18a10.154,10.154,0,1,1,0-14.359A10.165,10.165,0,0,1,19.18,19.18ZM7.522,8.751a1.4,1.4,0,1,1,1.4,1.4A1.4,1.4,0,0,1,7.522,8.751Zm6.363,0a1.4,1.4,0,1,1,1.4,1.4A1.4,1.4,0,0,1,13.885,8.751Zm4,5.295a7.055,7.055,0,0,1-5.867,3.763,6.429,6.429,0,0,1-5.672-3.553.679.679,0,1,1,1.254-.52,5.09,5.09,0,0,0,4.418,2.716,5.727,5.727,0,0,0,4.621-2.944.679.679,0,0,1,1.246.539Z" transform="translate(0 0)"/>
  </g>
</svg>
