<svg xmlns="http://www.w3.org/2000/svg" width="24" height="24" viewBox="0 0 24 24">
  <g id="emoji9" opacity="0.235">
    <g id="Group_28915" data-name="Group 28915" transform="translate(0 0)">
      <g id="Group_28914" data-name="Group 28914">
        <path id="Path_19669" data-name="Path 19669" d="M20.485,3.515A12,12,0,1,0,3.515,20.485,12,12,0,1,0,20.485,3.515ZM12,22.571A10.571,10.571,0,1,1,22.571,12,10.583,10.583,0,0,1,12,22.571Z" transform="translate(0 0)"/>
      </g>
    </g>
    <g id="Group_28917" data-name="Group 28917" transform="translate(4.985 7.975)">
      <g id="Group_28916" data-name="Group 28916">
        <path id="Path_19670" data-name="Path 19670" d="M109.979,170.534a2.921,2.921,0,0,0-4.126,0,.695.695,0,1,0,.982.982,1.53,1.53,0,0,1,2.161,0,.695.695,0,1,0,.982-.982Z" transform="translate(-105.65 -169.681)"/>
      </g>
    </g>
    <g id="Group_28919" data-name="Group 28919" transform="translate(14.482 7.975)">
      <g id="Group_28918" data-name="Group 28918">
        <path id="Path_19671" data-name="Path 19671" d="M311.241,170.534a2.921,2.921,0,0,0-4.126,0,.695.695,0,1,0,.982.982,1.53,1.53,0,0,1,2.161,0,.695.695,0,1,0,.982-.982Z" transform="translate(-306.912 -169.681)"/>
      </g>
    </g>
    <g id="Group_28921" data-name="Group 28921" transform="translate(5.146 12.689)">
      <g id="Group_28920" data-name="Group 28920">
        <path id="Path_19672" data-name="Path 19672" d="M118.664,267.175H106.346a.7.7,0,0,0-.695.695,6.854,6.854,0,1,0,13.707,0A.7.7,0,0,0,118.664,267.175Zm-6.159,6.159a5.472,5.472,0,0,1-5.42-4.77h10.841A5.472,5.472,0,0,1,112.5,273.334Z" transform="translate(-105.651 -267.175)"/>
      </g>
    </g>
  </g>
</svg>
