<svg xmlns="http://www.w3.org/2000/svg" width="24" height="24" viewBox="0 0 24 24">
  <g id="emoji3" transform="translate(0 0)" opacity="0.235">
    <path id="Path_19663" data-name="Path 19663" d="M20.49,3.511a12.006,12.006,0,1,0,0,16.977A12.019,12.019,0,0,0,20.49,3.511ZM19.18,19.18a10.154,10.154,0,1,1,0-14.359A10.165,10.165,0,0,1,19.18,19.18Zm-2.2-3.792a.776.776,0,0,1-.353.892.762.762,0,0,1-.892-.353,3.455,3.455,0,0,0-3.49-1.7,3.064,3.064,0,0,0-3.286,2.149.679.679,0,1,1-1.254-.52,5.078,5.078,0,0,1,4.54-2.875A5.1,5.1,0,0,1,16.976,15.388ZM7.522,8.751a1.4,1.4,0,1,1,1.4,1.4A1.4,1.4,0,0,1,7.522,8.751Zm6.363,0a1.4,1.4,0,1,1,1.4,1.4A1.4,1.4,0,0,1,13.885,8.751Z" transform="translate(0 0)"/>
  </g>
</svg>
