<svg xmlns="http://www.w3.org/2000/svg" width="26.633" height="19.975" viewBox="0 0 26.633 19.975">
  <g id="envelope" transform="translate(0 -64)">
    <g id="Group_27074" data-name="Group 27074" transform="translate(0 64)">
      <g id="Group_27073" data-name="Group 27073" transform="translate(0 0)">
        <path id="Path_19090" data-name="Path 19090" d="M7.11,65.621c3.655,3.1,10.069,8.542,11.954,10.24a1.114,1.114,0,0,0,1.611,0c1.887-1.7,8.3-7.146,11.956-10.242a.554.554,0,0,0,.078-.766A2.2,2.2,0,0,0,30.968,64H8.773a2.2,2.2,0,0,0-1.742.855A.554.554,0,0,0,7.11,65.621Z" transform="translate(-6.554 -64)" fill="#14141e"/>
        <path id="Path_19091" data-name="Path 19091" d="M26.311,126.463a.552.552,0,0,0-.592.08c-4.054,3.436-9.227,7.841-10.855,9.308a2.247,2.247,0,0,1-3.1,0c-1.735-1.563-7.545-6.5-10.854-9.307a.555.555,0,0,0-.914.423v13.954a2.222,2.222,0,0,0,2.219,2.219H24.414a2.222,2.222,0,0,0,2.219-2.219V126.967A.555.555,0,0,0,26.311,126.463Z" transform="translate(0 -123.165)" fill="#14141e"/>
      </g>
    </g>
  </g>
</svg>
