<svg xmlns="http://www.w3.org/2000/svg" width="91.783" height="91.783" viewBox="0 0 91.783 91.783"><defs><style>.a{fill:#005bdf;}.b,.c{fill:#fff;}.c{opacity:0.177;}</style></defs><g transform="translate(-141.608 -134.217)"><path class="a" d="M24,0H67.779a24,24,0,0,1,24,24V67.779a24,24,0,0,1-24,24H24a24,24,0,0,1-24-24V24A24,24,0,0,1,24,0Z" transform="translate(141.608 134.217)"/><g transform="translate(133.728 158.217)"><path class="b" d="M92.794,13.821a9.547,9.547,0,1,1,19.094,0v4.5h4.274v-4.5a13.821,13.821,0,1,0-27.641,0v4.5h4.274Z" transform="translate(-48.937 0)"/><path class="b" d="M71.722,239.02H36.633a1.753,1.753,0,0,0-1.753,1.753v20.25a1.753,1.753,0,0,0,1.753,1.753H71.722a1.753,1.753,0,0,0,1.753-1.753v-20.25A1.753,1.753,0,0,0,71.722,239.02ZM55.493,258.108a1.315,1.315,0,0,1-2.63,0v-.117a1.315,1.315,0,1,1,2.63,0Zm.18-6.32a.25.25,0,0,0-.18.232v1.164a1.315,1.315,0,0,1-2.63,0v-1.164a2.875,2.875,0,0,1,1.993-2.733A2.178,2.178,0,1,0,52,247.218a1.315,1.315,0,1,1-2.63,0,4.808,4.808,0,1,1,6.3,4.57Z" transform="translate(0 -218.065)"/></g><path class="c" d="M21.19,0,42.38,36.6H0Z" transform="translate(203.381 153.992) rotate(45)"/><path class="c" d="M7,0l7,12H0Z" transform="matrix(0.469, 0.883, -0.883, 0.469, 164.404, 153.003)"/></g></svg>