<svg id="thumb-up" xmlns="http://www.w3.org/2000/svg" width="18.29" height="18.29" viewBox="0 0 18.29 18.29">
  <path id="Path_401" data-name="Path 401" d="M0,0H18.29V18.29H0Z" fill="none"/>
  <path id="Path_402" data-name="Path 402" d="M11.291,6.17h4.843a1.508,1.508,0,0,1,1.513,1.5V9.254a1.494,1.494,0,0,1-.114.573l-2.342,5.647a.757.757,0,0,1-.7.465H1.757A.754.754,0,0,1,1,15.188V7.673a.754.754,0,0,1,.757-.751H4.391A.758.758,0,0,0,5.01,6.6L9.136.8A.38.38,0,0,1,9.614.678l1.373.682A1.874,1.874,0,0,1,11.974,3.5ZM5.54,8.115v6.321h8.445l2.149-5.182V7.673H11.291a1.517,1.517,0,0,1-1.194-.58A1.5,1.5,0,0,1,9.824,5.8l.683-2.666a.375.375,0,0,0-.2-.429l-.5-.248L6.246,7.47A2.277,2.277,0,0,1,5.54,8.115Zm-1.513.31H2.513v6.012H4.027Z" transform="translate(-0.179 -0.114)" fill="#005bdf"/>
</svg>
