<svg id="thumb-down" xmlns="http://www.w3.org/2000/svg" width="18.285" height="18.285" viewBox="0 0 18.285 18.285">
  <path id="Path_401" data-name="Path 401" d="M0,0H18.285V18.285H0Z" fill="none"/>
  <path id="Path_402" data-name="Path 402" d="M7.4,10.543H2.524A1.524,1.524,0,0,1,1,9.019v-1.6a1.524,1.524,0,0,1,.114-.581L3.472,1.11a.762.762,0,0,1,.7-.472H17a.762.762,0,0,1,.762.762V9.019A.762.762,0,0,1,17,9.781H14.347a.762.762,0,0,0-.622.322L9.57,15.99a.381.381,0,0,1-.482.121L7.706,15.42a1.9,1.9,0,0,1-.994-2.174Zm5.79-1.972V2.162h-8.5L2.524,7.416v1.6H7.4a1.524,1.524,0,0,1,1.477,1.9l-.688,2.7a.381.381,0,0,0,.2.435l.5.251,3.588-5.083A2.3,2.3,0,0,1,13.19,8.571Zm1.524-.314h1.524V2.162H14.714Z" transform="translate(-0.238 1.489)" fill="#005bdf"/>
</svg>
