<svg xmlns="http://www.w3.org/2000/svg" width="17.976" height="14.605" viewBox="0 0 17.976 14.605">
  <path id="twitter-icon" d="M16.129,5.892a7.356,7.356,0,0,0,1.847-1.913h0a7.7,7.7,0,0,1-2.123.582,3.666,3.666,0,0,0,1.622-2.036,7.373,7.373,0,0,1-2.337.892,3.685,3.685,0,0,0-6.375,2.52,3.8,3.8,0,0,0,.085.84,10.433,10.433,0,0,1-7.6-3.855A3.685,3.685,0,0,0,2.384,7.846,3.643,3.643,0,0,1,.719,7.393v.04a3.7,3.7,0,0,0,2.952,3.621,3.664,3.664,0,0,1-.966.121,3.253,3.253,0,0,1-.7-.063A3.721,3.721,0,0,0,5.451,13.68a7.408,7.408,0,0,1-4.57,1.571A6.97,6.97,0,0,1,0,15.2a10.378,10.378,0,0,0,5.653,1.654A10.417,10.417,0,0,0,16.129,5.892Z" transform="translate(0 -2.25)" fill="#fff"/>
</svg>
