<?xml version="1.0" standalone="no"?>
<!DOCTYPE svg PUBLIC "-//W3C//DTD SVG 1.1//EN" "http://www.w3.org/Graphics/SVG/1.1/DTD/svg11.dtd" >
<svg xmlns="http://www.w3.org/2000/svg" xmlns:xlink="http://www.w3.org/1999/xlink" version="1.1">
<metadata>
Created by FontForge 20170731 at Wed Nov 18 21:07:06 2020
 By Aleksey,,,
Copyright 2019-2020 Dalton Maag Ltd. Modification of this file requires prior written permission from Dalton Maag Ltd.
</metadata>
<defs>
<font id="AktivGroteskExTrial-Bold" horiz-adv-x="0" >
  <font-face 
    font-family="Aktiv Grotesk Ex Trial"
    font-weight="700"
    font-stretch="expanded"
    units-per-em="1000"
    panose-1="2 11 9 4 2 2 2 2 2 4"
    ascent="800"
    descent="-200"
    x-height="522"
    cap-height="714"
    bbox="-272 -831 1712 1271"
    underline-thickness="68"
    underline-position="-201"
    unicode-range="U+000D-1F9FA"
  />
<missing-glyph horiz-adv-x="500" 
d="M50 750h400v-750h-400v750zM400 50v650h-300v-650h300z" />
    <glyph glyph-name="uniFEF5" unicode="&#xfedf;&#xfe82;" horiz-adv-x="587" arabic-form="isolated" 
d="M286 -10q-58 0 -119.5 8.5t-115.5 23.5l7 134q69 67 122.5 122.5t94.5 102.5l-250 231l81 91l240 -233q41 57 58.5 102t17.5 85v51l125 15v-51q0 -64 -26.5 -131t-91.5 -153q52 -55 80 -115t28 -117q0 -166 -251 -166zM421 188q0 48 -62 114q-63 -72 -156 -166
q45 -4 90 -4q70 0 99 12.5t29 43.5zM281 780q-17 -8 -40 -12.5t-46 -4.5q-20 0 -38.5 3.5t-34.5 8.5q-13 4 -26.5 7t-26.5 3q-28 0 -58 -17l-32 55q39 32 87 32q17 0 33.5 -3t31.5 -8q17 -5 31 -8t30 -3q11 0 29 2.5t40 7.5z" />
    <glyph glyph-name="uniFEF6" unicode="&#xfee0;&#xfe82;" horiz-adv-x="629" arabic-form="final" 
d="M387 708l115 15v-454q0 -64 26.5 -92.5t100.5 -28.5l22 -10v-128l-22 -10q-70 0 -116.5 16t-70.5 55q-19 -26 -57.5 -45t-110 -32t-187.5 -21l-7 148q85 3 142 11q-31 122 -78 248t-114 265l108 50q125 -281 189 -537q68 29 67 93zM299 773q-17 -8 -40 -12.5t-46 -4.5
q-20 0 -38.5 3.5t-34.5 8.5q-13 4 -26.5 7t-26.5 3q-28 0 -58 -17l-32 55q39 32 87 32q17 0 33.5 -3t31.5 -8q17 -5 31 -8t30 -3q11 0 29 2.5t40 7.5z" />
    <glyph glyph-name="uniFEF7" unicode="&#xfedf;&#xfe84;" horiz-adv-x="587" arabic-form="isolated" 
d="M286 -10q-58 0 -119.5 8.5t-115.5 23.5l7 134q69 67 122.5 122.5t94.5 102.5l-250 231l81 91l240 -233q41 57 58.5 102t17.5 85v51l125 15v-51q0 -64 -26.5 -131t-91.5 -153q52 -55 80 -115t28 -117q0 -166 -251 -166zM421 188q0 48 -62 114q-63 -72 -156 -166
q45 -4 90 -4q70 0 99 12.5t29 43.5zM15 829l53 6q-21 28 -21 66q0 41 28.5 69t69.5 28q17 0 38.5 -5t39.5 -15l-15 -54q-33 11 -55 11q-20 0 -33.5 -12t-13.5 -30q0 -19 14.5 -32.5t35.5 -13.5q7 0 28 1.5t61 5.5v-65q-48 -4 -103.5 -10t-126.5 -16v66z" />
    <glyph glyph-name="uniFEF8" unicode="&#xfee0;&#xfe84;" horiz-adv-x="629" arabic-form="final" 
d="M387 708l115 15v-454q0 -64 26.5 -92.5t100.5 -28.5l22 -10v-128l-22 -10q-70 0 -116.5 16t-70.5 55q-19 -26 -57.5 -45t-110 -32t-187.5 -21l-7 148q85 3 142 11q-31 122 -78 248t-114 265l108 50q125 -281 189 -537q68 29 67 93zM33 822l53 6q-21 28 -21 66
q0 41 28.5 69t69.5 28q17 0 38.5 -5t39.5 -15l-15 -54q-33 11 -55 11q-20 0 -33.5 -12t-13.5 -30q0 -19 14.5 -32.5t35.5 -13.5q7 0 28 1.5t61 5.5v-65q-48 -4 -103.5 -10t-126.5 -16v66z" />
    <glyph glyph-name="uniFEF9" unicode="&#xfedf;&#xfe88;" horiz-adv-x="587" arabic-form="isolated" 
d="M286 -10q-58 0 -119.5 8.5t-115.5 23.5l7 134q69 67 122.5 122.5t94.5 102.5l-250 231l81 91l240 -233q41 57 58.5 102t17.5 85v51l125 15v-51q0 -64 -26.5 -131t-91.5 -153q52 -55 80 -115t28 -117q0 -166 -251 -166zM421 188q0 48 -62 114q-63 -72 -156 -166
q45 -4 90 -4q70 0 99 12.5t29 43.5zM34 -281l54 7q-22 27 -22 65q0 42 28.5 70t69.5 28q17 0 38.5 -5t39.5 -15l-15 -55q-33 11 -55 11q-20 0 -33.5 -11.5t-13.5 -30.5t14.5 -32t35.5 -13q7 0 28 1.5t61 5.5v-65q-48 -4 -103.5 -10t-126.5 -16v65z" />
    <glyph glyph-name="uniFEFA" unicode="&#xfee0;&#xfe88;" horiz-adv-x="629" arabic-form="final" 
d="M387 708l115 15v-454q0 -64 26.5 -92.5t100.5 -28.5l22 -10v-128l-22 -10q-70 0 -116.5 16t-70.5 55q-19 -26 -57.5 -45t-110 -32t-187.5 -21l-7 148q85 3 142 11q-31 122 -78 248t-114 265l108 50q125 -281 189 -537q68 29 67 93zM69 -281l54 7q-22 27 -22 65
q0 42 28.5 70t69.5 28q17 0 38.5 -5t39.5 -15l-15 -55q-33 11 -55 11q-20 0 -33.5 -11.5t-13.5 -30.5t14.5 -32t35.5 -13q7 0 28 1.5t61 5.5v-65q-48 -4 -103.5 -10t-126.5 -16v65z" />
    <glyph glyph-name="uniFEFB" unicode="&#xfedf;&#xfe8e;" horiz-adv-x="587" arabic-form="isolated" 
d="M286 -10q-58 0 -119.5 8.5t-115.5 23.5l7 134q69 67 122.5 122.5t94.5 102.5l-250 231l81 91l240 -233q41 57 58.5 102t17.5 85v51l125 15v-51q0 -64 -26.5 -131t-91.5 -153q52 -55 80 -115t28 -117q0 -166 -251 -166zM421 188q0 48 -62 114q-63 -72 -156 -166
q45 -4 90 -4q70 0 99 12.5t29 43.5z" />
    <glyph glyph-name="uniFEFC" unicode="&#xfee0;&#xfe8e;" horiz-adv-x="629" arabic-form="final" 
d="M387 708l115 15v-454q0 -64 26.5 -92.5t100.5 -28.5l22 -10v-128l-22 -10q-70 0 -116.5 16t-70.5 55q-19 -26 -57.5 -45t-110 -32t-187.5 -21l-7 148q85 3 142 11q-31 122 -78 248t-114 265l108 50q125 -281 189 -537q68 29 67 93z" />
    <glyph glyph-name="f_f" unicode="ff" horiz-adv-x="951" 
d="M123 387h-101v121h101v27q0 88 58.5 137.5t163.5 49.5q37 0 70 -4t67 -14l-24 -110q-19 5 -37 6.5t-40 1.5q-92 0 -92 -69v-25h163v-121h-163v-387h-166v387zM599 387h-101v121h101v27q0 88 58.5 137.5t163.5 49.5q37 0 70 -4t67 -14l-24 -110q-19 5 -37 6.5t-40 1.5
q-92 0 -92 -69v-25h163v-121h-163v-387h-166v387z" />
    <glyph glyph-name="f_i" unicode="fi" horiz-adv-x="787" 
d="M123 387h-101v121h101v27q0 88 58.5 137.5t163.5 49.5q37 0 70 -4t67 -14l-24 -110q-19 5 -37 6.5t-40 1.5q-92 0 -92 -69v-25h163v-121h-163v-387h-166v387zM549 522h166v-522h-166v522zM552 726h160v-117h-160v117z" />
    <glyph glyph-name="f_l" unicode="fl" horiz-adv-x="787" 
d="M123 387h-101v121h101v27q0 88 58.5 137.5t163.5 49.5q37 0 70 -4t67 -14l-24 -110q-19 5 -37 6.5t-40 1.5q-92 0 -92 -69v-25h163v-121h-163v-387h-166v387zM549 714h166v-714h-166v714z" />
    <glyph glyph-name="f_f_i" unicode="ffi" horiz-adv-x="1263" 
d="M123 387h-101v121h101v27q0 88 58.5 137.5t163.5 49.5q37 0 70 -4t67 -14l-24 -110q-19 5 -37 6.5t-40 1.5q-92 0 -92 -69v-25h163v-121h-163v-387h-166v387zM599 387h-101v121h101v27q0 88 58.5 137.5t163.5 49.5q37 0 70 -4t67 -14l-24 -110q-19 5 -37 6.5t-40 1.5
q-92 0 -92 -69v-25h163v-121h-163v-387h-166v387zM1024 522h166v-522h-166v522zM1027 726h160v-117h-160v117z" />
    <glyph glyph-name="f_f_l" unicode="ffl" horiz-adv-x="1263" 
d="M123 387h-101v121h101v27q0 88 58.5 137.5t163.5 49.5q37 0 70 -4t67 -14l-24 -110q-19 5 -37 6.5t-40 1.5q-92 0 -92 -69v-25h163v-121h-163v-387h-166v387zM599 387h-101v121h101v27q0 88 58.5 137.5t163.5 49.5q37 0 70 -4t67 -14l-24 -110q-19 5 -37 6.5t-40 1.5
q-92 0 -92 -69v-25h163v-121h-163v-387h-166v387zM1024 714h166v-714h-166v714z" />
    <glyph glyph-name="lam_uni0671" unicode="&#xfedf;&#xfb51;" horiz-adv-x="587" 
d="M286 -10q-58 0 -119.5 8.5t-115.5 23.5l7 134q69 67 122.5 122.5t94.5 102.5l-250 231l81 91l240 -233q41 57 58.5 102t17.5 85v51l125 15v-51q0 -64 -26.5 -131t-91.5 -153q52 -55 80 -115t28 -117q0 -166 -251 -166zM421 188q0 48 -62 114q-63 -72 -156 -166
q45 -4 90 -4q70 0 99 12.5t29 43.5zM180 768q-13 0 -31 2.5t-35 8.5q-19 6 -31.5 8.5t-20.5 2.5q-24 0 -51 -16l-26 51q17 14 32.5 21.5t34.5 9.5q25 48 60.5 75.5t73.5 27.5t63.5 -27.5t25.5 -68.5t-25.5 -68t-69.5 -27zM183 896q-39 0 -73 -48q1 -1 2 -1q24 -7 38.5 -10.5
t27.5 -3.5q40 0 40 29q0 14 -9 24t-26 10z" />
    <glyph glyph-name="lam_uni0671.fina" unicode="&#xfee0;&#xfb51;" horiz-adv-x="629" 
d="M387 708l115 15v-454q0 -64 26.5 -92.5t100.5 -28.5l22 -10v-128l-22 -10q-70 0 -116.5 16t-70.5 55q-19 -26 -57.5 -45t-110 -32t-187.5 -21l-7 148q85 3 142 11q-31 122 -78 248t-114 265l108 50q125 -281 189 -537q68 29 67 93zM198 761q-13 0 -31 2.5t-35 8.5
q-19 6 -31.5 8.5t-20.5 2.5q-24 0 -51 -16l-26 51q17 14 32.5 21.5t34.5 9.5q25 48 60.5 75.5t73.5 27.5t63.5 -27.5t25.5 -68.5t-25.5 -68t-69.5 -27zM201 889q-39 0 -73 -48q1 -1 2 -1q24 -7 38.5 -10.5t27.5 -3.5q40 0 40 29q0 14 -9 24t-26 10z" />
    <glyph glyph-name="uni0621" unicode="&#x621;" horiz-adv-x="544" arabic-form="isolated" 
d="M494 66q-121 -14 -227.5 -28t-216.5 -30v130q27 5 49.5 8.5t43.5 6.5q-43 59 -43 130q0 56 26.5 100t71.5 69.5t102 25.5q36 0 77.5 -11.5t89.5 -36.5l-33 -104q-40 12 -67.5 17.5t-52.5 5.5q-52 0 -79 -19t-27 -53q0 -40 34.5 -65.5t81.5 -25.5q18 0 64 3.5t106 9.5
v-133z" />
    <glyph glyph-name="uni0622" unicode="&#x622;" horiz-adv-x="306" arabic-form="isolated" 
d="M216 0h-116l-10 708l126 15v-723zM304 820q-17 -8 -40 -12.5t-46 -4.5q-20 0 -38.5 3.5t-34.5 8.5q-13 4 -26.5 7t-26.5 3q-28 0 -58 -17l-32 55q39 32 87 32q17 0 33.5 -3t31.5 -8q17 -5 31 -8t30 -3q11 0 29 2.5t40 7.5z" />
    <glyph glyph-name="uni0623" unicode="&#x623;" horiz-adv-x="306" arabic-form="isolated" 
d="M216 0h-116l-10 708l126 15v-723zM38 869l53 6q-21 28 -21 66q0 41 28.5 69t69.5 28q17 0 38.5 -5t39.5 -15l-15 -54q-33 11 -55 11q-20 0 -33.5 -12t-13.5 -30q0 -19 14.5 -32.5t35.5 -13.5q7 0 28 1.5t61 5.5v-65q-48 -4 -103.5 -10t-126.5 -16v66z" />
    <glyph glyph-name="uni0624" unicode="&#x624;" horiz-adv-x="522" arabic-form="isolated" 
d="M77 -242l-27 133q129 18 200 45.5t98 76.5q-54 -8 -95 -8q-191 0 -191 183q0 71 26 128t70 90t96 33q63 0 111 -43.5t75 -117.5t27 -166q0 -165 -95 -248t-295 -106zM158 207q0 -37 23.5 -52.5t79.5 -15.5q22 0 48 1.5t55 5.5q-7 45 -25.5 82t-44.5 59t-56 22
q-32 0 -56 -29t-24 -73zM139 605l53 6q-21 28 -21 66q0 41 28.5 69t69.5 28q17 0 38.5 -5t39.5 -15l-15 -54q-33 11 -55 11q-20 0 -33.5 -12t-13.5 -30q0 -19 14.5 -32.5t35.5 -13.5q7 0 28 1.5t61 5.5v-65q-48 -4 -103.5 -10t-126.5 -16v66z" />
    <glyph glyph-name="uni0625" unicode="&#x625;" horiz-adv-x="306" arabic-form="isolated" 
d="M216 0h-116l-10 708l126 15v-723zM38 -261l54 7q-22 27 -22 65q0 42 28.5 70t69.5 28q17 0 38.5 -5t39.5 -15l-15 -55q-33 11 -55 11q-20 0 -33.5 -11.5t-13.5 -30.5t14.5 -32t35.5 -13q7 0 28 1.5t61 5.5v-65q-48 -4 -103.5 -10t-126.5 -16v65z" />
    <glyph glyph-name="uni0626" unicode="&#x626;" horiz-adv-x="784" arabic-form="isolated" 
d="M50 63q0 43 10.5 100t32.5 136l104 -21q-17 -70 -24 -110.5t-7 -68.5q0 -84 57 -129t169 -45q68 0 119.5 14t80.5 37t29 49q0 20 -19.5 34.5t-62.5 26.5l-79 21q-67 18 -99 57.5t-32 104.5q0 70 34 126.5t92.5 90t131.5 33.5q69 0 152 -37l-39 -116q-31 9 -56 13.5
t-48 4.5q-67 0 -111.5 -28t-44.5 -72q0 -23 17.5 -36.5t63.5 -26.5l78 -21q66 -19 98 -57.5t32 -103.5q0 -74 -41.5 -132.5t-118.5 -92t-185 -33.5q-159 0 -246.5 74.5t-87.5 207.5zM269 665l53 6q-21 28 -21 66q0 41 28.5 69t69.5 28q17 0 38.5 -5t39.5 -15l-15 -54
q-33 11 -55 11q-20 0 -33.5 -12t-13.5 -30q0 -19 14.5 -32.5t35.5 -13.5q7 0 28 1.5t61 5.5v-65q-48 -4 -103.5 -10t-126.5 -16v66z" />
    <glyph glyph-name="uni0627" unicode="&#x627;" horiz-adv-x="306" arabic-form="isolated" 
d="M216 0h-116l-10 708l126 15v-723z" />
    <glyph glyph-name="uni0628" unicode="&#x628;" horiz-adv-x="895" arabic-form="isolated" 
d="M50 266q0 25 3 53.5t9.5 68t17.5 96.5l104 -15q-7 -48 -11.5 -78.5t-6 -49t-1.5 -33.5q0 -65 26 -102t89 -52.5t174 -15.5q150 0 214.5 23.5t64.5 72.5q0 16 -5 53t-13 83.5t-18 88.5l116 44q6 -32 11.5 -71t10 -79t7 -74.5t2.5 -57.5q0 -121 -94 -176t-306 -55
q-144 0 -230.5 28t-125 88.5t-38.5 159.5zM430 -101l80 -80l-80 -79l-80 79z" />
    <glyph glyph-name="uni0629" unicode="&#x629;" horiz-adv-x="544" arabic-form="isolated" 
d="M271 -10q-105 0 -163 52.5t-58 145.5q0 67 30 131.5t95 134.5l44 109q83 -32 145 -87.5t96 -126.5t34 -150q0 -100 -56.5 -154.5t-166.5 -54.5zM165 223q0 -41 25 -63t81 -22q57 0 84.5 23.5t27.5 64.5q0 44 -30 90t-93 89q-49 -57 -72 -99.5t-23 -82.5zM117 719l74 74
l75 -74l-75 -75zM276 719l75 74l74 -74l-74 -75z" />
    <glyph glyph-name="uni062A" unicode="&#x62a;" horiz-adv-x="895" arabic-form="isolated" 
d="M50 266q0 25 3 53.5t9.5 68t17.5 96.5l104 -15q-7 -48 -11.5 -78.5t-6 -49t-1.5 -33.5q0 -65 26 -102t89 -52.5t174 -15.5q150 0 214.5 23.5t64.5 72.5q0 16 -5 53t-13 83.5t-18 88.5l116 44q6 -32 11.5 -71t10 -79t7 -74.5t2.5 -57.5q0 -121 -94 -176t-306 -55
q-144 0 -230.5 28t-125 88.5t-38.5 159.5zM290 579l74 74l75 -74l-75 -75zM449 579l75 74l74 -74l-74 -75z" />
    <glyph glyph-name="uni062B" unicode="&#x62b;" horiz-adv-x="895" arabic-form="isolated" 
d="M50 266q0 25 3 53.5t9.5 68t17.5 96.5l104 -15q-7 -48 -11.5 -78.5t-6 -49t-1.5 -33.5q0 -65 26 -102t89 -52.5t174 -15.5q150 0 214.5 23.5t64.5 72.5q0 16 -5 53t-13 83.5t-18 88.5l116 44q6 -32 11.5 -71t10 -79t7 -74.5t2.5 -57.5q0 -121 -94 -176t-306 -55
q-144 0 -230.5 28t-125 88.5t-38.5 159.5zM444 627l-70 69l70 70l70 -70zM362 504l-69 70l69 69l70 -69zM526 504l-70 70l70 69l69 -69z" />
    <glyph glyph-name="uni062C" unicode="&#x62c;" horiz-adv-x="652" arabic-form="isolated" 
d="M220.5 241q73.5 54 175.5 84q-15 6 -31 12q-47 19 -82 27t-60 8q-62 0 -99 -42l-74 74q31 51 72.5 75t96.5 24q33 0 74 -11.5t114 -44.5q53 -23 90.5 -37.5t68 -22.5t62.5 -13l-17 -130q-84 0 -163 -22.5t-141 -60.5t-98.5 -85t-36.5 -95q0 -66 65 -106.5t187 -40.5
q38 0 85 5t96 13l15 -131q-52 -15 -107.5 -25t-106.5 -10q-102 0 -178.5 34.5t-118.5 97.5t-42 146q0 81 40 152t113.5 125zM340 15l80 80l80 -80l-80 -80z" />
    <glyph glyph-name="uni062D" unicode="&#x62d;" horiz-adv-x="652" arabic-form="isolated" 
d="M220.5 241q73.5 54 175.5 84q-15 6 -31 12q-47 19 -82 27t-60 8q-62 0 -99 -42l-74 74q31 51 72.5 75t96.5 24q33 0 74 -11.5t114 -44.5q53 -23 90.5 -37.5t68 -22.5t62.5 -13l-17 -130q-84 0 -163 -22.5t-141 -60.5t-98.5 -85t-36.5 -95q0 -66 65 -106.5t187 -40.5
q38 0 85 5t96 13l15 -131q-52 -15 -107.5 -25t-106.5 -10q-102 0 -178.5 34.5t-118.5 97.5t-42 146q0 81 40 152t113.5 125z" />
    <glyph glyph-name="uni062E" unicode="&#x62e;" horiz-adv-x="652" arabic-form="isolated" 
d="M220.5 241q73.5 54 175.5 84q-15 6 -31 12q-47 19 -82 27t-60 8q-62 0 -99 -42l-74 74q31 51 72.5 75t96.5 24q33 0 74 -11.5t114 -44.5q53 -23 90.5 -37.5t68 -22.5t62.5 -13l-17 -130q-84 0 -163 -22.5t-141 -60.5t-98.5 -85t-36.5 -95q0 -66 65 -106.5t187 -40.5
q38 0 85 5t96 13l15 -131q-52 -15 -107.5 -25t-106.5 -10q-102 0 -178.5 34.5t-118.5 97.5t-42 146q0 81 40 152t113.5 125zM293 651l77 77l77 -77l-77 -77z" />
    <glyph glyph-name="uni062F" unicode="&#x62f;" horiz-adv-x="579" arabic-form="isolated" 
d="M239 508l100 75q55 -79 91.5 -139t58 -105.5t31 -82.5t9.5 -72q0 -94 -59.5 -144t-182.5 -50q-126 0 -181.5 46t-55.5 140v108h107v-56q0 -46 29 -68t106 -22q67 0 95.5 16.5t28.5 43.5q0 20 -16.5 56t-55.5 97.5t-105 156.5z" />
    <glyph glyph-name="uni0630" unicode="&#x630;" horiz-adv-x="579" arabic-form="isolated" 
d="M239 508l100 75q55 -79 91.5 -139t58 -105.5t31 -82.5t9.5 -72q0 -94 -59.5 -144t-182.5 -50q-126 0 -181.5 46t-55.5 140v108h107v-56q0 -46 29 -68t106 -22q67 0 95.5 16.5t28.5 43.5q0 20 -16.5 56t-55.5 97.5t-105 156.5zM218 751l77 77l77 -77l-77 -77z" />
    <glyph glyph-name="uni0631" unicode="&#x631;" horiz-adv-x="394" arabic-form="isolated" 
d="M16 -244l-26 132q125 23 185 70t60 130q0 42 -15 106.5t-45 146.5l121 42q23 -74 35.5 -148.5t12.5 -136.5q0 -155 -82 -237t-246 -105z" />
    <glyph glyph-name="uni0632" unicode="&#x632;" horiz-adv-x="394" arabic-form="isolated" 
d="M16 -244l-26 132q125 23 185 70t60 130q0 42 -15 106.5t-45 146.5l121 42q23 -74 35.5 -148.5t12.5 -136.5q0 -155 -82 -237t-246 -105zM135 551l77 77l77 -77l-77 -77z" />
    <glyph glyph-name="uni0633" unicode="&#x633;" horiz-adv-x="1174" arabic-form="isolated" 
d="M329 -52q50 0 89.5 15.5t62 42.5t22.5 61q0 23 -11.5 88.5t-36.5 174.5l116 44q11 -54 20 -107t14 -98q10 -14 26 -22t40 -8q38 0 62 23t28 60l14 112h104l-7 -81q-1 -8 -1.5 -17t-0.5 -17q0 -36 17 -59t58 -23q36 0 54.5 17.5t18.5 42.5q0 19 -10 66.5t-30 123.5l107 42
q11 -47 20 -98t14 -94.5t5 -69.5q0 -52 -21 -91.5t-59 -62.5t-89 -23q-47 0 -83 20.5t-57 57.5q-19 -35 -57 -56t-82 -21q-20 0 -36.5 4.5t-30.5 11.5q-12 -60 -49 -106.5t-96.5 -73.5t-138.5 -27q-129 0 -202 73t-73 205q0 47 10 102t33 134l104 -22q-17 -70 -24 -109.5
t-7 -69.5q0 -165 163 -165z" />
    <glyph glyph-name="uni0634" unicode="&#x634;" horiz-adv-x="1174" arabic-form="isolated" 
d="M329 -52q50 0 89.5 15.5t62 42.5t22.5 61q0 23 -11.5 88.5t-36.5 174.5l116 44q11 -54 20 -107t14 -98q10 -14 26 -22t40 -8q38 0 62 23t28 60l14 112h104l-7 -81q-1 -8 -1.5 -17t-0.5 -17q0 -36 17 -59t58 -23q36 0 54.5 17.5t18.5 42.5q0 19 -10 66.5t-30 123.5l107 42
q11 -47 20 -98t14 -94.5t5 -69.5q0 -52 -21 -91.5t-59 -62.5t-89 -23q-47 0 -83 20.5t-57 57.5q-19 -35 -57 -56t-82 -21q-20 0 -36.5 4.5t-30.5 11.5q-12 -60 -49 -106.5t-96.5 -73.5t-138.5 -27q-129 0 -202 73t-73 205q0 47 10 102t33 134l104 -22q-17 -70 -24 -109.5
t-7 -69.5q0 -165 163 -165zM813 572l-70 69l70 70l70 -70zM731 449l-69 70l69 69l70 -69zM895 449l-70 70l70 69l69 -69z" />
    <glyph glyph-name="uni0635" unicode="&#x635;" horiz-adv-x="1222" arabic-form="isolated" 
d="M329 -52q50 0 89.5 15.5t62 42.5t22.5 61q0 23 -11.5 88.5t-36.5 174.5l116 44q11 -54 20 -107t14 -97q41 83 97 147t120 100t130 36q62 0 111.5 -30.5t78.5 -82t29 -114.5q0 -66 -32 -117t-97 -80t-165 -29h-151q-72 0 -116 12q-11 -61 -48 -109t-97 -75.5t-140 -27.5
q-129 0 -202 73t-73 205q0 47 10 102t33 134l104 -22q-17 -70 -24 -109.5t-7 -69.5q0 -165 163 -165zM1064 226q0 38 -35 67t-88 29q-64 0 -129 -46t-123 -128h15h169q109 0 150 19.5t41 58.5z" />
    <glyph glyph-name="uni0636" unicode="&#x636;" horiz-adv-x="1222" arabic-form="isolated" 
d="M329 -52q50 0 89.5 15.5t62 42.5t22.5 61q0 23 -11.5 88.5t-36.5 174.5l116 44q11 -54 20 -107t14 -97q41 83 97 147t120 100t130 36q62 0 111.5 -30.5t78.5 -82t29 -114.5q0 -66 -32 -117t-97 -80t-165 -29h-151q-72 0 -116 12q-11 -61 -48 -109t-97 -75.5t-140 -27.5
q-129 0 -202 73t-73 205q0 47 10 102t33 134l104 -22q-17 -70 -24 -109.5t-7 -69.5q0 -165 163 -165zM1064 226q0 38 -35 67t-88 29q-64 0 -129 -46t-123 -128h15h169q109 0 150 19.5t41 58.5zM723 621l77 77l77 -77l-77 -77z" />
    <glyph glyph-name="uni0637" unicode="&#x637;" horiz-adv-x="772" arabic-form="isolated" 
d="M203 708l114 15l-2 -361q47 38 96 59.5t97 21.5q61 0 109 -28t76.5 -78t28.5 -116q0 -112 -92.5 -171.5t-256.5 -59.5q-55 0 -119 6.5t-123.5 16.5t-100.5 22l29 143q25 -6 50 -11l50 -10q25 49 55 93zM254 144q65 -6 132 -6q105 0 167 17.5t62 65.5q0 37 -31 64t-81 27
q-61 0 -126 -43.5t-123 -124.5z" />
    <glyph glyph-name="uni0638" unicode="&#x638;" horiz-adv-x="772" arabic-form="isolated" 
d="M203 708l114 15l-2 -361q47 38 96 59.5t97 21.5q61 0 109 -28t76.5 -78t28.5 -116q0 -112 -92.5 -171.5t-256.5 -59.5q-55 0 -119 6.5t-123.5 16.5t-100.5 22l29 143q25 -6 50 -11l50 -10q25 49 55 93zM254 144q65 -6 132 -6q105 0 167 17.5t62 65.5q0 37 -31 64t-81 27
q-61 0 -126 -43.5t-123 -124.5zM441 611l77 77l77 -77l-77 -77z" />
    <glyph glyph-name="uni0639" unicode="&#x639;" horiz-adv-x="615" arabic-form="isolated" 
d="M580 -283q-50 -13 -101.5 -21.5t-100.5 -8.5q-100 0 -174 33.5t-114 94.5t-40 141q0 73 35.5 138.5t102.5 114.5q-41 48 -56 86t-15 77q0 64 30 114.5t81.5 80.5t113.5 30q47 0 89.5 -20t88.5 -62l-59 -84q-61 43 -117 43q-33 0 -61 -13t-45 -34.5t-17 -48.5
q0 -24 17.5 -48.5t63.5 -60.5q51 19 110.5 29.5t127.5 10.5l-11 -130q-81 0 -149.5 -17t-119 -45.5t-78 -65.5t-27.5 -78q0 -63 61.5 -101t179.5 -38q37 0 81.5 4t87.5 11z" />
    <glyph glyph-name="uni063A" unicode="&#x63a;" horiz-adv-x="615" arabic-form="isolated" 
d="M580 -283q-50 -13 -101.5 -21.5t-100.5 -8.5q-100 0 -174 33.5t-114 94.5t-40 141q0 73 35.5 138.5t102.5 114.5q-41 48 -56 86t-15 77q0 64 30 114.5t81.5 80.5t113.5 30q47 0 89.5 -20t88.5 -62l-59 -84q-61 43 -117 43q-33 0 -61 -13t-45 -34.5t-17 -48.5
q0 -24 17.5 -48.5t63.5 -60.5q51 19 110.5 29.5t127.5 10.5l-11 -130q-81 0 -149.5 -17t-119 -45.5t-78 -65.5t-27.5 -78q0 -63 61.5 -101t179.5 -38q37 0 81.5 4t87.5 11zM251 764l77 77l77 -77l-77 -77z" />
    <glyph glyph-name="uni0641" unicode="&#x641;" horiz-adv-x="925" arabic-form="isolated" 
d="M460 -10q-150 0 -240 29.5t-130 91t-40 155.5q0 26 3 54.5t10 67.5t17 96l104 -15q-7 -49 -11.5 -78.5t-6 -47.5t-1.5 -35q0 -46 12 -79t44.5 -54t93 -31t156.5 -10q146 0 216 24.5t86 79.5q-29 -9 -55.5 -12.5t-54.5 -3.5q-191 0 -191 174q0 68 26 124t70 89.5t98 33.5
q61 0 107.5 -44t73.5 -122t27 -181q0 -111 -41 -178.5t-132 -97.5t-241 -30zM657 517q-35 0 -60.5 -30.5t-25.5 -74.5q0 -37 24 -52t85 -15q23 0 46 2t48 7q-12 72 -43.5 117.5t-73.5 45.5zM588 791l77 77l77 -77l-77 -77z" />
    <glyph glyph-name="uni0642" unicode="&#x642;" horiz-adv-x="756" arabic-form="isolated" 
d="M364 -245q-162 0 -238 80t-76 216q0 47 10 102t33 134l104 -22q-17 -70 -24 -108.5t-7 -70.5q0 -88 50.5 -137.5t165.5 -49.5q99 0 156 34.5t69 97.5q-59 -17 -113 -17q-191 0 -191 174q0 68 26 124.5t70 90t98 33.5q61 0 107.5 -44.5t73.5 -124.5t27 -185
q0 -327 -341 -327zM402 205q0 -37 24 -52t85 -15q23 0 45.5 2t47.5 6q-12 74 -43.5 118.5t-72.5 44.5q-35 0 -60.5 -30t-25.5 -74zM343 581l74 74l75 -74l-75 -75zM502 581l75 74l74 -74l-74 -75z" />
    <glyph glyph-name="uni0643" unicode="&#x643;" horiz-adv-x="795" arabic-form="isolated" 
d="M724 247q0 -93 -32.5 -149.5t-105.5 -82t-193 -25.5q-124 0 -199.5 27.5t-109.5 88t-34 160.5q0 25 2.5 52t9.5 66.5t18 99.5l104 -15q-7 -49 -11.5 -79.5t-6 -48.5t-1.5 -33q0 -65 21 -102t72.5 -52.5t140.5 -15.5q115 0 163.5 25.5t48.5 86.5l-2 458l115 15v-476z
M504 372q0 -47 -39.5 -78t-98.5 -31q-23 0 -45 6t-47 18l21 63q37 -16 78 -16q55 0 76 28l-89 24q-28 8 -38.5 22t-10.5 34q0 34 23.5 63t62 46.5t83.5 17.5l-10 -70q-29 0 -58 -13.5t-43 -33.5l78 -21q32 -9 44.5 -23t12.5 -36z" />
    <glyph glyph-name="uni0644" unicode="&#x644;" horiz-adv-x="694" arabic-form="isolated" 
d="M614 62q0 -75 -36 -131.5t-101 -88.5t-152 -32q-127 0 -201 72.5t-74 205.5q0 46 10 101.5t33 134.5l104 -22q-18 -70 -24.5 -108.5t-6.5 -70.5q0 -165 164 -165q82 0 131 36.5t48 97.5l-11 616l116 15v-661z" />
    <glyph glyph-name="uni0645" unicode="&#x645;" horiz-adv-x="610" arabic-form="isolated" 
d="M50 -306v345q0 51 23 87t63 50q11 81 44.5 143.5t80 98t99.5 35.5q55 0 100.5 -35t72.5 -97t27 -143q0 -88 -39.5 -138t-113.5 -50q-31 0 -61.5 7t-62.5 20q-31 12 -48 17.5t-32 5.5q-17 0 -25 -12t-8 -32l2 -294zM288.5 281q-35.5 -39 -55.5 -106q24 -6 57 -19
q29 -10 56.5 -16.5t54.5 -6.5q60 0 60 52q0 36 -13.5 66.5t-36.5 49.5t-51 19q-36 0 -71.5 -39z" />
    <glyph glyph-name="uni0646" unicode="&#x646;" horiz-adv-x="664" arabic-form="isolated" 
d="M50 78q0 46 10 101.5t33 134.5l104 -22q-17 -70 -24 -109t-7 -70q0 -80 41 -122.5t122 -42.5q50 0 89 15.5t61.5 42.5t22.5 61q0 16 -6 56t-16.5 90t-24.5 96l116 44q13 -49 22.5 -106t15 -107t5.5 -79q0 -72 -34 -131t-98.5 -94.5t-156.5 -35.5q-127 0 -201 72.5
t-74 205.5zM248 431l77 77l77 -77l-77 -77z" />
    <glyph glyph-name="uni0647" unicode="&#x647;" horiz-adv-x="544" arabic-form="isolated" 
d="M271 -10q-105 0 -163 52.5t-58 145.5q0 67 30 131.5t95 134.5l44 109q83 -32 145 -87.5t96 -126.5t34 -150q0 -100 -56.5 -154.5t-166.5 -54.5zM165 223q0 -41 25 -63t81 -22q57 0 84.5 23.5t27.5 64.5q0 44 -30 90t-93 89q-49 -57 -72 -99.5t-23 -82.5z" />
    <glyph glyph-name="uni0648" unicode="&#x648;" horiz-adv-x="522" arabic-form="isolated" 
d="M77 -242l-27 133q129 18 200 45.5t98 76.5q-54 -8 -95 -8q-191 0 -191 183q0 71 26 128t70 90t96 33q63 0 111 -43.5t75 -117.5t27 -166q0 -165 -95 -248t-295 -106zM158 207q0 -37 23.5 -52.5t79.5 -15.5q22 0 48 1.5t55 5.5q-7 45 -25.5 82t-44.5 59t-56 22
q-32 0 -56 -29t-24 -73z" />
    <glyph glyph-name="uni0649" unicode="&#x649;" horiz-adv-x="784" arabic-form="isolated" 
d="M50 63q0 43 10.5 100t32.5 136l104 -21q-17 -70 -24 -110.5t-7 -68.5q0 -84 57 -129t169 -45q68 0 119.5 14t80.5 37t29 49q0 20 -19.5 34.5t-62.5 26.5l-79 21q-67 18 -99 57.5t-32 104.5q0 70 34 126.5t92.5 90t131.5 33.5q69 0 152 -37l-39 -116q-31 9 -56 13.5
t-48 4.5q-67 0 -111.5 -28t-44.5 -72q0 -23 17.5 -36.5t63.5 -26.5l78 -21q66 -19 98 -57.5t32 -103.5q0 -74 -41.5 -132.5t-118.5 -92t-185 -33.5q-159 0 -246.5 74.5t-87.5 207.5z" />
    <glyph glyph-name="uni064A" unicode="&#x64a;" horiz-adv-x="784" arabic-form="isolated" 
d="M50 63q0 43 10.5 100t32.5 136l104 -21q-17 -70 -24 -110.5t-7 -68.5q0 -84 57 -129t169 -45q68 0 119.5 14t80.5 37t29 49q0 20 -19.5 34.5t-62.5 26.5l-79 21q-67 18 -99 57.5t-32 104.5q0 70 34 126.5t92.5 90t131.5 33.5q69 0 152 -37l-39 -116q-31 9 -56 13.5
t-48 4.5q-67 0 -111.5 -28t-44.5 -72q0 -23 17.5 -36.5t63.5 -26.5l78 -21q66 -19 98 -57.5t32 -103.5q0 -74 -41.5 -132.5t-118.5 -92t-185 -33.5q-159 0 -246.5 74.5t-87.5 207.5zM304 -309l75 -75l-75 -74l-74 74zM464 -309l74 -75l-74 -74l-75 74z" />
    <glyph glyph-name="uni066E.init" unicode="&#x66e;" horiz-adv-x="305" 
d="M-22 138l22 10q80 0 112 13t32 44q0 21 -5 62t-14 92t-21 100l116 44q10 -48 17.5 -105.5t12 -109.5t4.5 -84q0 -106 -61.5 -155t-192.5 -49l-22 10v128z" />
    <glyph glyph-name="uni066E.medi" unicode="&#x66e;" horiz-adv-x="365" 
d="M-22 138l22 10q55 0 81 9.5t37 29.5q5 9 8.5 21t5.5 27l14 128h104l-7 -83q-1 -12 -2 -28t-1 -25q0 -39 29 -59t96 -20l22 -10v-128l-22 -10h-18q-60 0 -104 15.5t-69 55.5q-23 -37 -64 -54t-110 -17l-22 10v128z" />
    <glyph glyph-name="uni066E.fina" unicode="&#x66e;" horiz-adv-x="960" 
d="M746 363h103l-8 -91q-1 -13 -1.5 -25t-0.5 -19q0 -40 29 -60t92 -20l22 -10v-128l-22 -10h-23q-130 0 -179 65q-78 -40 -160 -57.5t-184 -17.5q-129 0 -209.5 28.5t-117.5 89.5t-37 158q0 24 2.5 51t9.5 66.5t18 100.5l104 -15q-7 -47 -11 -77t-6 -49.5t-2 -35.5
q0 -64 24 -101t81 -52.5t154 -15.5q175 0 303 46q0 26 3 49z" />
    <glyph glyph-name="uni0671" unicode="&#x671;" horiz-adv-x="306" arabic-form="isolated" 
d="M216 0h-116l-10 708l126 15v-723zM203 808q-13 0 -31 2.5t-35 8.5q-19 6 -31.5 8.5t-20.5 2.5q-24 0 -51 -16l-26 51q17 14 32.5 21.5t34.5 9.5q25 48 60.5 75.5t73.5 27.5t63.5 -27.5t25.5 -68.5t-25.5 -68t-69.5 -27zM206 936q-39 0 -73 -48q1 -1 2 -1
q24 -7 38.5 -10.5t27.5 -3.5q40 0 40 29q0 14 -9 24t-26 10z" />
    <glyph glyph-name="uni0679" unicode="&#x679;" horiz-adv-x="895" arabic-form="isolated" 
d="M50 266q0 25 3 53.5t9.5 68t17.5 96.5l104 -15q-7 -48 -11.5 -78.5t-6 -49t-1.5 -33.5q0 -65 26 -102t89 -52.5t174 -15.5q150 0 214.5 23.5t64.5 72.5q0 16 -5 53t-13 83.5t-18 88.5l116 44q6 -32 11.5 -71t10 -79t7 -74.5t2.5 -57.5q0 -121 -94 -176t-306 -55
q-144 0 -230.5 28t-125 88.5t-38.5 159.5zM365 794l57 6v-107q36 26 74 26q41 0 67 -26t26 -67q0 -97 -151 -97q-33 0 -72.5 4.5t-66.5 11.5l12 64q18 -5 39 -9q9 20 20 37zM446.5 640q-22.5 -16 -40.5 -46q20 -1 40 -1q47 0 66.5 8t19.5 24q0 15 -11 23t-28 8
q-24 0 -46.5 -16z" />
    <glyph glyph-name="uni067E" unicode="&#x67e;" horiz-adv-x="895" arabic-form="isolated" 
d="M50 266q0 25 3 53.5t9.5 68t17.5 96.5l104 -15q-7 -48 -11.5 -78.5t-6 -49t-1.5 -33.5q0 -65 26 -102t89 -52.5t174 -15.5q150 0 214.5 23.5t64.5 72.5q0 16 -5 53t-13 83.5t-18 88.5l116 44q6 -32 11.5 -71t10 -79t7 -74.5t2.5 -57.5q0 -121 -94 -176t-306 -55
q-144 0 -230.5 28t-125 88.5t-38.5 159.5zM360 -293l70 69l70 -69l-70 -70zM279 -171l69 70l70 -70l-70 -69zM442 -171l70 70l69 -70l-69 -69z" />
    <glyph glyph-name="uni0686" unicode="&#x686;" horiz-adv-x="652" arabic-form="isolated" 
d="M220.5 241q73.5 54 175.5 84q-15 6 -31 12q-47 19 -82 27t-60 8q-62 0 -99 -42l-74 74q31 51 72.5 75t96.5 24q33 0 74 -11.5t114 -44.5q53 -23 90.5 -37.5t68 -22.5t62.5 -13l-17 -130q-84 0 -163 -22.5t-141 -60.5t-98.5 -85t-36.5 -95q0 -66 65 -106.5t187 -40.5
q38 0 85 5t96 13l15 -131q-52 -15 -107.5 -25t-106.5 -10q-102 0 -178.5 34.5t-118.5 97.5t-42 146q0 81 40 152t113.5 125zM357 -40l63 63l63 -63l-63 -63zM290 70l63 63l63 -63l-63 -63zM424 70l63 63l63 -63l-63 -63z" />
    <glyph glyph-name="uni0688" unicode="&#x688;" horiz-adv-x="579" arabic-form="isolated" 
d="M239 508l100 75q55 -79 91.5 -139t58 -105.5t31 -82.5t9.5 -72q0 -94 -59.5 -144t-182.5 -50q-126 0 -181.5 46t-55.5 140v108h107v-56q0 -46 29 -68t106 -22q67 0 95.5 16.5t28.5 43.5q0 20 -16.5 56t-55.5 97.5t-105 156.5zM216 964l57 6v-107q36 26 74 26q41 0 67 -26
t26 -67q0 -97 -151 -97q-33 0 -72.5 4.5t-66.5 11.5l12 64q18 -5 39 -9q9 20 20 37zM297.5 810q-22.5 -16 -40.5 -46q20 -1 40 -1q47 0 66.5 8t19.5 24q0 15 -11 23t-28 8q-24 0 -46.5 -16z" />
    <glyph glyph-name="uni0691" unicode="&#x691;" horiz-adv-x="394" arabic-form="isolated" 
d="M16 -244l-26 132q125 23 185 70t60 130q0 42 -15 106.5t-45 146.5l121 42q23 -74 35.5 -148.5t12.5 -136.5q0 -155 -82 -237t-246 -105zM133 764l57 6v-107q36 26 74 26q41 0 67 -26t26 -67q0 -97 -151 -97q-33 0 -72.5 4.5t-66.5 11.5l12 64q18 -5 39 -9q9 20 20 37z
M214.5 610q-22.5 -16 -40.5 -46q20 -1 40 -1q47 0 66.5 8t19.5 24q0 15 -11 23t-28 8q-24 0 -46.5 -16z" />
    <glyph glyph-name="uni0698" unicode="&#x698;" horiz-adv-x="394" arabic-form="isolated" 
d="M16 -244l-26 132q125 23 185 70t60 130q0 42 -15 106.5t-45 146.5l121 42q23 -74 35.5 -148.5t12.5 -136.5q0 -155 -82 -237t-246 -105zM212 597l-70 69l70 70l70 -70zM130 474l-69 70l69 69l70 -69zM294 474l-70 70l70 69l69 -69z" />
    <glyph glyph-name="uni06A1.init" unicode="&#x6a1;" horiz-adv-x="499" 
d="M0 0l-22 10v128l22 10h128q75 0 121 8t70 27.5t31 54.5q-30 -8 -57 -12t-55 -4q-191 0 -191 174q0 68 26 124t70 89.5t98 33.5q61 0 107.5 -44t73.5 -122t27 -181q0 -105 -34 -170t-107 -95.5t-191 -30.5h-117zM232 517q-35 0 -60.5 -30.5t-25.5 -74.5q0 -37 24 -52
t85 -15q23 0 46 2t48 7q-12 72 -43.5 117.5t-73.5 45.5z" />
    <glyph glyph-name="uni06A1.medi" unicode="&#x6a1;" horiz-adv-x="500" 
d="M0 0l-22 7v134l22 7q55 0 102 3q-40 58 -40 131q0 44 15.5 85.5t42.5 74.5t61.5 52t71.5 19t70.5 -18.5t60 -50t42 -71.5t15.5 -83q0 -76 -48 -138q48 -4 107 -4l22 -7v-134l-22 -7q-75 0 -139.5 11.5t-116.5 32.5q-51 -21 -112.5 -32.5t-131.5 -11.5zM251 388
q-23 0 -45 -15.5t-36 -40.5t-14 -53q0 -70 95 -102q95 32 95 99q0 28 -14 53.5t-35.5 42t-45.5 16.5z" />
    <glyph glyph-name="uni06A1.fina" unicode="&#x6a1;" horiz-adv-x="1010" 
d="M445 -10q-205 0 -300 67t-95 207q0 25 2.5 53t9.5 69t18 103l104 -15q-11 -73 -15 -108.5t-4 -58.5q0 -62 25.5 -99t89.5 -53.5t179 -16.5q86 0 152 6q-44 61 -44 138q0 44 15.5 85.5t42.5 74.5t61.5 52t71.5 19t70.5 -18.5t60 -50t42 -71.5t15.5 -83q0 -76 -46 -138
q49 -4 110 -4l22 -7v-134l-22 -7q-77 0 -142 11t-117 32q-60 -25 -137 -39t-169 -14zM851 276q0 29 -14 54.5t-35.5 41.5t-45.5 16q-23 0 -45 -15.5t-36 -40.5t-14 -53q0 -71 102 -104q46 18 67 43.5t21 57.5z" />
    <glyph glyph-name="uni06A4" unicode="&#x6a4;" horiz-adv-x="925" arabic-form="isolated" 
d="M460 -10q-150 0 -240 29.5t-130 91t-40 155.5q0 26 3 54.5t10 67.5t17 96l104 -15q-7 -49 -11.5 -78.5t-6 -47.5t-1.5 -35q0 -46 12 -79t44.5 -54t93 -31t156.5 -10q146 0 216 24.5t86 79.5q-29 -9 -55.5 -12.5t-54.5 -3.5q-191 0 -191 174q0 68 26 124t70 89.5t98 33.5
q61 0 107.5 -44t73.5 -122t27 -181q0 -111 -41 -178.5t-132 -97.5t-241 -30zM657 517q-35 0 -60.5 -30.5t-25.5 -74.5q0 -37 24 -52t85 -15q23 0 46 2t48 7q-12 72 -43.5 117.5t-73.5 45.5zM665 837l-70 69l70 70l70 -70zM583 714l-69 70l69 69l70 -69zM747 714l-70 70
l70 69l69 -69z" />
    <glyph glyph-name="uni06A5.init" unicode="&#x6a5;" horiz-adv-x="499" 
d="M0 0l-22 10v128l22 10h128q75 0 121 8t70 27.5t31 54.5q-30 -8 -57 -12t-55 -4q-191 0 -191 174q0 68 26 124t70 89.5t98 33.5q61 0 107.5 -44t73.5 -122t27 -181q0 -105 -34 -170t-107 -95.5t-191 -30.5h-117zM232 517q-35 0 -60.5 -30.5t-25.5 -74.5q0 -37 24 -52
t85 -15q23 0 46 2t48 7q-12 72 -43.5 117.5t-73.5 45.5zM150 -283l70 69l70 -69l-70 -70zM69 -161l69 70l70 -70l-70 -69zM232 -161l70 70l69 -70l-69 -69z" />
    <glyph glyph-name="uni06A5.medi" unicode="&#x6a5;" horiz-adv-x="500" 
d="M0 0l-22 7v134l22 7q55 0 102 3q-40 58 -40 131q0 44 15.5 85.5t42.5 74.5t61.5 52t71.5 19t70.5 -18.5t60 -50t42 -71.5t15.5 -83q0 -76 -48 -138q48 -4 107 -4l22 -7v-134l-22 -7q-75 0 -139.5 11.5t-116.5 32.5q-51 -21 -112.5 -32.5t-131.5 -11.5zM251 388
q-23 0 -45 -15.5t-36 -40.5t-14 -53q0 -70 95 -102q95 32 95 99q0 28 -14 53.5t-35.5 42t-45.5 16.5zM183 -283l70 69l70 -69l-70 -70zM102 -161l69 70l70 -70l-70 -69zM265 -161l70 70l69 -70l-69 -69z" />
    <glyph glyph-name="uni06A5.fina" unicode="&#x6a5;" horiz-adv-x="1010" 
d="M445 -10q-205 0 -300 67t-95 207q0 25 2.5 53t9.5 69t18 103l104 -15q-11 -73 -15 -108.5t-4 -58.5q0 -62 25.5 -99t89.5 -53.5t179 -16.5q86 0 152 6q-44 61 -44 138q0 44 15.5 85.5t42.5 74.5t61.5 52t71.5 19t70.5 -18.5t60 -50t42 -71.5t15.5 -83q0 -76 -46 -138
q49 -4 110 -4l22 -7v-134l-22 -7q-77 0 -142 11t-117 32q-60 -25 -137 -39t-169 -14zM851 276q0 29 -14 54.5t-35.5 41.5t-45.5 16q-23 0 -45 -15.5t-36 -40.5t-14 -53q0 -71 102 -104q46 18 67 43.5t21 57.5zM375 -293l70 69l70 -69l-70 -70zM294 -171l69 70l70 -70
l-70 -69zM457 -171l70 70l69 -70l-69 -69z" />
    <glyph glyph-name="uni06A8.init" unicode="&#x6a8;" horiz-adv-x="499" 
d="M0 0l-22 10v128l22 10h128q75 0 121 8t70 27.5t31 54.5q-30 -8 -57 -12t-55 -4q-191 0 -191 174q0 68 26 124t70 89.5t98 33.5q61 0 107.5 -44t73.5 -122t27 -181q0 -105 -34 -170t-107 -95.5t-191 -30.5h-117zM232 517q-35 0 -60.5 -30.5t-25.5 -74.5q0 -37 24 -52
t85 -15q23 0 46 2t48 7q-12 72 -43.5 117.5t-73.5 45.5zM241 837l-70 69l70 70l70 -70zM159 714l-69 70l69 69l70 -69zM323 714l-70 70l70 69l69 -69z" />
    <glyph glyph-name="uni06A8.medi" unicode="&#x6a8;" horiz-adv-x="500" 
d="M0 0l-22 7v134l22 7q55 0 102 3q-40 58 -40 131q0 44 15.5 85.5t42.5 74.5t61.5 52t71.5 19t70.5 -18.5t60 -50t42 -71.5t15.5 -83q0 -76 -48 -138q48 -4 107 -4l22 -7v-134l-22 -7q-75 0 -139.5 11.5t-116.5 32.5q-51 -21 -112.5 -32.5t-131.5 -11.5zM251 388
q-23 0 -45 -15.5t-36 -40.5t-14 -53q0 -70 95 -102q95 32 95 99q0 28 -14 53.5t-35.5 42t-45.5 16.5zM253 707l-70 69l70 70l70 -70zM171 584l-69 70l69 69l70 -69zM335 584l-70 70l70 69l69 -69z" />
    <glyph glyph-name="uni06A8.fina" unicode="&#x6a8;" horiz-adv-x="775" 
d="M364 -245q-162 0 -238 80t-76 216q0 47 10 102t33 134l104 -22q-17 -70 -24 -108.5t-7 -70.5q0 -88 50.5 -137.5t165.5 -49.5q90 0 145.5 29t73.5 82h-104q-98 0 -146 45.5t-48 132.5q0 68 26 124.5t70 90t98 33.5t97.5 -35.5t71.5 -100t36 -152.5h73l22 -10v-128
l-22 -10h-76q-39 -245 -335 -245zM402 205q0 -37 24 -52t85 -15h94q-11 78 -42.5 124.5t-74.5 46.5q-35 0 -60.5 -30t-25.5 -74zM497 629l-70 69l70 70l70 -70zM415 506l-69 70l69 69l70 -69zM579 506l-70 70l70 69l69 -69z" />
    <glyph glyph-name="uni06A9" unicode="&#x6a9;" horiz-adv-x="949" arabic-form="isolated" 
d="M504 470l28 117l407 135l-12 -128l-285 -94l91 -121q41 -55 60 -99t19 -91q0 -62 -35.5 -107t-116.5 -68.5t-218 -23.5q-142 0 -228 28t-125 88.5t-39 159.5q0 25 3 53.5t9.5 68t17.5 96.5l104 -15q-7 -48 -11.5 -78.5t-6 -49t-1.5 -33.5q0 -65 25.5 -102t88.5 -52.5
t173 -15.5q88 0 137.5 7t70.5 21.5t21 34.5q0 17 -11.5 40t-45.5 69z" />
    <glyph glyph-name="uni06AF" unicode="&#x6af;" horiz-adv-x="949" arabic-form="isolated" 
d="M504 470l28 117l407 135l-12 -128l-285 -94l91 -121q41 -55 60 -99t19 -91q0 -62 -35.5 -107t-116.5 -68.5t-218 -23.5q-142 0 -228 28t-125 88.5t-39 159.5q0 25 3 53.5t9.5 68t17.5 96.5l104 -15q-7 -48 -11.5 -78.5t-6 -49t-1.5 -33.5q0 -65 25.5 -102t88.5 -52.5
t173 -15.5q88 0 137.5 7t70.5 21.5t21 34.5q0 17 -11.5 40t-45.5 69zM940 860l-10 -80l-392 -130l18 82z" />
    <glyph glyph-name="uni06BA" unicode="&#x6ba;" horiz-adv-x="664" arabic-form="isolated" 
d="M50 78q0 46 10 101.5t33 134.5l104 -22q-17 -70 -24 -109t-7 -70q0 -80 41 -122.5t122 -42.5q50 0 89 15.5t61.5 42.5t22.5 61q0 16 -6 56t-16.5 90t-24.5 96l116 44q13 -49 22.5 -106t15 -107t5.5 -79q0 -72 -34 -131t-98.5 -94.5t-156.5 -35.5q-127 0 -201 72.5
t-74 205.5z" />
    <glyph glyph-name="uni06BE" unicode="&#x6be;" horiz-adv-x="824" arabic-form="isolated" 
d="M536 -10q-93 0 -168 32q-70 -27 -155 -27q-48 0 -95 8t-88 21l32 141q43 -10 83.5 -16t82.5 -6v0q-31 56 -31 123q0 51 17 97.5t45.5 82.5t64.5 53l18 44q126 -58 211.5 -105t136 -89.5t72.5 -85.5t22 -92q0 -87 -64.5 -134t-183.5 -47zM377 168q37 16 57.5 42.5
t20.5 62.5q0 33 -15.5 64.5t-39.5 43.5h-1q-10 5 -21 5q-21 0 -40.5 -17t-32 -42t-12.5 -51q0 -35 22.5 -62.5t61.5 -45.5zM538 256q0 -64 -29 -117q16 -1 34 -1q72 0 105 11.5t33 37.5q0 15 -13 32.5t-45 40t-89 53.5q4 -28 4 -57z" />
    <glyph glyph-name="uni06C0" unicode="&#x6c0;" horiz-adv-x="544" arabic-form="isolated" 
d="M271 -10q-105 0 -163 52.5t-58 145.5q0 67 30 131.5t95 134.5l44 109q83 -32 145 -87.5t96 -126.5t34 -150q0 -100 -56.5 -154.5t-166.5 -54.5zM165 223q0 -41 25 -63t81 -22q57 0 84.5 23.5t27.5 64.5q0 44 -30 90t-93 89q-49 -57 -72 -99.5t-23 -82.5zM156 720l53 6
q-21 28 -21 66q0 41 28.5 69t69.5 28q17 0 38.5 -5t39.5 -15l-15 -54q-33 11 -55 11q-20 0 -33.5 -12t-13.5 -30q0 -19 14.5 -32.5t35.5 -13.5q7 0 28 1.5t61 5.5v-65q-48 -4 -103.5 -10t-126.5 -16v66z" />
    <glyph glyph-name="uni06C1" unicode="&#x6c1;" horiz-adv-x="544" arabic-form="isolated" 
d="M271 -10q-105 0 -163 52.5t-58 145.5q0 67 30 131.5t95 134.5l44 109q83 -32 145 -87.5t96 -126.5t34 -150q0 -100 -56.5 -154.5t-166.5 -54.5zM165 223q0 -41 25 -63t81 -22q57 0 84.5 23.5t27.5 64.5q0 44 -30 90t-93 89q-49 -57 -72 -99.5t-23 -82.5z" />
    <glyph glyph-name="uni06C2.fina" unicode="&#x6c2;" horiz-adv-x="614" 
d="M636 10l-22 -10q-76 0 -122 29t-67 90l-30 89q-16 46 -30 63t-37 17q-15 0 -31 -8.5t-39 -30.5t-60 -63l-78 -86l-90 78l82 95q70 81 124 116.5t106 35.5q103 0 143 -117l25 -72q18 -52 39.5 -70t64.5 -18l22 -10v-128zM227 572l53 6q-21 28 -21 66q0 41 28.5 69t69.5 28
q17 0 38.5 -5t39.5 -15l-15 -54q-33 11 -55 11q-20 0 -33.5 -12t-13.5 -30q0 -19 14.5 -32.5t35.5 -13.5q7 0 28 1.5t61 5.5v-65q-48 -4 -103.5 -10t-126.5 -16v66z" />
    <glyph glyph-name="uni06C3.fina" unicode="&#x6c3;" horiz-adv-x="614" 
d="M636 10l-22 -10q-76 0 -122 29t-67 90l-30 89q-16 46 -30 63t-37 17q-15 0 -31 -8.5t-39 -30.5t-60 -63l-78 -86l-90 78l82 95q70 81 124 116.5t106 35.5q103 0 143 -117l25 -72q18 -52 39.5 -70t64.5 -18l22 -10v-128zM188 571l74 74l75 -74l-75 -75zM347 571l75 74
l74 -74l-74 -75z" />
    <glyph glyph-name="uni06CC" unicode="&#x6cc;" horiz-adv-x="784" arabic-form="isolated" 
d="M50 63q0 43 10.5 100t32.5 136l104 -21q-17 -70 -24 -110.5t-7 -68.5q0 -84 57 -129t169 -45q68 0 119.5 14t80.5 37t29 49q0 20 -19.5 34.5t-62.5 26.5l-79 21q-67 18 -99 57.5t-32 104.5q0 70 34 126.5t92.5 90t131.5 33.5q69 0 152 -37l-39 -116q-31 9 -56 13.5
t-48 4.5q-67 0 -111.5 -28t-44.5 -72q0 -23 17.5 -36.5t63.5 -26.5l78 -21q66 -19 98 -57.5t32 -103.5q0 -74 -41.5 -132.5t-118.5 -92t-185 -33.5q-159 0 -246.5 74.5t-87.5 207.5z" />
    <glyph glyph-name="uni06D2" unicode="&#x6d2;" horiz-adv-x="720" arabic-form="isolated" 
d="M689 4q-51 -4 -114 -7t-121.5 -5t-97.5 -2q-99 0 -167.5 15t-103.5 51.5t-35 101.5q0 63 28 124.5t74.5 112.5t102.5 81.5t112 30.5q72 0 115.5 -53.5t43.5 -147.5v-31h-105v24q0 33 -19.5 52.5t-48.5 19.5q-28 0 -60.5 -18t-62 -45.5t-48 -57.5t-18.5 -54
q0 -31 45 -44.5t157 -13.5q60 0 135 3t180 10z" />
    <glyph glyph-name="uni06D3" unicode="&#x6d3;" horiz-adv-x="720" arabic-form="isolated" 
d="M689 4q-51 -4 -114 -7t-121.5 -5t-97.5 -2q-99 0 -167.5 15t-103.5 51.5t-35 101.5q0 63 28 124.5t74.5 112.5t102.5 81.5t112 30.5q72 0 115.5 -53.5t43.5 -147.5v-31h-105v24q0 33 -19.5 52.5t-48.5 19.5q-28 0 -60.5 -18t-62 -45.5t-48 -57.5t-18.5 -54
q0 -31 45 -44.5t157 -13.5q60 0 135 3t180 10zM252 674l53 6q-21 28 -21 66q0 41 28.5 69t69.5 28q17 0 38.5 -5t39.5 -15l-15 -54q-33 11 -55 11q-20 0 -33.5 -12t-13.5 -30q0 -19 14.5 -32.5t35.5 -13.5q7 0 28 1.5t61 5.5v-65q-48 -4 -103.5 -10t-126.5 -16v66z" />
    <glyph glyph-name="uni06D5.fina" unicode="&#x6d5;" horiz-adv-x="555" 
d="M555 0q-91 0 -144 25.5t-74 81.5q-60 -10 -106 -10q-92 0 -146.5 43t-54.5 119q0 61 36 113t101 89.5t153 54.5v54l116 13v-336q0 -55 26 -77t93 -22l22 -10v-128zM236 240q44 0 87 7l-1 133q-84 -9 -134 -35.5t-50 -59.5q0 -45 98 -45z" />
    <glyph glyph-name="uniFB51" unicode="&#x671;" horiz-adv-x="319" arabic-form="final" 
d="M80 708l125 15v-472q0 -55 26 -79t88 -24l22 -10v-128l-22 -10q-113 0 -169 56.5t-58 171.5zM193 808q-13 0 -31 2.5t-35 8.5q-19 6 -31.5 8.5t-20.5 2.5q-24 0 -51 -16l-26 51q17 14 32.5 21.5t34.5 9.5q25 48 60.5 75.5t73.5 27.5t63.5 -27.5t25.5 -68.5t-25.5 -68
t-69.5 -27zM196 936q-39 0 -73 -48q1 -1 2 -1q24 -7 38.5 -10.5t27.5 -3.5q40 0 40 29q0 14 -9 24t-26 10z" />
    <glyph glyph-name="uniFB57" unicode="&#x67e;" horiz-adv-x="960" arabic-form="final" 
d="M746 363h103l-8 -91q-1 -13 -1.5 -25t-0.5 -19q0 -40 29 -60t92 -20l22 -10v-128l-22 -10h-23q-130 0 -179 65q-78 -40 -160 -57.5t-184 -17.5q-129 0 -209.5 28.5t-117.5 89.5t-37 158q0 24 2.5 51t9.5 66.5t18 100.5l104 -15q-7 -47 -11 -77t-6 -49.5t-2 -35.5
q0 -64 24 -101t81 -52.5t154 -15.5q175 0 303 46q0 26 3 49zM350 -293l70 69l70 -69l-70 -70zM269 -171l69 70l70 -70l-70 -69zM432 -171l70 70l69 -70l-69 -69z" />
    <glyph glyph-name="uniFB58" unicode="&#x67e;" horiz-adv-x="305" arabic-form="initial" 
d="M-22 138l22 10q80 0 112 13t32 44q0 21 -5 62t-14 92t-21 100l116 44q10 -48 17.5 -105.5t12 -109.5t4.5 -84q0 -106 -61.5 -155t-192.5 -49l-22 10v128zM-5 -283l70 69l70 -69l-70 -70zM-86 -161l69 70l70 -70l-70 -69zM77 -161l70 70l69 -70l-69 -69z" />
    <glyph glyph-name="uniFB59" unicode="&#x67e;" horiz-adv-x="365" arabic-form="medial" 
d="M-22 138l22 10q55 0 81 9.5t37 29.5q5 9 8.5 21t5.5 27l14 128h104l-7 -83q-1 -12 -2 -28t-1 -25q0 -39 29 -59t96 -20l22 -10v-128l-22 -10h-18q-60 0 -104 15.5t-69 55.5q-23 -37 -64 -54t-110 -17l-22 10v128zM-5 -283l70 69l70 -69l-70 -70zM-86 -161l69 70l70 -70
l-70 -69zM77 -161l70 70l69 -70l-69 -69z" />
    <glyph glyph-name="uniFB67" unicode="&#x679;" horiz-adv-x="960" arabic-form="final" 
d="M746 363h103l-8 -91q-1 -13 -1.5 -25t-0.5 -19q0 -40 29 -60t92 -20l22 -10v-128l-22 -10h-23q-130 0 -179 65q-78 -40 -160 -57.5t-184 -17.5q-129 0 -209.5 28.5t-117.5 89.5t-37 158q0 24 2.5 51t9.5 66.5t18 100.5l104 -15q-7 -47 -11 -77t-6 -49.5t-2 -35.5
q0 -64 24 -101t81 -52.5t154 -15.5q175 0 303 46q0 26 3 49zM390 794l57 6v-107q36 26 74 26q41 0 67 -26t26 -67q0 -97 -151 -97q-33 0 -72.5 4.5t-66.5 11.5l12 64q18 -5 39 -9q9 20 20 37zM471.5 640q-22.5 -16 -40.5 -46q20 -1 40 -1q47 0 66.5 8t19.5 24q0 15 -11 23
t-28 8q-24 0 -46.5 -16z" />
    <glyph glyph-name="uniFB68" unicode="&#x679;" horiz-adv-x="305" arabic-form="initial" 
d="M-22 138l22 10q80 0 112 13t32 44q0 21 -5 62t-14 92t-21 100l116 44q10 -48 17.5 -105.5t12 -109.5t4.5 -84q0 -106 -61.5 -155t-192.5 -49l-22 10v128zM71 864l57 6v-107q36 26 74 26q41 0 67 -26t26 -67q0 -97 -151 -97q-33 0 -72.5 4.5t-66.5 11.5l12 64q18 -5 39 -9
q9 20 20 37zM152.5 710q-22.5 -16 -40.5 -46q20 -1 40 -1q47 0 66.5 8t19.5 24q0 15 -11 23t-28 8q-24 0 -46.5 -16z" />
    <glyph glyph-name="uniFB69" unicode="&#x679;" horiz-adv-x="365" arabic-form="medial" 
d="M-22 138l22 10q55 0 81 9.5t37 29.5q5 9 8.5 21t5.5 27l14 128h104l-7 -83q-1 -12 -2 -28t-1 -25q0 -39 29 -59t96 -20l22 -10v-128l-22 -10h-18q-60 0 -104 15.5t-69 55.5q-23 -37 -64 -54t-110 -17l-22 10v128zM119 744l57 6v-107q36 26 74 26q41 0 67 -26t26 -67
q0 -97 -151 -97q-33 0 -72.5 4.5t-66.5 11.5l12 64q18 -5 39 -9q9 20 20 37zM200.5 590q-22.5 -16 -40.5 -46q20 -1 40 -1q47 0 66.5 8t19.5 24q0 15 -11 23t-28 8q-24 0 -46.5 -16z" />
    <glyph glyph-name="uniFB6B" unicode="&#x6a4;" horiz-adv-x="1010" arabic-form="final" 
d="M445 -10q-205 0 -300 67t-95 207q0 25 2.5 53t9.5 69t18 103l104 -15q-11 -73 -15 -108.5t-4 -58.5q0 -62 25.5 -99t89.5 -53.5t179 -16.5q86 0 152 6q-44 61 -44 138q0 44 15.5 85.5t42.5 74.5t61.5 52t71.5 19t70.5 -18.5t60 -50t42 -71.5t15.5 -83q0 -76 -46 -138
q49 -4 110 -4l22 -7v-134l-22 -7q-77 0 -142 11t-117 32q-60 -25 -137 -39t-169 -14zM851 276q0 29 -14 54.5t-35.5 41.5t-45.5 16q-23 0 -45 -15.5t-36 -40.5t-14 -53q0 -71 102 -104q46 18 67 43.5t21 57.5zM758 707l-70 69l70 70l70 -70zM676 584l-69 70l69 69l70 -69z
M840 584l-70 70l70 69l69 -69z" />
    <glyph glyph-name="uniFB6C" unicode="&#x6a4;" horiz-adv-x="499" arabic-form="initial" 
d="M0 0l-22 10v128l22 10h128q75 0 121 8t70 27.5t31 54.5q-30 -8 -57 -12t-55 -4q-191 0 -191 174q0 68 26 124t70 89.5t98 33.5q61 0 107.5 -44t73.5 -122t27 -181q0 -105 -34 -170t-107 -95.5t-191 -30.5h-117zM232 517q-35 0 -60.5 -30.5t-25.5 -74.5q0 -37 24 -52
t85 -15q23 0 46 2t48 7q-12 72 -43.5 117.5t-73.5 45.5zM241 837l-70 69l70 70l70 -70zM159 714l-69 70l69 69l70 -69zM323 714l-70 70l70 69l69 -69z" />
    <glyph glyph-name="uniFB6D" unicode="&#x6a4;" horiz-adv-x="500" arabic-form="medial" 
d="M0 0l-22 7v134l22 7q55 0 102 3q-40 58 -40 131q0 44 15.5 85.5t42.5 74.5t61.5 52t71.5 19t70.5 -18.5t60 -50t42 -71.5t15.5 -83q0 -76 -48 -138q48 -4 107 -4l22 -7v-134l-22 -7q-75 0 -139.5 11.5t-116.5 32.5q-51 -21 -112.5 -32.5t-131.5 -11.5zM251 388
q-23 0 -45 -15.5t-36 -40.5t-14 -53q0 -70 95 -102q95 32 95 99q0 28 -14 53.5t-35.5 42t-45.5 16.5zM253 707l-70 69l70 70l70 -70zM171 584l-69 70l69 69l70 -69zM335 584l-70 70l70 69l69 -69z" />
    <glyph glyph-name="uniFB7B" unicode="&#x686;" horiz-adv-x="715" arabic-form="final" 
d="M223 242.5q75 54.5 178 84.5l-34 12q-44 17 -81.5 25t-62.5 8q-62 0 -99 -42l-74 74q31 51 72.5 75t96.5 24q33 0 74 -11.5t114 -44.5q53 -23 90 -37.5t67 -22.5t63 -13l-17 -123q-20 0 -40 -1q7 -55 39 -78.5t81 -23.5h25l22 -10v-128l-22 -10h-29q-90 0 -144 57.5
t-63 177.5q-63 -15 -119 -41.5t-98 -61.5t-66 -73.5t-24 -77.5q0 -66 65 -106.5t187 -40.5q35 0 78 4.5t86 11.5l15 -133q-49 -14 -99.5 -22.5t-97.5 -8.5q-102 0 -178.5 34.5t-118.5 97.5t-42 146q0 82 40.5 153t115.5 125.5zM313 -53l63 63l63 -63l-63 -63zM246 57l63 63
l63 -63l-63 -63zM380 57l63 63l63 -63l-63 -63z" />
    <glyph glyph-name="uniFB7C" unicode="&#x686;" horiz-adv-x="650" arabic-form="initial" 
d="M-22 138l22 10q61 0 112 7.5t102.5 23.5t111.5 40q69 28 112 43q-42 15 -91 35q-43 17 -82.5 26t-65.5 9q-62 0 -99 -42l-73 74q30 52 72 75.5t97 23.5q34 0 79.5 -12.5t122.5 -44.5q53 -22 90.5 -36.5t68 -22.5t63.5 -13l-17 -124q-10 0 -31 -7.5t-60.5 -26.5
t-105.5 -54q-83 -44 -151.5 -71t-130 -39t-124.5 -12l-22 10v128zM175 -283l70 69l70 -69l-70 -70zM94 -161l69 70l70 -70l-70 -69zM257 -161l70 70l69 -70l-69 -69z" />
    <glyph glyph-name="uniFB7D" unicode="&#x686;" horiz-adv-x="689" arabic-form="medial" 
d="M-22 138l22 10q61 0 112 8t102.5 23.5t111.5 39.5q69 28 112 43q-40 14 -91 35q-43 17 -82.5 26t-65.5 9q-62 0 -99 -42l-73 74q30 52 72 75.5t97 23.5q34 0 79.5 -12.5t122.5 -44.5q53 -22 90.5 -36.5t68 -22.5t63.5 -13l-17 -120q-10 0 -24 -4.5t-38 -14.5
q16 -22 43.5 -34.5t61.5 -12.5h43l22 -10v-128l-22 -10h-16q-73 0 -129 40t-81 115q-12 -6 -25.5 -13.5t-29.5 -15.5q-89 -47 -157.5 -74.5t-128 -39.5t-122.5 -12l-22 10v128zM175 -283l70 69l70 -69l-70 -70zM94 -161l69 70l70 -70l-70 -69zM257 -161l70 70l69 -70
l-69 -69z" />
    <glyph glyph-name="uniFB89" unicode="&#x688;" horiz-adv-x="619" arabic-form="final" 
d="M311 542l111 31l83 -322q11 -41 24.5 -63.5t34.5 -31t55 -8.5l22 -10v-128l-22 -10q-112 0 -164 69q-32 -40 -77.5 -59.5t-112.5 -19.5q-110 0 -162.5 47.5t-52.5 138.5v108h107v-56q0 -42 30 -66t97 -24q44 0 75 11t50 31zM278 944l57 6v-107q36 26 74 26q41 0 67 -26
t26 -67q0 -97 -151 -97q-33 0 -72.5 4.5t-66.5 11.5l12 64q18 -5 39 -9q9 20 20 37zM359.5 790q-22.5 -16 -40.5 -46q20 -1 40 -1q47 0 66.5 8t19.5 24q0 15 -11 23t-28 8q-24 0 -46.5 -16z" />
    <glyph glyph-name="uniFB8B" unicode="&#x698;" horiz-adv-x="474" arabic-form="final" 
d="M17 -244l-27 133q132 23 193.5 69.5t61.5 129.5q0 35 -10.5 92t-32.5 131l112 32l30 -105q10 -35 24 -55t38.5 -27.5t67.5 -7.5l22 -10v-128l-22 -10q-77 0 -123 40q-14 -126 -96.5 -195t-237.5 -89zM245 557l-70 69l70 70l70 -70zM163 434l-69 70l69 69l70 -69zM327 434
l-70 70l70 69l69 -69z" />
    <glyph glyph-name="uniFB8D" unicode="&#x691;" horiz-adv-x="474" arabic-form="final" 
d="M17 -244l-27 133q132 23 193.5 69.5t61.5 129.5q0 35 -10.5 92t-32.5 131l112 32l30 -105q10 -35 24 -55t38.5 -27.5t67.5 -7.5l22 -10v-128l-22 -10q-77 0 -123 40q-14 -126 -96.5 -195t-237.5 -89zM166 724l57 6v-107q36 26 74 26q41 0 67 -26t26 -67q0 -97 -151 -97
q-33 0 -72.5 4.5t-66.5 11.5l12 64q18 -5 39 -9q9 20 20 37zM247.5 570q-22.5 -16 -40.5 -46q20 -1 40 -1q47 0 66.5 8t19.5 24q0 15 -11 23t-28 8q-24 0 -46.5 -16z" />
    <glyph glyph-name="uniFB8F" unicode="&#x6a9;" horiz-adv-x="974" arabic-form="final" 
d="M501 466l31 121l407 135l-12 -128l-293 -97l168 -243q43 -61 81 -83.5t91 -22.5l22 -10v-128l-22 -10q-69 0 -117 22.5t-87 62.5q-37 -51 -115 -73t-207 -22q-145 0 -232.5 28t-126.5 88.5t-39 159.5q0 25 3 53.5t9.5 68t17.5 96.5l104 -15q-7 -48 -11.5 -78.5t-6 -49
t-1.5 -33.5q0 -65 26 -102t89 -52.5t174 -15.5q95 0 156 11t88 29z" />
    <glyph glyph-name="uniFB90" unicode="&#x6a9;" horiz-adv-x="485" arabic-form="initial" 
d="M39 470l28 117l407 135l-12 -128l-284 -95l90 -120q41 -55 60 -99t19 -91q0 -89 -63 -139t-182 -50h-102l-22 10v128l22 10h78q77 0 107.5 11.5t30.5 40.5q0 17 -11 40t-46 70z" />
    <glyph glyph-name="uniFB91" unicode="&#x6a9;" horiz-adv-x="519" arabic-form="medial" 
d="M38 466l29 121l407 135l-12 -128l-291 -97l169 -243q28 -39 53.5 -62t55.5 -33.5t70 -10.5l22 -10v-128l-22 -10q-73 0 -122.5 22.5t-86.5 61.5q-32 -45 -83.5 -64.5t-132.5 -19.5h-94l-22 10v128l22 10h78q114 0 159 30z" />
    <glyph glyph-name="uniFB93" unicode="&#x6af;" horiz-adv-x="974" arabic-form="final" 
d="M501 466l31 121l407 135l-12 -128l-293 -97l168 -243q43 -61 81 -83.5t91 -22.5l22 -10v-128l-22 -10q-69 0 -117 22.5t-87 62.5q-37 -51 -115 -73t-207 -22q-145 0 -232.5 28t-126.5 88.5t-39 159.5q0 25 3 53.5t9.5 68t17.5 96.5l104 -15q-7 -48 -11.5 -78.5t-6 -49
t-1.5 -33.5q0 -65 26 -102t89 -52.5t174 -15.5q95 0 156 11t88 29zM940 860l-10 -80l-392 -130l18 82z" />
    <glyph glyph-name="uniFB94" unicode="&#x6af;" horiz-adv-x="485" arabic-form="initial" 
d="M39 470l28 117l407 135l-12 -128l-284 -95l90 -120q41 -55 60 -99t19 -91q0 -89 -63 -139t-182 -50h-102l-22 10v128l22 10h78q77 0 107.5 11.5t30.5 40.5q0 17 -11 40t-46 70zM476 860l-10 -80l-392 -130l18 82z" />
    <glyph glyph-name="uniFB95" unicode="&#x6af;" horiz-adv-x="519" arabic-form="medial" 
d="M38 466l29 121l407 135l-12 -128l-291 -97l169 -243q28 -39 53.5 -62t55.5 -33.5t70 -10.5l22 -10v-128l-22 -10q-73 0 -122.5 22.5t-86.5 61.5q-32 -45 -83.5 -64.5t-132.5 -19.5h-94l-22 10v128l22 10h78q114 0 159 30zM479 860l-10 -80l-392 -130l18 82z" />
    <glyph glyph-name="uniFB9F" unicode="&#x6ba;" horiz-adv-x="725" arabic-form="final" 
d="M50 78q0 46 10 101.5t33 134.5l104 -22q-17 -70 -24 -109t-7 -70q0 -80 41 -122.5t122 -42.5q50 0 89 15.5t61.5 42.5t22.5 61q0 16 -6 56t-16.5 90t-24.5 96l116 44l24 -106q9 -42 22 -63t38 -28.5t70 -7.5l22 -10v-128l-22 -10h-25q-23 0 -46.5 5.5t-41.5 18.5
q-9 -63 -45 -114t-97 -80.5t-145 -29.5q-127 0 -201 72.5t-74 205.5z" />
    <glyph glyph-name="uniFBA5" unicode="&#x6c0;" horiz-adv-x="555" arabic-form="final" 
d="M555 0q-91 0 -144 25.5t-74 81.5q-60 -10 -106 -10q-92 0 -146.5 43t-54.5 119q0 61 36 113t101 89.5t153 54.5v54l116 13v-336q0 -55 26 -77t93 -22l22 -10v-128zM236 240q44 0 87 7l-1 133q-84 -9 -134 -35.5t-50 -59.5q0 -45 98 -45zM217 730l53 6q-21 28 -21 66
q0 41 28.5 69t69.5 28q17 0 38.5 -5t39.5 -15l-15 -54q-33 11 -55 11q-20 0 -33.5 -12t-13.5 -30q0 -19 14.5 -32.5t35.5 -13.5q7 0 28 1.5t61 5.5v-65q-48 -4 -103.5 -10t-126.5 -16v66z" />
    <glyph glyph-name="uniFBA7" unicode="&#x6c1;" horiz-adv-x="614" arabic-form="final" 
d="M636 10l-22 -10q-76 0 -122 29t-67 90l-30 89q-16 46 -30 63t-37 17q-15 0 -31 -8.5t-39 -30.5t-60 -63l-78 -86l-90 78l82 95q70 81 124 116.5t106 35.5q103 0 143 -117l25 -72q18 -52 39.5 -70t64.5 -18l22 -10v-128z" />
    <glyph glyph-name="uniFBA8" unicode="&#x6c1;" horiz-adv-x="305" arabic-form="initial" 
d="M0 0l-22 10v128l22 10q80 0 112 13t32 44q0 21 -5 62t-14 92t-21 100l116 44q10 -48 17.5 -105.5t12 -109.5t4.5 -84q0 -106 -61.5 -155t-192.5 -49zM43 -90l66 -29q-15 -32 -23.5 -62t-8.5 -48l65 -17q0 -36 -21 -58.5t-55 -22.5t-55 23.5t-21 62.5q0 62 53 151z" />
    <glyph glyph-name="uniFBA9" unicode="&#x6c1;" horiz-adv-x="529" arabic-form="medial" 
d="M142 34q-45 -34 -142 -34l-22 10v128l22 10q55 0 81 9.5t37 29.5q5 9 8.5 21t5.5 27l14 118h104q-7 -64 -12.5 -122.5t-5.5 -93.5q0 -57 16 -95t59 -71q17 92 74 134.5t148 42.5l22 -10v-128l-22 -10q-61 0 -92.5 -18.5t-41.5 -61.5q33 -16 79 -36l-56 -119
q-114 38 -185 107t-91 162z" />
    <glyph glyph-name="uniFBAB" unicode="&#x6be;" horiz-adv-x="849" arabic-form="final" 
d="M536 -10q-93 0 -168 32q-70 -27 -155 -27q-48 0 -95 8t-88 21l32 141q43 -10 83.5 -16t82.5 -6v0q-31 56 -31 123q0 51 17 97.5t45.5 82.5t64.5 53l18 44q126 -58 211.5 -105t136 -89.5t72.5 -85.5t22 -92q0 -10 -1 -19q39 -4 66 -4l22 -10v-128l-22 -10q-34 0 -75.5 6
t-74.5 18q-62 -34 -163 -34zM399 381q-10 5 -21 5q-21 0 -40.5 -17t-32 -42t-12.5 -51q0 -35 22.5 -62.5t61.5 -45.5q37 16 57.5 42.5t20.5 62.5q0 33 -15.5 64.5t-39.5 43.5h-1zM668 219.5q-13 17.5 -45 40t-89 53.5q4 -28 4 -57q0 -64 -29 -117q16 -1 34 -1q72 0 105 11.5
t33 37.5q0 15 -13 32.5z" />
    <glyph glyph-name="uniFBAC" unicode="&#x6be;" horiz-adv-x="584" arabic-form="initial" 
d="M361 -230q-57 0 -107.5 29.5t-89.5 82.5t-63 122q-50 -4 -101 -4l-22 10v128l22 10q39 0 73 1q-2 22 -2 45q0 88 23 153t64.5 100.5t96.5 35.5q53 0 97.5 -30.5t72 -81t27.5 -109.5q0 -63 -38 -117q55 -20 87.5 -69.5t32.5 -118.5q0 -54 -22 -96.5t-61 -66.5t-90 -24z
M259 357q-41 0 -67 -44.5t-26 -125.5q0 -16 1 -32q95 11 138 36.5t43 68.5q0 25 -12.5 47t-32.5 36t-44 14zM431 -41q0 35 -29.5 59.5t-72.5 24.5q-12 0 -26 -3l-56 -13q-23 -5 -47 -9q25 -56 63.5 -90t84.5 -34q35 0 59 18.5t24 46.5z" />
    <glyph glyph-name="uniFBAD" unicode="&#x6be;" horiz-adv-x="715" arabic-form="medial" 
d="M406 -10q-52 0 -98.5 10t-85.5 29q-91 -29 -222 -29l-22 7v134l22 7q52 0 94 2q-27 54 -27 116q0 51 17 98t46 82.5t65 53.5l18 43q126 -58 211 -105t135.5 -89.5t72.5 -85.5t22 -92q0 -10 -1 -20q37 -3 62 -3l22 -10v-128l-22 -10q-33 0 -74 6t-73 17q-62 -33 -162 -33z
M176 327q-12 -25 -12 -51q0 -33 19.5 -59t54.5 -44q87 29 87 100q0 27 -10 53t-27.5 43t-39.5 17q-21 0 -40.5 -17t-31.5 -42zM552 187q0 15 -13 32.5t-45 40.5t-90 54q4 -29 4 -58q0 -67 -30 -117q17 -1 35 -1q73 0 106 11.5t33 37.5z" />
    <glyph glyph-name="uniFBAF" unicode="&#x6d2;" horiz-adv-x="640" arabic-form="final" 
d="M515 -214q-76 -8 -127 -11.5t-97 -3.5q-122 0 -181.5 44.5t-59.5 136.5q0 95 69.5 145.5t193.5 50.5h327l22 -10v-128l-22 -10h-347q-69 0 -101.5 -10.5t-32.5 -33.5q0 -47 133 -47q30 0 59.5 1t67 3.5t90.5 5.5z" />
    <glyph glyph-name="uniFBB1" unicode="&#x6d3;" horiz-adv-x="640" arabic-form="final" 
d="M515 -214q-76 -8 -127 -11.5t-97 -3.5q-122 0 -181.5 44.5t-59.5 136.5q0 95 69.5 145.5t193.5 50.5h327l22 -10v-128l-22 -10h-347q-69 0 -101.5 -10.5t-32.5 -33.5q0 -47 133 -47q30 0 59.5 1t67 3.5t90.5 5.5zM128 315l53 6q-21 28 -21 66q0 41 28.5 69t69.5 28
q17 0 38.5 -5t39.5 -15l-15 -54q-33 11 -55 11q-20 0 -33.5 -12t-13.5 -30q0 -19 14.5 -32.5t35.5 -13.5q7 0 28 1.5t61 5.5v-65q-48 -4 -103.5 -10t-126.5 -16v66z" />
    <glyph glyph-name="uniFBE8" unicode="&#x649;" horiz-adv-x="305" arabic-form="initial" 
d="M-22 138l22 10q80 0 112 13t32 44q0 21 -5 62t-14 92t-21 100l116 44q10 -48 17.5 -105.5t12 -109.5t4.5 -84q0 -106 -61.5 -155t-192.5 -49l-22 10v128z" />
    <glyph glyph-name="uniFBE9" unicode="&#x649;" horiz-adv-x="365" arabic-form="medial" 
d="M-22 138l22 10q55 0 81 9.5t37 29.5q5 9 8.5 21t5.5 27l14 128h104l-7 -83q-1 -12 -2 -28t-1 -25q0 -39 29 -59t96 -20l22 -10v-128l-22 -10h-18q-60 0 -104 15.5t-69 55.5q-23 -37 -64 -54t-110 -17l-22 10v128z" />
    <glyph glyph-name="uniFBFD" unicode="&#x6cc;" horiz-adv-x="809" arabic-form="final" 
d="M50 63q0 43 10.5 100t32.5 136l104 -21q-17 -70 -24 -110.5t-7 -68.5q0 -84 57 -129t169 -45q93 0 155 25.5t73 61.5q-54 6 -110 16l22 144q74 -11 149.5 -17.5t127.5 -6.5l22 -10v-128l-22 -10h-12q-33 0 -70 2q-10 -65 -54 -115t-117.5 -78t-171.5 -28
q-159 0 -246.5 74.5t-87.5 207.5z" />
    <glyph glyph-name="uniFBFE" unicode="&#x6cc;" horiz-adv-x="305" arabic-form="initial" 
d="M-22 138l22 10q80 0 112 13t32 44q0 21 -5 62t-14 92t-21 100l116 44q10 -48 17.5 -105.5t12 -109.5t4.5 -84q0 -106 -61.5 -155t-192.5 -49l-22 10v128zM-15 -91l75 -75l-75 -74l-74 74zM145 -91l74 -75l-74 -74l-75 74z" />
    <glyph glyph-name="uniFBFF" unicode="&#x6cc;" horiz-adv-x="365" arabic-form="medial" 
d="M-22 138l22 10q55 0 81 9.5t37 29.5q5 9 8.5 21t5.5 27l14 128h104l-7 -83q-1 -12 -2 -28t-1 -25q0 -39 29 -59t96 -20l22 -10v-128l-22 -10h-18q-60 0 -104 15.5t-69 55.5q-23 -37 -64 -54t-110 -17l-22 10v128zM-15 -91l75 -75l-75 -74l-74 74zM145 -91l74 -75l-74 -74
l-75 74z" />
    <glyph glyph-name="uniFC5E" unicode="&#xfc5e;" arabic-form="isolated" 
d="M-113 900l46 -12q-3 -16 -5 -30t-2 -22q0 -26 25 -26q11 0 18 7t8 20l4 43h45q-1 -15 -1.5 -26t-0.5 -19q0 -25 24 -25q26 0 26 26q0 8 -2 22t-5 30l46 12q5 -16 8.5 -39.5t3.5 -38.5q0 -34 -19 -56t-50 -22q-42 0 -56 30q-14 -30 -56 -30q-31 0 -50 22t-19 56
q0 15 4 38.5t8 39.5zM-83 950q-7 44 -22.5 62t-49.5 25l15 65q38 -6 57 -26t27 -61q31 3 55 8q-23 29 -23 65q0 39 26 66t63 27q38 0 64 -27t26 -67q0 -56 -62.5 -93t-175.5 -44zM65 1043q33 17 33 41q0 14 -9.5 24.5t-23.5 10.5q-13 0 -23 -10.5t-10 -24.5q0 -26 33 -41z
" />
    <glyph glyph-name="uniFC5F" unicode="&#xfc5f;" arabic-form="isolated" 
d="M-105 734v66q45 7 102 14t108 11v-65q-49 -4 -101 -11t-109 -15zM-105 853v66q45 7 102 14t108 11v-64q-49 -4 -101 -11t-109 -16zM-113 1171l46 -12q-3 -16 -5 -30t-2 -22q0 -26 25 -26q11 0 18 7t8 20l4 43h45q-1 -15 -1.5 -26t-0.5 -19q0 -25 24 -25q26 0 26 26
q0 8 -2 22t-5 30l46 12q5 -16 8.5 -39.5t3.5 -38.5q0 -34 -19 -56t-50 -22q-42 0 -56 30q-14 -30 -56 -30q-31 0 -50 22t-19 56q0 15 4 38.5t8 39.5z" />
    <glyph glyph-name="uniFC60" unicode="&#xfc60;" arabic-form="isolated" 
d="M-113 900l46 -12q-3 -16 -5 -30t-2 -22q0 -26 25 -26q11 0 18 7t8 20l4 43h45q-1 -15 -1.5 -26t-0.5 -19q0 -25 24 -25q26 0 26 26q0 8 -2 22t-5 30l46 12q5 -16 8.5 -39.5t3.5 -38.5q0 -34 -19 -56t-50 -22q-42 0 -56 30q-14 -30 -56 -30q-31 0 -50 22t-19 56
q0 15 4 38.5t8 39.5zM-115 1016q65 8 122 14.5t108 10.5v-65q-49 -4 -100 -9.5t-130 -16.5v66z" />
    <glyph glyph-name="uniFC61" unicode="&#xfc61;" arabic-form="isolated" 
d="M-113 900l46 -12q-3 -16 -5 -30t-2 -22q0 -26 25 -26q11 0 18 7t8 20l4 43h45q-1 -15 -1.5 -26t-0.5 -19q0 -25 24 -25q26 0 26 26q0 8 -2 22t-5 30l46 12q5 -16 8.5 -39.5t3.5 -38.5q0 -34 -19 -56t-50 -22q-42 0 -56 30q-14 -30 -56 -30q-31 0 -50 22t-19 56
q0 15 4 38.5t8 39.5zM-108 940l-7 64q43 4 76 11q-25 29 -25 67q0 41 26 67t63 26q38 0 64 -27t26 -67q0 -57 -58 -93.5t-165 -47.5zM25 1114q-13 0 -23 -10.5t-10 -24.5q0 -26 35 -41q31 17 31 41q0 14 -9.5 24.5t-23.5 10.5z" />
    <glyph glyph-name="uniFC62" unicode="&#xfc62;" arabic-form="isolated" 
d="M-115 800q65 8 122 14.5t108 10.5v-65q-49 -4 -100 -9.5t-130 -16.5v66zM-113 1051l46 -12q-3 -16 -5 -30t-2 -22q0 -26 25 -26q11 0 18 7t8 20l4 43h45q-1 -15 -1.5 -26t-0.5 -19q0 -25 24 -25q26 0 26 26q0 8 -2 22t-5 30l46 12q5 -16 8.5 -39.5t3.5 -38.5
q0 -34 -19 -56t-50 -22q-42 0 -56 30q-14 -30 -56 -30q-31 0 -50 22t-19 56q0 15 4 38.5t8 39.5z" />
    <glyph glyph-name="uniFC63" unicode="&#xfc63;" arabic-form="isolated" 
d="M-113 900l46 -12q-3 -16 -5 -30t-2 -22q0 -26 25 -26q11 0 18 7t8 20l4 43h45q-1 -15 -1.5 -26t-0.5 -19q0 -25 24 -25q26 0 26 26q0 8 -2 22t-5 30l46 12q5 -16 8.5 -39.5t3.5 -38.5q0 -34 -19 -56t-50 -22q-42 0 -56 30q-14 -30 -56 -30q-31 0 -50 22t-19 56
q0 15 4 38.5t8 39.5zM-30 1102l58 11q3 -33 3 -60q0 -45 -10 -89l-47 -4q0 42 -1 75.5t-3 66.5z" />
    <glyph glyph-name="uniFDF2" unicode="&#xfdf2;" horiz-adv-x="1406" arabic-form="isolated" 
d="M1316 0h-116l-10 708l126 15v-723zM1043 219q0 -114 -47.5 -171.5t-155.5 -57.5q-57 0 -98 20t-63 58q-42 -78 -158 -78q-147 0 -184 117q-60 -10 -106 -10q-92 0 -146.5 43t-54.5 119q0 61 36 113t101 89.5t154 54.5l-1 54l116 13v-346q0 -99 96 -99q100 0 98 103
l-7 378l116 15v-383q0 -61 21.5 -87t77.5 -26q53 0 75.5 27t21.5 76l-7 427l115 14v-463zM323 247l-1 133q-83 -9 -133.5 -35.5t-50.5 -59.5q0 -45 98 -45q44 0 87 7zM568 880l46 -12q-3 -16 -5 -30t-2 -22q0 -26 25 -26q11 0 18 7t8 20l4 43h45q-1 -15 -1.5 -26t-0.5 -19
q0 -25 24 -25q26 0 26 26q0 8 -2 22t-5 30l46 12q5 -16 8.5 -39.5t3.5 -38.5q0 -34 -19 -56t-50 -22q-42 0 -56 30q-14 -30 -56 -30q-31 0 -50 22t-19 56q0 15 4 38.5t8 39.5zM651 1082l58 11q3 -33 3 -60q0 -45 -10 -89l-47 -4q0 42 -1 75.5t-3 66.5z" />
    <glyph glyph-name="uniFE82" unicode="&#x622;" horiz-adv-x="319" arabic-form="final" 
d="M80 708l125 15v-472q0 -55 26 -79t88 -24l22 -10v-128l-22 -10q-113 0 -169 56.5t-58 171.5zM294 820q-17 -8 -40 -12.5t-46 -4.5q-20 0 -38.5 3.5t-34.5 8.5q-13 4 -26.5 7t-26.5 3q-28 0 -58 -17l-32 55q39 32 87 32q17 0 33.5 -3t31.5 -8q17 -5 31 -8t30 -3
q11 0 29 2.5t40 7.5z" />
    <glyph glyph-name="uniFE84" unicode="&#x623;" horiz-adv-x="319" arabic-form="final" 
d="M80 708l125 15v-472q0 -55 26 -79t88 -24l22 -10v-128l-22 -10q-113 0 -169 56.5t-58 171.5zM28 869l53 6q-21 28 -21 66q0 41 28.5 69t69.5 28q17 0 38.5 -5t39.5 -15l-15 -54q-33 11 -55 11q-20 0 -33.5 -12t-13.5 -30q0 -19 14.5 -32.5t35.5 -13.5q7 0 28 1.5t61 5.5
v-65q-48 -4 -103.5 -10t-126.5 -16v66z" />
    <glyph glyph-name="uniFE86" unicode="&#x624;" horiz-adv-x="539" arabic-form="final" 
d="M77 -242l-27 133q120 17 191 43t101 71h-89q-191 0 -191 183q0 71 26 128t70 90t96 33q58 0 103.5 -37.5t74 -103t34.5 -150.5h73l22 -10v-128l-22 -10h-85q-28 -106 -121 -164.5t-256 -77.5zM340 224.5q-18 38.5 -44.5 61.5t-57.5 23q-32 0 -56 -29t-24 -73
q0 -37 23.5 -52.5t79.5 -15.5h103q-6 47 -24 85.5zM139 605l53 6q-21 28 -21 66q0 41 28.5 69t69.5 28q17 0 38.5 -5t39.5 -15l-15 -54q-33 11 -55 11q-20 0 -33.5 -12t-13.5 -30q0 -19 14.5 -32.5t35.5 -13.5q7 0 28 1.5t61 5.5v-65q-48 -4 -103.5 -10t-126.5 -16v66z" />
    <glyph glyph-name="uniFE88" unicode="&#x625;" horiz-adv-x="319" arabic-form="final" 
d="M80 708l125 15v-472q0 -55 26 -79t88 -24l22 -10v-128l-22 -10q-113 0 -169 56.5t-58 171.5zM58 -261l54 7q-22 27 -22 65q0 42 28.5 70t69.5 28q17 0 38.5 -5t39.5 -15l-15 -55q-33 11 -55 11q-20 0 -33.5 -11.5t-13.5 -30.5t14.5 -32t35.5 -13q7 0 28 1.5t61 5.5v-65
q-48 -4 -103.5 -10t-126.5 -16v65z" />
    <glyph glyph-name="uniFE8A" unicode="&#x626;" horiz-adv-x="809" arabic-form="final" 
d="M50 63q0 43 10.5 100t32.5 136l104 -21q-17 -70 -24 -110.5t-7 -68.5q0 -84 57 -129t169 -45q93 0 155 25.5t73 61.5q-54 6 -110 16l22 144q74 -11 149.5 -17.5t127.5 -6.5l22 -10v-128l-22 -10h-12q-33 0 -70 2q-10 -65 -54 -115t-117.5 -78t-171.5 -28
q-159 0 -246.5 74.5t-87.5 207.5zM284 446l53 6q-21 28 -21 66q0 41 28.5 69t69.5 28q17 0 38.5 -5t39.5 -15l-15 -54q-33 11 -55 11q-20 0 -33.5 -12t-13.5 -30q0 -19 14.5 -32.5t35.5 -13.5q7 0 28 1.5t61 5.5v-65q-48 -4 -103.5 -10t-126.5 -16v66z" />
    <glyph glyph-name="uniFE8B" unicode="&#x626;" horiz-adv-x="305" arabic-form="initial" 
d="M-22 138l22 10q80 0 112 13t32 44q0 21 -5 62t-14 92t-21 100l116 44q10 -48 17.5 -105.5t12 -109.5t4.5 -84q0 -106 -61.5 -155t-192.5 -49l-22 10v128zM35 650l53 6q-21 28 -21 66q0 41 28.5 69t69.5 28q17 0 38.5 -5t39.5 -15l-15 -54q-33 11 -55 11q-20 0 -33.5 -12
t-13.5 -30q0 -19 14.5 -32.5t35.5 -13.5q7 0 28 1.5t61 5.5v-65q-48 -4 -103.5 -10t-126.5 -16v66z" />
    <glyph glyph-name="uniFE8C" unicode="&#x626;" horiz-adv-x="365" arabic-form="medial" 
d="M-22 138l22 10q55 0 81 9.5t37 29.5q5 9 8.5 21t5.5 27l14 128h104l-7 -83q-1 -12 -2 -28t-1 -25q0 -39 29 -59t96 -20l22 -10v-128l-22 -10h-18q-60 0 -104 15.5t-69 55.5q-23 -37 -64 -54t-110 -17l-22 10v128zM83 530l53 6q-21 28 -21 66q0 41 28.5 69t69.5 28
q17 0 38.5 -5t39.5 -15l-15 -54q-33 11 -55 11q-20 0 -33.5 -12t-13.5 -30q0 -19 14.5 -32.5t35.5 -13.5q7 0 28 1.5t61 5.5v-65q-48 -4 -103.5 -10t-126.5 -16v66z" />
    <glyph glyph-name="uniFE8E" unicode="&#x627;" horiz-adv-x="319" arabic-form="final" 
d="M80 708l125 15v-472q0 -55 26 -79t88 -24l22 -10v-128l-22 -10q-113 0 -169 56.5t-58 171.5z" />
    <glyph glyph-name="uniFE90" unicode="&#x628;" horiz-adv-x="960" arabic-form="final" 
d="M746 363h103l-8 -91q-1 -13 -1.5 -25t-0.5 -19q0 -40 29 -60t92 -20l22 -10v-128l-22 -10h-23q-130 0 -179 65q-78 -40 -160 -57.5t-184 -17.5q-129 0 -209.5 28.5t-117.5 89.5t-37 158q0 24 2.5 51t9.5 66.5t18 100.5l104 -15q-7 -47 -11 -77t-6 -49.5t-2 -35.5
q0 -64 24 -101t81 -52.5t154 -15.5q175 0 303 46q0 26 3 49zM420 -101l80 -80l-80 -79l-80 79z" />
    <glyph glyph-name="uniFE91" unicode="&#x628;" horiz-adv-x="305" arabic-form="initial" 
d="M-22 138l22 10q80 0 112 13t32 44q0 21 -5 62t-14 92t-21 100l116 44q10 -48 17.5 -105.5t12 -109.5t4.5 -84q0 -106 -61.5 -155t-192.5 -49l-22 10v128zM65 -91l80 -80l-80 -79l-80 79z" />
    <glyph glyph-name="uniFE92" unicode="&#x628;" horiz-adv-x="365" arabic-form="medial" 
d="M-22 138l22 10q55 0 81 9.5t37 29.5q5 9 8.5 21t5.5 27l14 128h104l-7 -83q-1 -12 -2 -28t-1 -25q0 -39 29 -59t96 -20l22 -10v-128l-22 -10h-18q-60 0 -104 15.5t-69 55.5q-23 -37 -64 -54t-110 -17l-22 10v128zM65 -91l80 -80l-80 -79l-80 79z" />
    <glyph glyph-name="uniFE94" unicode="&#x629;" horiz-adv-x="555" arabic-form="final" 
d="M555 0q-91 0 -144 25.5t-74 81.5q-60 -10 -106 -10q-92 0 -146.5 43t-54.5 119q0 61 36 113t101 89.5t153 54.5v54l116 13v-336q0 -55 26 -77t93 -22l22 -10v-128zM236 240q44 0 87 7l-1 133q-84 -9 -134 -35.5t-50 -59.5q0 -45 98 -45zM178 729l74 74l75 -74l-75 -75z
M337 729l75 74l74 -74l-74 -75z" />
    <glyph glyph-name="uniFE96" unicode="&#x62a;" horiz-adv-x="960" arabic-form="final" 
d="M746 363h103l-8 -91q-1 -13 -1.5 -25t-0.5 -19q0 -40 29 -60t92 -20l22 -10v-128l-22 -10h-23q-130 0 -179 65q-78 -40 -160 -57.5t-184 -17.5q-129 0 -209.5 28.5t-117.5 89.5t-37 158q0 24 2.5 51t9.5 66.5t18 100.5l104 -15q-7 -47 -11 -77t-6 -49.5t-2 -35.5
q0 -64 24 -101t81 -52.5t154 -15.5q175 0 303 46q0 26 3 49zM315 579l74 74l75 -74l-75 -75zM474 579l75 74l74 -74l-74 -75z" />
    <glyph glyph-name="uniFE97" unicode="&#x62a;" horiz-adv-x="305" arabic-form="initial" 
d="M-22 138l22 10q80 0 112 13t32 44q0 21 -5 62t-14 92t-21 100l116 44q10 -48 17.5 -105.5t12 -109.5t4.5 -84q0 -106 -61.5 -155t-192.5 -49l-22 10v128zM-4 649l74 74l75 -74l-75 -75zM155 649l75 74l74 -74l-74 -75z" />
    <glyph glyph-name="uniFE98" unicode="&#x62a;" horiz-adv-x="365" arabic-form="medial" 
d="M-22 138l22 10q55 0 81 9.5t37 29.5q5 9 8.5 21t5.5 27l14 128h104l-7 -83q-1 -12 -2 -28t-1 -25q0 -39 29 -59t96 -20l22 -10v-128l-22 -10h-18q-60 0 -104 15.5t-69 55.5q-23 -37 -64 -54t-110 -17l-22 10v128zM44 529l74 74l75 -74l-75 -75zM203 529l75 74l74 -74
l-74 -75z" />
    <glyph glyph-name="uniFE9A" unicode="&#x62b;" horiz-adv-x="960" arabic-form="final" 
d="M746 363h103l-8 -91q-1 -13 -1.5 -25t-0.5 -19q0 -40 29 -60t92 -20l22 -10v-128l-22 -10h-23q-130 0 -179 65q-78 -40 -160 -57.5t-184 -17.5q-129 0 -209.5 28.5t-117.5 89.5t-37 158q0 24 2.5 51t9.5 66.5t18 100.5l104 -15q-7 -47 -11 -77t-6 -49.5t-2 -35.5
q0 -64 24 -101t81 -52.5t154 -15.5q175 0 303 46q0 26 3 49zM469 627l-70 69l70 70l70 -70zM387 504l-69 70l69 69l70 -69zM551 504l-70 70l70 69l69 -69z" />
    <glyph glyph-name="uniFE9B" unicode="&#x62b;" horiz-adv-x="305" arabic-form="initial" 
d="M-22 138l22 10q80 0 112 13t32 44q0 21 -5 62t-14 92t-21 100l116 44q10 -48 17.5 -105.5t12 -109.5t4.5 -84q0 -106 -61.5 -155t-192.5 -49l-22 10v128zM150 697l-70 69l70 70l70 -70zM68 574l-69 70l69 69l70 -69zM232 574l-70 70l70 69l69 -69z" />
    <glyph glyph-name="uniFE9C" unicode="&#x62b;" horiz-adv-x="365" arabic-form="medial" 
d="M-22 138l22 10q55 0 81 9.5t37 29.5q5 9 8.5 21t5.5 27l14 128h104l-7 -83q-1 -12 -2 -28t-1 -25q0 -39 29 -59t96 -20l22 -10v-128l-22 -10h-18q-60 0 -104 15.5t-69 55.5q-23 -37 -64 -54t-110 -17l-22 10v128zM198 577l-70 69l70 70l70 -70zM116 454l-69 70l69 69
l70 -69zM280 454l-70 70l70 69l69 -69z" />
    <glyph glyph-name="uniFE9E" unicode="&#x62c;" horiz-adv-x="715" arabic-form="final" 
d="M223 242.5q75 54.5 178 84.5l-34 12q-44 17 -81.5 25t-62.5 8q-62 0 -99 -42l-74 74q31 51 72.5 75t96.5 24q33 0 74 -11.5t114 -44.5q53 -23 90 -37.5t67 -22.5t63 -13l-17 -123q-20 0 -40 -1q7 -55 39 -78.5t81 -23.5h25l22 -10v-128l-22 -10h-29q-90 0 -144 57.5
t-63 177.5q-63 -15 -119 -41.5t-98 -61.5t-66 -73.5t-24 -77.5q0 -66 65 -106.5t187 -40.5q35 0 78 4.5t86 11.5l15 -133q-49 -14 -99.5 -22.5t-97.5 -8.5q-102 0 -178.5 34.5t-118.5 97.5t-42 146q0 82 40.5 153t115.5 125.5zM296 2l80 80l80 -80l-80 -80z" />
    <glyph glyph-name="uniFE9F" unicode="&#x62c;" horiz-adv-x="650" arabic-form="initial" 
d="M-22 138l22 10q61 0 112 7.5t102.5 23.5t111.5 40q69 28 112 43q-42 15 -91 35q-43 17 -82.5 26t-65.5 9q-62 0 -99 -42l-73 74q30 52 72 75.5t97 23.5q34 0 79.5 -12.5t122.5 -44.5q53 -22 90.5 -36.5t68 -22.5t63.5 -13l-17 -124q-10 0 -31 -7.5t-60.5 -26.5
t-105.5 -54q-83 -44 -151.5 -71t-130 -39t-124.5 -12l-22 10v128zM245 -91l80 -80l-80 -79l-80 79z" />
    <glyph glyph-name="uniFEA0" unicode="&#x62c;" horiz-adv-x="689" arabic-form="medial" 
d="M-22 138l22 10q61 0 112 8t102.5 23.5t111.5 39.5q69 28 112 43q-40 14 -91 35q-43 17 -82.5 26t-65.5 9q-62 0 -99 -42l-73 74q30 52 72 75.5t97 23.5q34 0 79.5 -12.5t122.5 -44.5q53 -22 90.5 -36.5t68 -22.5t63.5 -13l-17 -120q-10 0 -24 -4.5t-38 -14.5
q16 -22 43.5 -34.5t61.5 -12.5h43l22 -10v-128l-22 -10h-16q-73 0 -129 40t-81 115q-12 -6 -25.5 -13.5t-29.5 -15.5q-89 -47 -157.5 -74.5t-128 -39.5t-122.5 -12l-22 10v128zM245 -91l80 -80l-80 -79l-80 79z" />
    <glyph glyph-name="uniFEA2" unicode="&#x62d;" horiz-adv-x="715" arabic-form="final" 
d="M223 242.5q75 54.5 178 84.5l-34 12q-44 17 -81.5 25t-62.5 8q-62 0 -99 -42l-74 74q31 51 72.5 75t96.5 24q33 0 74 -11.5t114 -44.5q53 -23 90 -37.5t67 -22.5t63 -13l-17 -123q-20 0 -40 -1q7 -55 39 -78.5t81 -23.5h25l22 -10v-128l-22 -10h-29q-90 0 -144 57.5
t-63 177.5q-63 -15 -119 -41.5t-98 -61.5t-66 -73.5t-24 -77.5q0 -66 65 -106.5t187 -40.5q35 0 78 4.5t86 11.5l15 -133q-49 -14 -99.5 -22.5t-97.5 -8.5q-102 0 -178.5 34.5t-118.5 97.5t-42 146q0 82 40.5 153t115.5 125.5z" />
    <glyph glyph-name="uniFEA3" unicode="&#x62d;" horiz-adv-x="650" arabic-form="initial" 
d="M-22 138l22 10q61 0 112 7.5t102.5 23.5t111.5 40q69 28 112 43q-42 15 -91 35q-43 17 -82.5 26t-65.5 9q-62 0 -99 -42l-73 74q30 52 72 75.5t97 23.5q34 0 79.5 -12.5t122.5 -44.5q53 -22 90.5 -36.5t68 -22.5t63.5 -13l-17 -124q-10 0 -31 -7.5t-60.5 -26.5
t-105.5 -54q-83 -44 -151.5 -71t-130 -39t-124.5 -12l-22 10v128z" />
    <glyph glyph-name="uniFEA4" unicode="&#x62d;" horiz-adv-x="689" arabic-form="medial" 
d="M-22 138l22 10q61 0 112 8t102.5 23.5t111.5 39.5q69 28 112 43q-40 14 -91 35q-43 17 -82.5 26t-65.5 9q-62 0 -99 -42l-73 74q30 52 72 75.5t97 23.5q34 0 79.5 -12.5t122.5 -44.5q53 -22 90.5 -36.5t68 -22.5t63.5 -13l-17 -120q-10 0 -24 -4.5t-38 -14.5
q16 -22 43.5 -34.5t61.5 -12.5h43l22 -10v-128l-22 -10h-16q-73 0 -129 40t-81 115q-12 -6 -25.5 -13.5t-29.5 -15.5q-89 -47 -157.5 -74.5t-128 -39.5t-122.5 -12l-22 10v128z" />
    <glyph glyph-name="uniFEA6" unicode="&#x62e;" horiz-adv-x="715" arabic-form="final" 
d="M223 242.5q75 54.5 178 84.5l-34 12q-44 17 -81.5 25t-62.5 8q-62 0 -99 -42l-74 74q31 51 72.5 75t96.5 24q33 0 74 -11.5t114 -44.5q53 -23 90 -37.5t67 -22.5t63 -13l-17 -123q-20 0 -40 -1q7 -55 39 -78.5t81 -23.5h25l22 -10v-128l-22 -10h-29q-90 0 -144 57.5
t-63 177.5q-63 -15 -119 -41.5t-98 -61.5t-66 -73.5t-24 -77.5q0 -66 65 -106.5t187 -40.5q35 0 78 4.5t86 11.5l15 -133q-49 -14 -99.5 -22.5t-97.5 -8.5q-102 0 -178.5 34.5t-118.5 97.5t-42 146q0 82 40.5 153t115.5 125.5zM292 651l77 77l77 -77l-77 -77z" />
    <glyph glyph-name="uniFEA7" unicode="&#x62e;" horiz-adv-x="650" arabic-form="initial" 
d="M-22 138l22 10q61 0 112 7.5t102.5 23.5t111.5 40q69 28 112 43q-42 15 -91 35q-43 17 -82.5 26t-65.5 9q-62 0 -99 -42l-73 74q30 52 72 75.5t97 23.5q34 0 79.5 -12.5t122.5 -44.5q53 -22 90.5 -36.5t68 -22.5t63.5 -13l-17 -124q-10 0 -31 -7.5t-60.5 -26.5
t-105.5 -54q-83 -44 -151.5 -71t-130 -39t-124.5 -12l-22 10v128zM153 626l77 77l77 -77l-77 -77z" />
    <glyph glyph-name="uniFEA8" unicode="&#x62e;" horiz-adv-x="689" arabic-form="medial" 
d="M-22 138l22 10q61 0 112 8t102.5 23.5t111.5 39.5q69 28 112 43q-40 14 -91 35q-43 17 -82.5 26t-65.5 9q-62 0 -99 -42l-73 74q30 52 72 75.5t97 23.5q34 0 79.5 -12.5t122.5 -44.5q53 -22 90.5 -36.5t68 -22.5t63.5 -13l-17 -120q-10 0 -24 -4.5t-38 -14.5
q16 -22 43.5 -34.5t61.5 -12.5h43l22 -10v-128l-22 -10h-16q-73 0 -129 40t-81 115q-12 -6 -25.5 -13.5t-29.5 -15.5q-89 -47 -157.5 -74.5t-128 -39.5t-122.5 -12l-22 10v128zM153 626l77 77l77 -77l-77 -77z" />
    <glyph glyph-name="uniFEAA" unicode="&#x62f;" horiz-adv-x="619" arabic-form="final" 
d="M311 542l111 31l83 -322q11 -41 24.5 -63.5t34.5 -31t55 -8.5l22 -10v-128l-22 -10q-112 0 -164 69q-32 -40 -77.5 -59.5t-112.5 -19.5q-110 0 -162.5 47.5t-52.5 138.5v108h107v-56q0 -42 30 -66t97 -24q44 0 75 11t50 31z" />
    <glyph glyph-name="uniFEAC" unicode="&#x630;" horiz-adv-x="619" arabic-form="final" 
d="M311 542l111 31l83 -322q11 -41 24.5 -63.5t34.5 -31t55 -8.5l22 -10v-128l-22 -10q-112 0 -164 69q-32 -40 -77.5 -59.5t-112.5 -19.5q-110 0 -162.5 47.5t-52.5 138.5v108h107v-56q0 -42 30 -66t97 -24q44 0 75 11t50 31zM280 731l77 77l77 -77l-77 -77z" />
    <glyph glyph-name="uniFEAE" unicode="&#x631;" horiz-adv-x="474" arabic-form="final" 
d="M17 -244l-27 133q132 23 193.5 69.5t61.5 129.5q0 35 -10.5 92t-32.5 131l112 32l30 -105q10 -35 24 -55t38.5 -27.5t67.5 -7.5l22 -10v-128l-22 -10q-77 0 -123 40q-14 -126 -96.5 -195t-237.5 -89z" />
    <glyph glyph-name="uniFEB0" unicode="&#x632;" horiz-adv-x="474" arabic-form="final" 
d="M17 -244l-27 133q132 23 193.5 69.5t61.5 129.5q0 35 -10.5 92t-32.5 131l112 32l30 -105q10 -35 24 -55t38.5 -27.5t67.5 -7.5l22 -10v-128l-22 -10q-77 0 -123 40q-14 -126 -96.5 -195t-237.5 -89zM168 511l77 77l77 -77l-77 -77z" />
    <glyph glyph-name="uniFEB2" unicode="&#x633;" horiz-adv-x="1235" arabic-form="final" 
d="M329 -52q50 0 89.5 15.5t62 42.5t22.5 61q0 23 -11.5 88.5t-36.5 174.5l116 44q11 -54 20 -107t14 -98q10 -14 26 -22t40 -8q38 0 62 23t28 60l14 112h104l-7 -81q-1 -8 -1.5 -17t-0.5 -17q0 -36 17 -59t58 -23q35 0 53.5 18t18.5 43q0 8 -0.5 19.5t-2.5 19.5l-12 124
l101 28l19 -153q5 -48 28.5 -68t84.5 -20l22 -10v-128l-22 -10q-131 0 -172 65q-15 -34 -45.5 -54.5t-73.5 -20.5q-44 0 -76.5 20.5t-52.5 57.5q-19 -35 -57 -56t-84 -21q-35 0 -65 16q-12 -60 -49 -106.5t-96.5 -73.5t-138.5 -27q-129 0 -202 73t-73 205q0 47 10 102
t33 134l104 -22q-17 -70 -24 -109.5t-7 -69.5q0 -165 163 -165z" />
    <glyph glyph-name="uniFEB3" unicode="&#x633;" horiz-adv-x="805" arabic-form="initial" 
d="M134 374h104l-15 -122q-1 -8 -1.5 -18t-0.5 -19q0 -34 21.5 -55t58.5 -21q39 0 63 23t28 60l13 112h104l-7 -76q-1 -9 -1.5 -21.5t-0.5 -21.5q0 -36 17 -56.5t58 -20.5q36 0 54.5 16t18.5 42q0 20 -10 67.5t-30 123.5l107 42q11 -47 20 -97t14 -93.5t5 -71.5
q0 -51 -21 -91t-58.5 -63t-87.5 -23q-47 0 -83.5 20t-57.5 57q-20 -35 -58 -55t-88 -20q-46 0 -81 19t-56 58q-44 -69 -163 -69l-22 10v128l22 10q57 0 83 16t31 58z" />
    <glyph glyph-name="uniFEB4" unicode="&#x633;" horiz-adv-x="875" arabic-form="medial" 
d="M756 236q5 -48 29 -68t90 -20l22 -10v-128l-22 -10q-137 0 -178 65q-16 -36 -47 -55.5t-73 -19.5q-85 0 -126 77q-19 -35 -57.5 -55t-87.5 -20q-95 0 -138 76q-23 -35 -63.5 -51.5t-104.5 -16.5l-22 10v128l22 10q62 0 88.5 16t31.5 58l19 152h104l-13 -112
q-1 -9 -2.5 -23.5t-1.5 -26.5q0 -33 22 -53t59 -20q39 0 62.5 21.5t27.5 61.5l13 112h104l-6 -76q-1 -9 -2 -21t-1 -21q0 -37 16.5 -57.5t58.5 -20.5q35 0 53 17.5t18 45.5q0 20 -3 36l-12 124l102 28z" />
    <glyph glyph-name="uniFEB6" unicode="&#x634;" horiz-adv-x="1235" arabic-form="final" 
d="M329 -52q50 0 89.5 15.5t62 42.5t22.5 61q0 23 -11.5 88.5t-36.5 174.5l116 44q11 -54 20 -107t14 -98q10 -14 26 -22t40 -8q38 0 62 23t28 60l14 112h104l-7 -81q-1 -8 -1.5 -17t-0.5 -17q0 -36 17 -59t58 -23q35 0 53.5 18t18.5 43q0 8 -0.5 19.5t-2.5 19.5l-12 124
l101 28l19 -153q5 -48 28.5 -68t84.5 -20l22 -10v-128l-22 -10q-131 0 -172 65q-15 -34 -45.5 -54.5t-73.5 -20.5q-44 0 -76.5 20.5t-52.5 57.5q-19 -35 -57 -56t-84 -21q-35 0 -65 16q-12 -60 -49 -106.5t-96.5 -73.5t-138.5 -27q-129 0 -202 73t-73 205q0 47 10 102
t33 134l104 -22q-17 -70 -24 -109.5t-7 -69.5q0 -165 163 -165zM813 572l-70 69l70 70l70 -70zM731 449l-69 70l69 69l70 -69zM895 449l-70 70l70 69l69 -69z" />
    <glyph glyph-name="uniFEB7" unicode="&#x634;" horiz-adv-x="805" arabic-form="initial" 
d="M134 374h104l-15 -122q-1 -8 -1.5 -18t-0.5 -19q0 -34 21.5 -55t58.5 -21q39 0 63 23t28 60l13 112h104l-7 -76q-1 -9 -1.5 -21.5t-0.5 -21.5q0 -36 17 -56.5t58 -20.5q36 0 54.5 16t18.5 42q0 20 -10 67.5t-30 123.5l107 42q11 -47 20 -97t14 -93.5t5 -71.5
q0 -51 -21 -91t-58.5 -63t-87.5 -23q-47 0 -83.5 20t-57.5 57q-20 -35 -58 -55t-88 -20q-46 0 -81 19t-56 58q-44 -69 -163 -69l-22 10v128l22 10q57 0 83 16t31 58zM449 572l-70 69l70 70l70 -70zM367 449l-69 70l69 69l70 -69zM531 449l-70 70l70 69l69 -69z" />
    <glyph glyph-name="uniFEB8" unicode="&#x634;" horiz-adv-x="875" arabic-form="medial" 
d="M756 236q5 -48 29 -68t90 -20l22 -10v-128l-22 -10q-137 0 -178 65q-16 -36 -47 -55.5t-73 -19.5q-85 0 -126 77q-19 -35 -57.5 -55t-87.5 -20q-95 0 -138 76q-23 -35 -63.5 -51.5t-104.5 -16.5l-22 10v128l22 10q62 0 88.5 16t31.5 58l19 152h104l-13 -112
q-1 -9 -2.5 -23.5t-1.5 -26.5q0 -33 22 -53t59 -20q39 0 62.5 21.5t27.5 61.5l13 112h104l-6 -76q-1 -9 -2 -21t-1 -21q0 -37 16.5 -57.5t58.5 -20.5q35 0 53 17.5t18 45.5q0 20 -3 36l-12 124l102 28zM454 572l-70 69l70 70l70 -70zM372 449l-69 70l69 69l70 -69zM536 449
l-70 70l70 69l69 -69z" />
    <glyph glyph-name="uniFEBA" unicode="&#x635;" horiz-adv-x="1224" arabic-form="final" 
d="M329 -52q50 0 89.5 15.5t62 42.5t22.5 61q0 23 -11.5 88.5t-36.5 174.5l116 44q11 -54 20 -107t14 -97q41 83 97 147t120 100t130 36q62 0 111.5 -30.5t78.5 -82t29 -114.5q0 -42 -13 -78h66l22 -10v-128l-22 -10q-48 0 -90.5 6.5t-84.5 25.5q-33 -15 -76 -23.5t-96 -8.5
h-151q-72 0 -116 12q-11 -61 -48 -109t-97 -75.5t-140 -27.5q-129 0 -202 73t-73 205q0 47 10 102t33 134l104 -22q-17 -70 -24 -109.5t-7 -69.5q0 -165 163 -165zM1064 226q0 38 -35 67t-88 29q-64 0 -129 -46t-123 -128h15h169q109 0 150 19.5t41 58.5z" />
    <glyph glyph-name="uniFEBB" unicode="&#x635;" horiz-adv-x="865" arabic-form="initial" 
d="M0 0l-22 10v128l22 10q54 0 80.5 11t36.5 36q7 17 10 40l15 138h104l-8 -93q-1 -13 -2 -28.5t-1 -24.5q0 -33 21 -51q42 83 99 145.5t120.5 97t125.5 34.5q60 0 108.5 -28t76.5 -77.5t28 -116.5q0 -105 -75.5 -168t-218.5 -63h-141q-83 0 -132 16t-71 52
q-40 -68 -176 -68zM596 322q-64 0 -129.5 -45t-124.5 -128q15 -1 31 -1h144q101 0 145.5 20t44.5 63q0 40 -31.5 65.5t-79.5 25.5z" />
    <glyph glyph-name="uniFEBC" unicode="&#x635;" horiz-adv-x="867" arabic-form="medial" 
d="M0 0l-22 10v128l22 10q52 0 79.5 11t37.5 36q7 17 10 40l15 138h104l-8 -93q-1 -13 -2 -28.5t-1 -24.5q0 -33 21 -51q42 83 99 145.5t120.5 97t125.5 34.5q60 0 108.5 -28t76.5 -77.5t28 -116.5q0 -45 -14 -83h67l22 -10v-128l-22 -10q-46 0 -90.5 6.5t-86.5 26.5
q-70 -33 -170 -33h-141q-83 0 -132 16t-71 52q-40 -68 -176 -68zM707 231q0 40 -31.5 65.5t-79.5 25.5q-64 0 -129.5 -45t-124.5 -128q15 -1 31 -1h144q101 0 145.5 20t44.5 63z" />
    <glyph glyph-name="uniFEBE" unicode="&#x636;" horiz-adv-x="1224" arabic-form="final" 
d="M329 -52q50 0 89.5 15.5t62 42.5t22.5 61q0 23 -11.5 88.5t-36.5 174.5l116 44q11 -54 20 -107t14 -97q41 83 97 147t120 100t130 36q62 0 111.5 -30.5t78.5 -82t29 -114.5q0 -42 -13 -78h66l22 -10v-128l-22 -10q-48 0 -90.5 6.5t-84.5 25.5q-33 -15 -76 -23.5t-96 -8.5
h-151q-72 0 -116 12q-11 -61 -48 -109t-97 -75.5t-140 -27.5q-129 0 -202 73t-73 205q0 47 10 102t33 134l104 -22q-17 -70 -24 -109.5t-7 -69.5q0 -165 163 -165zM1064 226q0 38 -35 67t-88 29q-64 0 -129 -46t-123 -128h15h169q109 0 150 19.5t41 58.5zM723 621l77 77
l77 -77l-77 -77z" />
    <glyph glyph-name="uniFEBF" unicode="&#x636;" horiz-adv-x="865" arabic-form="initial" 
d="M0 0l-22 10v128l22 10q54 0 80.5 11t36.5 36q7 17 10 40l15 138h104l-8 -93q-1 -13 -2 -28.5t-1 -24.5q0 -33 21 -51q42 83 99 145.5t120.5 97t125.5 34.5q60 0 108.5 -28t76.5 -77.5t28 -116.5q0 -105 -75.5 -168t-218.5 -63h-141q-83 0 -132 16t-71 52
q-40 -68 -176 -68zM596 322q-64 0 -129.5 -45t-124.5 -128q15 -1 31 -1h144q101 0 145.5 20t44.5 63q0 40 -31.5 65.5t-79.5 25.5zM366 621l77 77l77 -77l-77 -77z" />
    <glyph glyph-name="uniFEC0" unicode="&#x636;" horiz-adv-x="867" arabic-form="medial" 
d="M0 0l-22 10v128l22 10q52 0 79.5 11t37.5 36q7 17 10 40l15 138h104l-8 -93q-1 -13 -2 -28.5t-1 -24.5q0 -33 21 -51q42 83 99 145.5t120.5 97t125.5 34.5q60 0 108.5 -28t76.5 -77.5t28 -116.5q0 -45 -14 -83h67l22 -10v-128l-22 -10q-46 0 -90.5 6.5t-86.5 26.5
q-70 -33 -170 -33h-141q-83 0 -132 16t-71 52q-40 -68 -176 -68zM707 231q0 40 -31.5 65.5t-79.5 25.5q-64 0 -129.5 -45t-124.5 -128q15 -1 31 -1h144q101 0 145.5 20t44.5 63zM366 621l77 77l77 -77l-77 -77z" />
    <glyph glyph-name="uniFEC2" unicode="&#x637;" horiz-adv-x="772" arabic-form="final" 
d="M203 708l114 15l-2 -361q47 38 96 59.5t97 21.5q61 0 109 -28t76.5 -78t28.5 -116q0 -39 -12 -73h62l22 -10v-128l-22 -10q-47 0 -88 7.5t-89 22.5q-87 -40 -222 -40q-55 0 -119 6.5t-123.5 16.5t-100.5 22l29 143q25 -6 50 -11l50 -10q25 49 55 93zM254 144
q65 -6 132 -6q105 0 167 17.5t62 65.5q0 37 -31 64t-81 27q-61 0 -126 -43.5t-123 -124.5z" />
    <glyph glyph-name="uniFEC3" unicode="&#x637;" horiz-adv-x="675" arabic-form="initial" 
d="M105 708l114 15l-2 -352q47 39 96.5 60.5t97.5 21.5q60 0 108.5 -28t76.5 -77.5t28 -116.5q0 -112 -85.5 -171.5t-249.5 -59.5h-289l-22 10v128l22 10h53q27 60 63 111zM406 322q-64 0 -130 -45.5t-124 -128.5h174q101 0 146 20t45 63q0 40 -31.5 65.5t-79.5 25.5z" />
    <glyph glyph-name="uniFEC4" unicode="&#x637;" horiz-adv-x="675" arabic-form="medial" 
d="M105 708l115 15l-2 -351q47 39 96 60t97 21q61 0 109 -28t76.5 -77.5t28.5 -116.5q0 -46 -15 -83h65l22 -10v-128l-22 -10q-44 0 -90 7t-89 29q-81 -36 -206 -36h-290l-22 10v128l22 10h53q28 60 64 112zM406 322q-63 0 -129 -45.5t-125 -128.5h175q101 0 146 20t45 63
q0 40 -31.5 65.5t-80.5 25.5z" />
    <glyph glyph-name="uniFEC6" unicode="&#x638;" horiz-adv-x="772" arabic-form="final" 
d="M203 708l114 15l-2 -361q47 38 96 59.5t97 21.5q61 0 109 -28t76.5 -78t28.5 -116q0 -39 -12 -73h62l22 -10v-128l-22 -10q-47 0 -88 7.5t-89 22.5q-87 -40 -222 -40q-55 0 -119 6.5t-123.5 16.5t-100.5 22l29 143q25 -6 50 -11l50 -10q25 49 55 93zM254 144
q65 -6 132 -6q105 0 167 17.5t62 65.5q0 37 -31 64t-81 27q-61 0 -126 -43.5t-123 -124.5zM441 611l77 77l77 -77l-77 -77z" />
    <glyph glyph-name="uniFEC7" unicode="&#x638;" horiz-adv-x="675" arabic-form="initial" 
d="M105 708l114 15l-2 -352q47 39 96.5 60.5t97.5 21.5q60 0 108.5 -28t76.5 -77.5t28 -116.5q0 -112 -85.5 -171.5t-249.5 -59.5h-289l-22 10v128l22 10h53q27 60 63 111zM406 322q-64 0 -130 -45.5t-124 -128.5h174q101 0 146 20t45 63q0 40 -31.5 65.5t-79.5 25.5z
M343 621l77 77l77 -77l-77 -77z" />
    <glyph glyph-name="uniFEC8" unicode="&#x638;" horiz-adv-x="675" arabic-form="medial" 
d="M105 708l115 15l-2 -351q47 39 96 60t97 21q61 0 109 -28t76.5 -77.5t28.5 -116.5q0 -46 -15 -83h65l22 -10v-128l-22 -10q-44 0 -90 7t-89 29q-81 -36 -206 -36h-290l-22 10v128l22 10h53q28 60 64 112zM406 322q-63 0 -129 -45.5t-125 -128.5h175q101 0 146 20t45 63
q0 40 -31.5 65.5t-80.5 25.5zM344 621l77 77l77 -77l-77 -77z" />
    <glyph glyph-name="uniFECA" unicode="&#x639;" horiz-adv-x="639" arabic-form="final" 
d="M367 -313q-151 0 -234 61t-83 169q0 46 17.5 84.5t57 76t105.5 79.5q-38 33 -77.5 74.5t-82.5 91.5l26 124q58 27 118.5 41.5t113.5 14.5q61 0 122.5 -18.5t110.5 -52.5v-127q-24 -34 -57 -65t-76 -62q46 -16 97.5 -23t113.5 -7l22 -10v-128l-22 -10q-98 0 -176.5 22.5
t-153.5 73.5q-85 -59 -119.5 -96.5t-34.5 -71.5q0 -94 231 -94q33 0 68.5 3.5t69.5 8.5l17 -137q-95 -22 -174 -22zM417 286q37 32 68 69q-74 27 -158 27q-75 0 -144 -24q41 -44 78.5 -77.5t74.5 -56.5q44 30 81 62z" />
    <glyph glyph-name="uniFECB" unicode="&#x639;" horiz-adv-x="550" arabic-form="initial" 
d="M496 78q-121 -38 -246 -58t-250 -20l-22 10v128l22 10q61 0 113 2q-22 33 -30.5 62t-8.5 59q0 64 30.5 114.5t81.5 80.5t114 30q47 0 89 -20t88 -62l-59 -84q-60 43 -116 43q-33 0 -61 -13t-45 -34.5t-17 -48.5q0 -24 18.5 -49.5t69.5 -64.5q56 8 115 19t127 26z" />
    <glyph glyph-name="uniFECC" unicode="&#x639;" horiz-adv-x="599" arabic-form="medial" 
d="M0 0l-22 10v128l22 10q104 0 183 16q-32 29 -65 63.5t-68 75.5l26 124q59 27 120 41.5t113 14.5q60 0 121.5 -18.5t111.5 -52.5v-127q-26 -34 -53 -64.5t-55 -56.5q36 -8 76.5 -12t88.5 -4l22 -10v-128l-22 -10q-87 0 -157.5 17.5t-134.5 54.5q-66 -36 -141.5 -54
t-165.5 -18zM240.5 263.5q37.5 -31.5 76.5 -54.5q43 23 80 54t69 72q-35 13 -76 20t-82 7q-77 0 -145 -24q40 -43 77.5 -74.5z" />
    <glyph glyph-name="uniFECE" unicode="&#x63a;" horiz-adv-x="639" arabic-form="final" 
d="M367 -313q-151 0 -234 61t-83 169q0 46 17.5 84.5t57 76t105.5 79.5q-38 33 -77.5 74.5t-82.5 91.5l26 124q58 27 118.5 41.5t113.5 14.5q61 0 122.5 -18.5t110.5 -52.5v-127q-24 -34 -57 -65t-76 -62q46 -16 97.5 -23t113.5 -7l22 -10v-128l-22 -10q-98 0 -176.5 22.5
t-153.5 73.5q-85 -59 -119.5 -96.5t-34.5 -71.5q0 -94 231 -94q33 0 68.5 3.5t69.5 8.5l17 -137q-95 -22 -174 -22zM417 286q37 32 68 69q-74 27 -158 27q-75 0 -144 -24q41 -44 78.5 -77.5t74.5 -56.5q44 30 81 62zM251 671l77 77l77 -77l-77 -77z" />
    <glyph glyph-name="uniFECF" unicode="&#x63a;" horiz-adv-x="550" arabic-form="initial" 
d="M496 78q-121 -38 -246 -58t-250 -20l-22 10v128l22 10q61 0 113 2q-22 33 -30.5 62t-8.5 59q0 64 30.5 114.5t81.5 80.5t114 30q47 0 89 -20t88 -62l-59 -84q-60 43 -116 43q-33 0 -61 -13t-45 -34.5t-17 -48.5q0 -24 18.5 -49.5t69.5 -64.5q56 8 115 19t127 26zM208 663
l77 77l77 -77l-77 -77z" />
    <glyph glyph-name="uniFED0" unicode="&#x63a;" horiz-adv-x="599" arabic-form="medial" 
d="M0 0l-22 10v128l22 10q104 0 183 16q-32 29 -65 63.5t-68 75.5l26 124q59 27 120 41.5t113 14.5q60 0 121.5 -18.5t111.5 -52.5v-127q-26 -34 -53 -64.5t-55 -56.5q36 -8 76.5 -12t88.5 -4l22 -10v-128l-22 -10q-87 0 -157.5 17.5t-134.5 54.5q-66 -36 -141.5 -54
t-165.5 -18zM240.5 263.5q37.5 -31.5 76.5 -54.5q43 23 80 54t69 72q-35 13 -76 20t-82 7q-77 0 -145 -24q40 -43 77.5 -74.5zM232 651l77 77l77 -77l-77 -77z" />
    <glyph glyph-name="uniFED2" unicode="&#x641;" horiz-adv-x="1010" arabic-form="final" 
d="M445 -10q-205 0 -300 67t-95 207q0 25 2.5 53t9.5 69t18 103l104 -15q-11 -73 -15 -108.5t-4 -58.5q0 -62 25.5 -99t89.5 -53.5t179 -16.5q86 0 152 6q-44 61 -44 138q0 44 15.5 85.5t42.5 74.5t61.5 52t71.5 19t70.5 -18.5t60 -50t42 -71.5t15.5 -83q0 -76 -46 -138
q49 -4 110 -4l22 -7v-134l-22 -7q-77 0 -142 11t-117 32q-60 -25 -137 -39t-169 -14zM851 276q0 29 -14 54.5t-35.5 41.5t-45.5 16q-23 0 -45 -15.5t-36 -40.5t-14 -53q0 -71 102 -104q46 18 67 43.5t21 57.5zM681 661l77 77l77 -77l-77 -77z" />
    <glyph glyph-name="uniFED3" unicode="&#x641;" horiz-adv-x="499" arabic-form="initial" 
d="M0 0l-22 10v128l22 10h128q75 0 121 8t70 27.5t31 54.5q-30 -8 -57 -12t-55 -4q-191 0 -191 174q0 68 26 124t70 89.5t98 33.5q61 0 107.5 -44t73.5 -122t27 -181q0 -105 -34 -170t-107 -95.5t-191 -30.5h-117zM232 517q-35 0 -60.5 -30.5t-25.5 -74.5q0 -37 24 -52
t85 -15q23 0 46 2t48 7q-12 72 -43.5 117.5t-73.5 45.5zM164 791l77 77l77 -77l-77 -77z" />
    <glyph glyph-name="uniFED4" unicode="&#x641;" horiz-adv-x="500" arabic-form="medial" 
d="M0 0l-22 7v134l22 7q55 0 102 3q-40 58 -40 131q0 44 15.5 85.5t42.5 74.5t61.5 52t71.5 19t70.5 -18.5t60 -50t42 -71.5t15.5 -83q0 -76 -48 -138q48 -4 107 -4l22 -7v-134l-22 -7q-75 0 -139.5 11.5t-116.5 32.5q-51 -21 -112.5 -32.5t-131.5 -11.5zM251 388
q-23 0 -45 -15.5t-36 -40.5t-14 -53q0 -70 95 -102q95 32 95 99q0 28 -14 53.5t-35.5 42t-45.5 16.5zM176 661l77 77l77 -77l-77 -77z" />
    <glyph glyph-name="uniFED6" unicode="&#x642;" horiz-adv-x="775" arabic-form="final" 
d="M364 -245q-162 0 -238 80t-76 216q0 47 10 102t33 134l104 -22q-17 -70 -24 -108.5t-7 -70.5q0 -88 50.5 -137.5t165.5 -49.5q90 0 145.5 29t73.5 82h-104q-98 0 -146 45.5t-48 132.5q0 68 26 124.5t70 90t98 33.5t97.5 -35.5t71.5 -100t36 -152.5h73l22 -10v-128
l-22 -10h-76q-39 -245 -335 -245zM402 205q0 -37 24 -52t85 -15h94q-11 78 -42.5 124.5t-74.5 46.5q-35 0 -60.5 -30t-25.5 -74zM343 581l74 74l75 -74l-75 -75zM502 581l75 74l74 -74l-74 -75z" />
    <glyph glyph-name="uniFED7" unicode="&#x642;" horiz-adv-x="499" arabic-form="initial" 
d="M0 0l-22 10v128l22 10h128q75 0 121 8t70 27.5t31 54.5q-30 -8 -57 -12t-55 -4q-191 0 -191 174q0 68 26 124t70 89.5t98 33.5q61 0 107.5 -44t73.5 -122t27 -181q0 -105 -34 -170t-107 -95.5t-191 -30.5h-117zM232 517q-35 0 -60.5 -30.5t-25.5 -74.5q0 -37 24 -52
t85 -15q23 0 46 2t48 7q-12 72 -43.5 117.5t-73.5 45.5zM87 789l74 74l75 -74l-75 -75zM246 789l75 74l74 -74l-74 -75z" />
    <glyph glyph-name="uniFED8" unicode="&#x642;" horiz-adv-x="500" arabic-form="medial" 
d="M0 0l-22 7v134l22 7q55 0 102 3q-40 58 -40 131q0 44 15.5 85.5t42.5 74.5t61.5 52t71.5 19t70.5 -18.5t60 -50t42 -71.5t15.5 -83q0 -76 -48 -138q48 -4 107 -4l22 -7v-134l-22 -7q-75 0 -139.5 11.5t-116.5 32.5q-51 -21 -112.5 -32.5t-131.5 -11.5zM251 388
q-23 0 -45 -15.5t-36 -40.5t-14 -53q0 -70 95 -102q95 32 95 99q0 28 -14 53.5t-35.5 42t-45.5 16.5zM99 659l74 74l75 -74l-75 -75zM258 659l75 74l74 -74l-74 -75z" />
    <glyph glyph-name="uniFEDA" unicode="&#x643;" horiz-adv-x="855" arabic-form="final" 
d="M608 708l116 15l-1 -452q0 -47 11 -74t39.5 -38t81.5 -11l22 -10v-128l-22 -10h-16q-68 0 -111.5 17t-67.5 54q-59 -81 -267 -81q-124 0 -199.5 27.5t-109.5 88t-34 160.5q0 25 2.5 52t9.5 66.5t18 99.5l104 -15q-7 -49 -11.5 -79.5t-6 -48.5t-1.5 -33q0 -65 21 -102
t72.5 -52.5t140.5 -15.5q114 0 162.5 24t48.5 85zM447 431q32 -9 44.5 -23t12.5 -36q0 -47 -39.5 -78t-98.5 -31q-23 0 -45 6t-47 18l21 63q37 -16 78 -16q55 0 76 28l-89 24q-28 8 -38.5 22t-10.5 34q0 34 23.5 63t62 46.5t83.5 17.5l-10 -70q-29 0 -58 -13.5t-43 -33.5z
" />
    <glyph glyph-name="uniFEDB" unicode="&#x643;" horiz-adv-x="485" arabic-form="initial" 
d="M39 470l28 117l407 135l-12 -128l-284 -95l90 -120q41 -55 60 -99t19 -91q0 -89 -63 -139t-182 -50h-102l-22 10v128l22 10h78q77 0 107.5 11.5t30.5 40.5q0 17 -11 40t-46 70z" />
    <glyph glyph-name="uniFEDC" unicode="&#x643;" horiz-adv-x="519" arabic-form="medial" 
d="M38 466l29 121l407 135l-12 -128l-291 -97l169 -243q28 -39 53.5 -62t55.5 -33.5t70 -10.5l22 -10v-128l-22 -10q-73 0 -122.5 22.5t-86.5 61.5q-32 -45 -83.5 -64.5t-132.5 -19.5h-94l-22 10v128l22 10h78q114 0 159 30z" />
    <glyph glyph-name="uniFEDE" unicode="&#x644;" horiz-adv-x="734" arabic-form="final" 
d="M498 708l116 15v-498q6 -41 33.5 -59t86.5 -18l22 -10v-128l-22 -10h-19q-64 0 -102 39q-5 -68 -42.5 -120t-100 -80.5t-145.5 -28.5q-127 0 -201 72.5t-74 205.5q0 46 10 101.5t33 134.5l104 -22q-18 -70 -24.5 -108.5t-6.5 -70.5q0 -165 164 -165q82 0 131 36.5
t48 97.5z" />
    <glyph glyph-name="uniFEDF" unicode="&#x644;" horiz-adv-x="319" arabic-form="initial" 
d="M229 229q0 -229 -229 -229l-22 10v128l22 10q123 0 122 103l-9 457l116 15v-494z" />
    <glyph glyph-name="uniFEE0" unicode="&#x644;" horiz-adv-x="365" arabic-form="medial" 
d="M117 708l116 15v-454q0 -64 27 -92.5t105 -28.5l22 -10v-128l-22 -10h-24q-56 0 -100 15.5t-69 55.5q-22 -37 -63 -54t-109 -17l-22 10v128l22 10q66 0 96.5 25.5t29.5 77.5z" />
    <glyph glyph-name="uniFEE2" unicode="&#x645;" horiz-adv-x="685" arabic-form="final" 
d="M50 -306v345q0 51 23 87t63 50q11 81 44.5 143.5t80 98t99.5 35.5q51 0 93.5 -30t70.5 -84t34 -125q8 -31 39.5 -48.5t87.5 -17.5l22 -10v-128l-22 -10q-108 0 -157 50q-40 -60 -121 -60q-31 0 -61.5 7t-62.5 20q-31 12 -48 17.5t-32 5.5q-17 0 -25 -12t-8 -32l2 -294z
M401 133q60 0 60 52q0 36 -13.5 66.5t-36.5 49.5t-51 19q-36 0 -71.5 -39t-55.5 -106q24 -6 57 -19q29 -10 56.5 -16.5t54.5 -6.5z" />
    <glyph glyph-name="uniFEE3" unicode="&#x645;" horiz-adv-x="613" arabic-form="initial" 
d="M395 -10q-62 0 -118 28t-97 77q-68 -95 -180 -95l-22 10v128l22 10q46 0 79 23t60 74l38 65q38 70 84 106.5t99 36.5q56 0 101.5 -36.5t73 -98.5t27.5 -137q0 -93 -44 -142t-123 -49zM449 248q-14 31 -37 51.5t-52 20.5q-59 0 -111 -103l-6 -11q28 -35 65.5 -54t87.5 -19
q16 0 31 3.5t25.5 15t10.5 35.5q0 30 -14 61z" />
    <glyph glyph-name="uniFEE4" unicode="&#x645;" horiz-adv-x="685" arabic-form="medial" 
d="M0 0l-22 10v128l22 10q46 0 79 23t60 74l38 65q38 70 83 106.5t100 36.5q46 0 80 -22.5t57.5 -57.5t36.5 -71l21 -56q20 -52 47.5 -75t82.5 -23l22 -10v-128l-22 -10q-56 0 -97.5 18t-68.5 59q-45 -87 -141 -87q-54 0 -106 27.5t-92 77.5q-69 -95 -180 -95zM302.5 293.5
q-28.5 -26.5 -53.5 -76.5l-5 -10q30 -35 67.5 -54.5t76.5 -19.5q55 0 87 48l-16 43q-18 51 -43.5 73.5t-53.5 22.5q-31 0 -59.5 -26.5z" />
    <glyph glyph-name="uniFEE6" unicode="&#x646;" horiz-adv-x="725" arabic-form="final" 
d="M50 78q0 46 10 101.5t33 134.5l104 -22q-17 -70 -24 -109t-7 -70q0 -80 41 -122.5t122 -42.5q50 0 89 15.5t61.5 42.5t22.5 61q0 16 -6 56t-16.5 90t-24.5 96l116 44l24 -106q9 -42 22 -63t38 -28.5t70 -7.5l22 -10v-128l-22 -10h-25q-23 0 -46.5 5.5t-41.5 18.5
q-9 -63 -45 -114t-97 -80.5t-145 -29.5q-127 0 -201 72.5t-74 205.5zM248 431l77 77l77 -77l-77 -77z" />
    <glyph glyph-name="uniFEE7" unicode="&#x646;" horiz-adv-x="305" arabic-form="initial" 
d="M-22 138l22 10q80 0 112 13t32 44q0 21 -5 62t-14 92t-21 100l116 44q10 -48 17.5 -105.5t12 -109.5t4.5 -84q0 -106 -61.5 -155t-192.5 -49l-22 10v128zM73 651l77 77l77 -77l-77 -77z" />
    <glyph glyph-name="uniFEE8" unicode="&#x646;" horiz-adv-x="365" arabic-form="medial" 
d="M-22 138l22 10q55 0 81 9.5t37 29.5q5 9 8.5 21t5.5 27l14 128h104l-7 -83q-1 -12 -2 -28t-1 -25q0 -39 29 -59t96 -20l22 -10v-128l-22 -10h-18q-60 0 -104 15.5t-69 55.5q-23 -37 -64 -54t-110 -17l-22 10v128zM121 531l77 77l77 -77l-77 -77z" />
    <glyph glyph-name="uniFEEA" unicode="&#x647;" horiz-adv-x="555" arabic-form="final" 
d="M555 0q-91 0 -144 25.5t-74 81.5q-60 -10 -106 -10q-92 0 -146.5 43t-54.5 119q0 61 36 113t101 89.5t153 54.5v54l116 13v-336q0 -55 26 -77t93 -22l22 -10v-128zM236 240q44 0 87 7l-1 133q-84 -9 -134 -35.5t-50 -59.5q0 -45 98 -45z" />
    <glyph glyph-name="uniFEEB" unicode="&#x647;" horiz-adv-x="695" arabic-form="initial" 
d="M406 -10q-52 0 -98.5 10t-86.5 30q-91 -30 -221 -30l-22 7v134l22 7q52 0 94 3q-27 53 -27 115q0 51 17 98t46 82.5t65 53.5l18 43q126 -58 211 -105t135.5 -89.5t72.5 -85.5t22 -92q0 -87 -64.5 -134t-183.5 -47zM237 174q88 29 88 99q0 27 -10 53t-27.5 43t-39.5 17
q-21 0 -40.5 -17t-31.5 -42t-12 -51q0 -33 19.5 -58.5t53.5 -43.5zM404 314q4 -29 4 -58q0 -66 -31 -117q18 -1 36 -1q73 0 106 11.5t33 37.5q0 15 -13 32.5t-45 40.5t-90 54z" />
    <glyph glyph-name="uniFEEC" unicode="&#x647;" horiz-adv-x="569" arabic-form="medial" 
d="M365 -258q-109 31 -185 98.5t-109 159.5h-71l-22 10v128l22 10h48q2 85 30 153t72.5 108t97.5 40q48 0 88 -30.5t64 -80.5t24 -107q0 -89 -61 -149.5t-179 -76.5q42 -74 126 -117q6 51 29.5 98t59.5 83.5t80 57.5t90 21l22 -10v-128l-22 -10q-46 0 -82.5 -19t-57.5 -52.5
t-21 -77.5zM178 274q-27 -47 -29 -125q93 4 134 24t41 62q0 34 -22 60t-54 26q-43 0 -70 -47z" />
    <glyph glyph-name="uniFEEE" unicode="&#x648;" horiz-adv-x="539" arabic-form="final" 
d="M77 -242l-27 133q120 17 191 43t101 71h-89q-191 0 -191 183q0 71 26 128t70 90t96 33q58 0 103.5 -37.5t74 -103t34.5 -150.5h73l22 -10v-128l-22 -10h-85q-28 -106 -121 -164.5t-256 -77.5zM340 224.5q-18 38.5 -44.5 61.5t-57.5 23q-32 0 -56 -29t-24 -73
q0 -37 23.5 -52.5t79.5 -15.5h103q-6 47 -24 85.5z" />
    <glyph glyph-name="uniFEF0" unicode="&#x649;" horiz-adv-x="809" arabic-form="final" 
d="M50 63q0 43 10.5 100t32.5 136l104 -21q-17 -70 -24 -110.5t-7 -68.5q0 -84 57 -129t169 -45q93 0 155 25.5t73 61.5q-54 6 -110 16l22 144q74 -11 149.5 -17.5t127.5 -6.5l22 -10v-128l-22 -10h-12q-33 0 -70 2q-10 -65 -54 -115t-117.5 -78t-171.5 -28
q-159 0 -246.5 74.5t-87.5 207.5z" />
    <glyph glyph-name="uniFEF2" unicode="&#x64a;" horiz-adv-x="809" arabic-form="final" 
d="M50 63q0 43 10.5 100t32.5 136l104 -21q-17 -70 -24 -110.5t-7 -68.5q0 -84 57 -129t169 -45q93 0 155 25.5t73 61.5q-54 6 -110 16l22 144q74 -11 149.5 -17.5t127.5 -6.5l22 -10v-128l-22 -10h-12q-33 0 -70 2q-10 -65 -54 -115t-117.5 -78t-171.5 -28
q-159 0 -246.5 74.5t-87.5 207.5zM304 -309l75 -75l-75 -74l-74 74zM464 -309l74 -75l-74 -74l-75 74z" />
    <glyph glyph-name="uniFEF3" unicode="&#x64a;" horiz-adv-x="305" arabic-form="initial" 
d="M-22 138l22 10q80 0 112 13t32 44q0 21 -5 62t-14 92t-21 100l116 44q10 -48 17.5 -105.5t12 -109.5t4.5 -84q0 -106 -61.5 -155t-192.5 -49l-22 10v128zM-15 -91l75 -75l-75 -74l-74 74zM145 -91l74 -75l-74 -74l-75 74z" />
    <glyph glyph-name="uniFEF4" unicode="&#x64a;" horiz-adv-x="365" arabic-form="medial" 
d="M-22 138l22 10q55 0 81 9.5t37 29.5q5 9 8.5 21t5.5 27l14 128h104l-7 -83q-1 -12 -2 -28t-1 -25q0 -39 29 -59t96 -20l22 -10v-128l-22 -10h-18q-60 0 -104 15.5t-69 55.5q-23 -37 -64 -54t-110 -17l-22 10v128zM-15 -91l75 -75l-75 -74l-74 74zM145 -91l74 -75l-74 -74
l-75 74z" />
    <glyph glyph-name=".notdef" horiz-adv-x="500" 
d="M50 750h400v-750h-400v750zM400 50v650h-300v-650h300z" />
    <glyph glyph-name="uni0000" 
 />
    <glyph glyph-name="uni000D" unicode="&#xd;" horiz-adv-x="274" 
 />
    <glyph glyph-name="space" unicode=" " horiz-adv-x="274" 
 />
    <glyph glyph-name="exclam" unicode="!" horiz-adv-x="322" 
d="M71 714h180l-14 -496h-152zM79 152h164v-152h-164v152z" />
    <glyph glyph-name="quotedbl" unicode="&#x22;" horiz-adv-x="413" 
d="M43 714h140l-7 -271h-126zM229 714h140l-7 -271h-126z" />
    <glyph glyph-name="numbersign" unicode="#" horiz-adv-x="700" 
d="M371 0l26 154h-158l-26 -154h-136l26 154h-89v116h108l26 151h-91v116h110l26 154h136l-26 -154h158l26 154h136l-26 -154h89v-116h-108l-26 -151h91v-116h-110l-26 -154h-136zM258 270h158l26 151h-158z" />
    <glyph glyph-name="dollar" unicode="$" horiz-adv-x="700" 
d="M321 -119v103q-130 8 -206.5 64.5t-86.5 167.5h157q15 -99 136 -113v186q-146 17 -209.5 72.5t-63.5 138.5q0 93 71 148.5t202 61.5v92h70v-92q109 -6 181.5 -53.5t89.5 -151.5l-151 -16q-14 47 -42.5 71t-77.5 30v-171q153 -18 218 -75.5t65 -146.5q0 -68 -35.5 -114
t-99 -71t-148.5 -28v-103h-70zM516 189q0 41 -27 63.5t-86 28.5l-12 1v-181q54 3 89.5 23.5t35.5 64.5zM321 426v166q-51 -2 -85.5 -19.5t-34.5 -61.5q0 -35 26.5 -57t93.5 -28z" />
    <glyph glyph-name="percent" unicode="%" horiz-adv-x="1155" 
d="M705 691h152l-407 -691h-151zM1118 204q0 -100 -56 -158.5t-154 -58.5t-153 57.5t-55 157.5q0 101 56.5 159t153.5 58q98 0 153 -57t55 -158zM845.5 113q20.5 -29 63.5 -29t63.5 29t20.5 90q0 62 -20 91t-64 29q-84 0 -84 -120q0 -61 20.5 -90zM455 489
q0 -100 -56 -158.5t-154 -58.5t-153 57.5t-55 157.5q0 101 56.5 159t153.5 58q98 0 153 -57t55 -158zM182.5 398q20.5 -29 63.5 -29t63.5 29t20.5 90q0 62 -20 91t-64 29q-84 0 -84 -120q0 -61 20.5 -90z" />
    <glyph glyph-name="ampersand" unicode="&#x26;" horiz-adv-x="819" 
d="M128 552q0 51 29.5 90t81.5 60.5t121 21.5q102 0 162.5 -44t60.5 -117q0 -57 -37.5 -103t-121.5 -89l167 -154q17 27 26.5 61t10.5 76h141q-1 -69 -21.5 -126.5t-56.5 -101.5l137 -126h-195l-45 42q-103 -58 -240 -58q-154 0 -236.5 54t-82.5 156q0 127 176 205
q-42 45 -59.5 81.5t-17.5 71.5zM292 316q-52 -27 -76 -52.5t-24 -56.5q0 -51 44 -78.5t126 -27.5q33 0 66.5 7t64.5 22zM362 613q-42 0 -64.5 -17t-22.5 -48q0 -26 15.5 -48t52.5 -55q55 26 77.5 49.5t22.5 52.5q0 31 -22 48.5t-59 17.5z" />
    <glyph glyph-name="quotesingle" unicode="'" horiz-adv-x="227" 
d="M43 714h140l-7 -271h-126z" />
    <glyph glyph-name="parenleft" unicode="(" horiz-adv-x="381" 
d="M203 734h160q-71 -105 -103.5 -207.5t-32.5 -221.5q0 -118 32.5 -221t103.5 -208h-160q-73 89 -112 196t-39 233t39 233.5t112 195.5z" />
    <glyph glyph-name="parenright" unicode=")" horiz-adv-x="381" 
d="M329 305q0 -126 -39 -233t-112 -196h-160q72 105 104 207.5t32 221.5t-32 221.5t-104 207.5h160q73 -88 112 -195.5t39 -233.5z" />
    <glyph glyph-name="asterisk" unicode="*" horiz-adv-x="491" 
d="M176 714h139l-20 -144l120 67l50 -125l-145 -36l110 -107l-108 -81l-76 129l-77 -129l-108 81l109 108l-144 35l50 125l120 -67z" />
    <glyph glyph-name="plus" unicode="+" horiz-adv-x="700" 
d="M275 272h-207v137h207v210h150v-210h207v-137h-207v-211h-150v211z" />
    <glyph glyph-name="comma" unicode="," horiz-adv-x="303" 
d="M82 171h166l-77 -272h-133z" />
    <glyph glyph-name="hyphen" unicode="-" horiz-adv-x="487" 
d="M45 370h397v-145h-397v145z" />
    <glyph glyph-name="period" unicode="." horiz-adv-x="303" 
d="M69 171h165v-171h-165v171z" />
    <glyph glyph-name="slash" unicode="/" horiz-adv-x="459" 
d="M291 734h161l-284 -734h-161z" />
    <glyph glyph-name="zero" unicode="0" horiz-adv-x="700" 
d="M120 620q81 90 232 90q157 0 233 -90.5t76 -272.5q0 -185 -80.5 -275t-232.5 -90q-157 0 -233 91t-76 272q0 185 81 275zM456 523.5q-34 51.5 -106 51.5t-106 -51.5t-34 -178.5q0 -125 34 -176.5t106 -51.5t106 51.5t34 178.5q0 125 -34 176.5z" />
    <glyph glyph-name="one" unicode="1" horiz-adv-x="700" 
d="M500 0h-170v507l-157 -97l-75 117l257 164h145v-691z" />
    <glyph glyph-name="two" unicode="2" horiz-adv-x="700" 
d="M632 0h-571v123q67 46 119 82.5t101 71.5q57 41 93.5 70.5t56.5 51.5t27.5 42t7.5 42q0 95 -119 95q-57 0 -88.5 -23.5t-45.5 -76.5l-160 17q20 105 97 160t204 55q133 0 207.5 -56t74.5 -156q0 -47 -16.5 -86t-56 -79t-108.5 -91q-37 -28 -71.5 -52t-82.5 -56h349z" />
    <glyph glyph-name="three" unicode="3" horiz-adv-x="700" 
d="M265 420h88q59 0 90 21.5t31 61.5q0 85 -128 85q-60 0 -93 -21.5t-50 -74.5l-147 15q16 103 94.5 153t200.5 50q131 0 204.5 -51.5t73.5 -134.5q0 -50 -28 -91t-91 -65q73 -25 106.5 -68.5t33.5 -101.5q0 -99 -77 -157.5t-224 -58.5q-108 0 -173.5 31.5t-96.5 84
t-34 115.5h152q8 -55 42.5 -81.5t107.5 -26.5q70 0 106.5 24.5t36.5 74.5q0 89 -140 89h-85v127z" />
    <glyph glyph-name="four" unicode="4" horiz-adv-x="700" 
d="M572 263h107l-17 -121h-90v-142h-153v142h-395v124l385 425h163v-428zM419 263v262l-237 -262h237z" />
    <glyph glyph-name="five" unicode="5" horiz-adv-x="700" 
d="M115 691h486v-132h-353l-12 -140q36 18 72 25t87 7q122 0 189.5 -60t67.5 -167q0 -115 -75.5 -178.5t-215.5 -63.5q-136 0 -211.5 54t-87.5 157h162q11 -43 42.5 -62t92.5 -19q128 0 128 113q0 106 -131 106q-46 0 -75 -9.5t-55 -31.5h-145z" />
    <glyph glyph-name="six" unicode="6" horiz-adv-x="700" 
d="M376 710q109 0 174.5 -47.5t84.5 -135.5l-152 -17q-13 33 -39.5 51t-73.5 18q-75 0 -111 -46t-44 -122l-3 -28q32 31 78 46.5t102 15.5q118 0 189.5 -57.5t71.5 -167.5q0 -73 -37.5 -126.5t-104 -82.5t-154.5 -29q-145 0 -224 84t-79 247q0 196 86.5 296.5t235.5 100.5z
M360 328q-59 0 -98 -26.5t-39 -75.5q0 -51 37 -83t97 -32q61 0 98.5 29.5t37.5 80.5t-33 79t-100 28z" />
    <glyph glyph-name="seven" unicode="7" horiz-adv-x="700" 
d="M350 0h-176q52 154 120 289.5t154 262.5h-403v139h588v-122q-94 -135 -162 -273t-121 -296z" />
    <glyph glyph-name="eight" unicode="8" horiz-adv-x="700" 
d="M60 512q0 92 78 145t214 53t212 -52t76 -144q0 -54 -29 -94.5t-83 -62.5q66 -22 101.5 -65.5t35.5 -102.5q0 -100 -81.5 -153.5t-234.5 -53.5t-233.5 52t-80.5 151q0 60 35 104.5t101 67.5q-111 46 -111 155zM351 110q153 0 153 91t-153 91q-155 0 -155 -91t155 -91z
M486 499q0 41 -35 62.5t-101 21.5t-101 -21.5t-35 -62.5q0 -86 136 -86t136 86z" />
    <glyph glyph-name="nine" unicode="9" horiz-adv-x="700" 
d="M342 -18q-127 0 -199 51t-83 145h159q11 -33 40 -49t84 -16q136 0 143 195q-62 -61 -178 -61q-118 0 -189.5 57.5t-71.5 167.5q0 74 37.5 127t104 82t154.5 29q146 0 224.5 -87t78.5 -261q0 -112 -33 -198t-100.5 -134t-170.5 -48zM437.5 390.5q38.5 26.5 38.5 75.5
q0 50 -36.5 82.5t-96.5 32.5q-61 0 -98.5 -30t-37.5 -80q0 -51 33 -79t100 -28q59 0 97.5 26.5z" />
    <glyph glyph-name="colon" unicode=":" horiz-adv-x="303" 
d="M69 171h165v-171h-165v171zM69 522h165v-171h-165v171z" />
    <glyph glyph-name="semicolon" unicode=";" horiz-adv-x="303" 
d="M82 171h166l-77 -272h-133zM80 522h165v-171h-165v171z" />
    <glyph glyph-name="less" unicode="&#x3c;" horiz-adv-x="700" 
d="M78 275v130l528 214v-142l-346 -135l346 -135v-146z" />
    <glyph glyph-name="equal" unicode="=" horiz-adv-x="700" 
d="M86 154v134h528v-134h-528zM86 394v134h528v-134h-528z" />
    <glyph glyph-name="greater" unicode="&#x3e;" horiz-adv-x="700" 
d="M622 405v-130l-528 -214v142l346 135l-346 135v146z" />
    <glyph glyph-name="question" unicode="?" horiz-adv-x="648" 
d="M239 218v16q0 35 10 62t33.5 53t65.5 57q36 26 54.5 43.5t25 32t6.5 31.5q0 80 -114 80q-62 0 -96 -22.5t-48 -72.5l-155 16q38 212 306 212q131 0 204 -49.5t73 -138.5q0 -55 -27 -97t-93 -89q-37 -26 -57 -45t-28 -36.5t-8 -40.5v-12h-152zM233 152h163v-152h-163v152z
" />
    <glyph glyph-name="at" unicode="@" horiz-adv-x="1175" 
d="M546 -221q-153 0 -262.5 48t-168 140t-58.5 225q0 108 42 199t119.5 158t183.5 104.5t235 37.5q141 0 249.5 -45.5t170 -133t61.5 -215.5q0 -89 -34.5 -159t-97.5 -110t-149 -40q-52 0 -78.5 11.5t-38 27t-19.5 27.5q-6 12 -10 23q-32 -49 -75 -71t-102 -22
q-90 0 -144.5 53t-54.5 158q0 78 35 140.5t94.5 99.5t130.5 37q55 0 92.5 -19.5t53.5 -51.5l11 60h140l-58 -303q-3 -22 -3 -37q-1 -23 10 -31t35 -8q42 0 75.5 26.5t53.5 75t20 113.5q0 100 -45 165.5t-127 97.5t-193 32q-146 0 -249 -52.5t-157 -142t-54 -202.5
q0 -149 95.5 -232.5t291.5 -83.5q74 0 136.5 17t106.5 58h154q-36 -60 -99.5 -98.5t-145.5 -57.5t-173 -19zM591 363q-40 0 -70 -22t-46 -58t-16 -78q0 -62 24 -87t65 -25q34 0 62 16t46 42t22 56l7 47q7 47 -17 78t-77 31z" />
    <glyph glyph-name="A" unicode="A" horiz-adv-x="845" 
d="M341 714h162l336 -714h-183l-70 159h-336l-68 -159h-175zM534 289l-115 267l-115 -267h230z" />
    <glyph glyph-name="B" unicode="B" horiz-adv-x="809" 
d="M88 714h347q151 0 224 -46.5t73 -137.5q0 -54 -27.5 -93t-85.5 -59q140 -48 140 -170q0 -101 -77 -154.5t-228 -53.5h-366v714zM441 122q82 0 117 22t35 71q0 51 -36 74t-114 23h-196v-190h194zM438 429q66 0 97.5 20.5t31.5 64.5q0 41 -32 59.5t-106 18.5h-182v-163h191
z" />
    <glyph glyph-name="C" unicode="C" horiz-adv-x="868" 
d="M53 357q0 109 47 193.5t136.5 133t216.5 48.5q151 0 240.5 -61.5t121.5 -184.5l-165 -19q-23 68 -69.5 98t-127.5 30q-106 0 -166.5 -62.5t-60.5 -175.5t61 -175.5t170 -62.5q84 0 131 32.5t62 98.5h177q-16 -127 -112.5 -197.5t-260.5 -70.5q-129 0 -218.5 47.5
t-136 132t-46.5 195.5z" />
    <glyph glyph-name="D" unicode="D" horiz-adv-x="889" 
d="M86 714h326q208 0 316 -91t108 -266q0 -171 -113.5 -264t-325.5 -93h-311v714zM402 142q254 0 254 216q0 214 -242 214h-154v-430h142z" />
    <glyph glyph-name="E" unicode="E" horiz-adv-x="758" 
d="M86 714h606v-134h-432v-149h411v-133h-411v-164h455l-19 -134h-610v714z" />
    <glyph glyph-name="F" unicode="F" horiz-adv-x="694" 
d="M86 714h578v-137h-402v-167h380v-137h-380v-273h-176v714z" />
    <glyph glyph-name="G" unicode="G" horiz-adv-x="879" 
d="M826 88q-68 -50 -155.5 -78t-191.5 -28q-132 0 -227 44t-146 127t-51 199q0 122 51.5 206.5t144 129t213.5 44.5q100 0 170.5 -28t115 -78t63.5 -115l-167 -22q-19 54 -64 82t-125 28q-112 0 -171 -64.5t-59 -182.5q0 -115 62.5 -175.5t191.5 -60.5q54 0 103 10t89 28
v112h-191v129h344v-307z" />
    <glyph glyph-name="H" unicode="H" horiz-adv-x="894" 
d="M86 714h176v-270h370v270h176v-714h-176v293h-370v-293h-176v714z" />
    <glyph glyph-name="I" unicode="I" horiz-adv-x="349" 
d="M86 714h176v-714h-176v714z" />
    <glyph glyph-name="J" unicode="J" horiz-adv-x="763" 
d="M508 714h177v-434q0 -147 -83 -222.5t-244 -75.5q-153 0 -237.5 68.5t-95.5 200.5h177q9 -63 47 -93.5t108 -30.5q77 0 114 36t37 111v440z" />
    <glyph glyph-name="K" unicode="K" horiz-adv-x="850" 
d="M86 714h176v-304l341 304h204l-302 -273l331 -441h-204l-249 333l-121 -103v-230h-176v714z" />
    <glyph glyph-name="L" unicode="L" horiz-adv-x="714" 
d="M86 714h176v-569h428l-21 -145h-583v714z" />
    <glyph glyph-name="M" unicode="M" horiz-adv-x="1059" 
d="M86 714h203l243 -525l242 525h198v-714h-164v472l-214 -472h-133l-214 471v-471h-161v714z" />
    <glyph glyph-name="N" unicode="N" horiz-adv-x="896" 
d="M86 714h159l397 -477v477h168v-714h-159l-397 478v-478h-168v714z" />
    <glyph glyph-name="O" unicode="O" horiz-adv-x="939" 
d="M52 357q0 116 51 200t145 129.5t223 45.5t222 -45.5t143.5 -129.5t50.5 -200t-51 -200t-145 -129.5t-223 -45.5q-128 0 -221.5 45.5t-144 129.5t-50.5 200zM704 357q0 110 -61.5 170t-172.5 60t-173 -60.5t-62 -169.5t61.5 -169.5t173.5 -60.5q110 0 172 60.5t62 169.5z
" />
    <glyph glyph-name="P" unicode="P" horiz-adv-x="783" 
d="M88 714h346q153 0 228.5 -60t75.5 -176q0 -118 -78 -178t-238 -60h-168v-240h-166v714zM420 373q76 0 112 25t36 81q0 54 -35 78t-111 24h-168v-208h166z" />
    <glyph glyph-name="Q" unicode="Q" horiz-adv-x="937" 
d="M53 357q0 116 51 200t144.5 129.5t221.5 45.5q127 0 219.5 -45.5t143 -129.5t50.5 -200q0 -86 -27.5 -154t-78.5 -116l100 -101l-89 -84l-117 120q-43 -19 -94.5 -29.5t-109.5 -10.5q-127 0 -220 45.5t-143.5 129.5t-50.5 200zM477 221l86 80l99 -102q50 60 50 158
q0 112 -64 175t-180 63q-115 0 -179 -63t-64 -175q0 -113 64 -176.5t179 -63.5q54 0 96 16z" />
    <glyph glyph-name="R" unicode="R" horiz-adv-x="800" 
d="M88 714h350q155 0 229 -58t74 -169q0 -74 -33 -121t-97 -73l176 -293h-183l-151 259h-13.5h-18.5h-171v-259h-162v714zM428 388q76 0 111.5 23.5t35.5 75.5q0 53 -33.5 75.5t-112.5 22.5h-179v-197h178z" />
    <glyph glyph-name="S" unicode="S" horiz-adv-x="772" 
d="M30 238h169q10 -67 58.5 -96.5t132.5 -29.5q85 0 130.5 22t45.5 62q0 32 -27 54.5t-86 32.5l-126 20q-142 22 -211.5 73t-69.5 141q0 104 92 159.5t251 55.5q152 0 229.5 -55.5t98.5 -161.5l-157 -19q-18 56 -58 82t-120 26q-38 0 -76.5 -5t-64 -21t-25.5 -50
q0 -32 26.5 -52.5t95.5 -31.5l149 -23q122 -19 186 -72t64 -146q0 -109 -87 -165t-255 -56q-162 0 -258 60t-107 196z" />
    <glyph glyph-name="T" unicode="T" horiz-adv-x="737" 
d="M285 577h-273v137h712v-137h-272v-577h-167v577z" />
    <glyph glyph-name="U" unicode="U" horiz-adv-x="867" 
d="M254 292q0 -85 43.5 -125t136.5 -40q92 0 135.5 40t43.5 125v422h176v-410q0 -168 -91 -245t-264 -77q-174 0 -265 77t-91 245v410h176v-422z" />
    <glyph glyph-name="V" unicode="V" horiz-adv-x="825" 
d="M6 714h189l217 -526l223 526h183l-325 -714h-166z" />
    <glyph glyph-name="W" unicode="W" horiz-adv-x="1170" 
d="M10 714h182l152 -504l164 499h159l165 -500l151 505h176l-237 -714h-179l-160 482l-160 -482h-175z" />
    <glyph glyph-name="X" unicode="X" horiz-adv-x="847" 
d="M835 0h-210l-208 265l-207 -265h-198l296 371l-274 343h210l176 -233l184 233h197l-271 -336z" />
    <glyph glyph-name="Y" unicode="Y" horiz-adv-x="801" 
d="M488 281v-281h-176v282l-300 432h195l196 -297l197 297h189z" />
    <glyph glyph-name="Z" unicode="Z" horiz-adv-x="740" 
d="M474 575h-432v139h653v-126l-441 -449h461l-19 -139h-663v126z" />
    <glyph glyph-name="bracketleft" unicode="[" horiz-adv-x="417" 
d="M86 734h310v-131h-141v-596h141v-131h-310v858z" />
    <glyph glyph-name="backslash" unicode="\" horiz-adv-x="459" 
d="M7 734h161l284 -734h-161z" />
    <glyph glyph-name="bracketright" unicode="]" horiz-adv-x="417" 
d="M330 -124h-309v131h141v596h-141v131h309v-858z" />
    <glyph glyph-name="asciicircum" unicode="^" horiz-adv-x="700" 
d="M277 714h145l240 -421h-167l-147 273l-147 -273h-164z" />
    <glyph glyph-name="underscore" unicode="_" horiz-adv-x="610" 
d="M0 -123h610v-52h-610v52z" />
    <glyph glyph-name="grave" unicode="`" horiz-adv-x="729" 
d="M202 743h179l146 -155h-144z" />
    <glyph glyph-name="a" unicode="a" horiz-adv-x="687" 
d="M617 0h-145v69q-44 -43 -95.5 -63t-120.5 -20q-102 0 -158 41t-56 119q0 85 74 127t227 46l125 3v20q0 89 -120 89q-111 0 -133 -60l-141 12q32 155 280 155q263 0 263 -208v-330zM380.5 106.5q38.5 13.5 63 40t24.5 63.5v19l-114 -3q-82 -3 -119 -19t-37 -50
q0 -64 101 -64q43 0 81.5 13.5z" />
    <glyph glyph-name="b" unicode="b" horiz-adv-x="750" 
d="M73 714h166v-265q35 43 88.5 66t119.5 23q77 0 134 -34t89 -94.5t32 -142.5t-33 -146t-94 -100.5t-144 -36.5q-127 0 -195 84v-68h-163v714zM389 413q-66 0 -108.5 -39t-42.5 -98v-25q0 -63 39.5 -102.5t106.5 -39.5q74 0 111.5 39.5t37.5 114.5q0 72 -37.5 111
t-106.5 39z" />
    <glyph glyph-name="c" unicode="c" horiz-adv-x="681" 
d="M47 258q0 87 38 150t108 96.5t166 33.5q84 0 141 -25t90 -67.5t44 -97.5l-157 -18q-21 84 -117 84q-69 0 -106 -39.5t-37 -113.5t37 -113t107 -39q109 0 124 86h158q-14 -96 -85 -153.5t-201 -57.5q-151 0 -230.5 73.5t-79.5 200.5z" />
    <glyph glyph-name="d" unicode="d" horiz-adv-x="750" 
d="M677 0h-163v77q-36 -46 -90 -69.5t-121 -23.5q-77 0 -134.5 34t-89.5 95t-32 142q0 83 33 146.5t94 100t145 36.5q125 0 192 -82v258h166v-714zM361 109q44 0 78 18t53.5 49.5t19.5 70.5v25q0 63 -39.5 102t-107.5 39q-73 0 -110.5 -39.5t-37.5 -114.5q0 -72 37 -111
t107 -39z" />
    <glyph glyph-name="e" unicode="e" horiz-adv-x="697" 
d="M349 -16q-142 0 -221.5 71.5t-79.5 199.5q0 86 38.5 149.5t107.5 98.5t160 35q141 0 217.5 -70.5t76.5 -198.5v-46h-448q7 -67 47 -100t108 -33q113 0 139 69h147q-41 -175 -292 -175zM205 320h293q-5 59 -39 86t-106 27q-73 0 -105.5 -32.5t-42.5 -80.5z" />
    <glyph glyph-name="f" unicode="f" horiz-adv-x="476" 
d="M123 387h-101v121h101v27q0 88 58.5 137.5t163.5 49.5q37 0 70 -4t67 -14l-24 -110q-19 5 -37 6.5t-40 1.5q-92 0 -92 -69v-25h163v-121h-163v-387h-166v387z" />
    <glyph glyph-name="g" unicode="g" horiz-adv-x="740" 
d="M677 83q0 -150 -74.5 -219t-232.5 -69q-139 0 -212 43.5t-86 132.5h161q11 -34 42.5 -49t93.5 -15q73 0 107.5 34.5t34.5 108.5v53q-71 -84 -208 -84q-76 0 -133.5 32t-90 90t-32.5 134t33.5 135.5t95 93.5t143.5 34q65 0 113 -20.5t83 -62.5v67h162v-439zM469 175
q43 35 43 94v15q0 61 -41 96t-106 35q-71 0 -109.5 -36t-38.5 -101t38 -101.5t106 -36.5q65 0 108 35z" />
    <glyph glyph-name="h" unicode="h" horiz-adv-x="729" 
d="M73 714h166v-270q43 47 94 70.5t115 23.5q102 0 157 -51.5t55 -147.5v-339h-166v308q0 53 -25.5 77.5t-81.5 24.5q-30 0 -59 -11t-50 -31q-39 -36 -39 -85v-283h-166v714z" />
    <glyph glyph-name="i" unicode="i" horiz-adv-x="312" 
d="M73 522h166v-522h-166v522zM76 726h160v-117h-160v117z" />
    <glyph glyph-name="j" unicode="j" horiz-adv-x="312" 
d="M73 522h166v-534q0 -101 -44.5 -147t-142.5 -46q-71 0 -136 19l24 111q22 -4 39 -6t31 -2q35 0 49 14.5t14 51.5v539zM76 726h160v-117h-160v117z" />
    <glyph glyph-name="k" unicode="k" horiz-adv-x="702" 
d="M73 714h166v-369l231 177h206l-225 -171l248 -351h-184l-180 265l-96 -72v-193h-166v714z" />
    <glyph glyph-name="l" unicode="l" horiz-adv-x="312" 
d="M73 714h166v-714h-166v714z" />
    <glyph glyph-name="m" unicode="m" horiz-adv-x="1081" 
d="M73 522h163v-80q38 46 86 71t108 25q133 0 176 -100q81 100 210 100q94 0 145 -51.5t51 -147.5v-339h-167v311q0 52 -21 75.5t-69 23.5q-53 0 -95 -39q-35 -32 -35 -76v-295h-166v311q0 52 -21.5 75.5t-68.5 23.5q-55 0 -95 -42q-35 -33 -35 -82v-286h-166v522z" />
    <glyph glyph-name="n" unicode="n" horiz-adv-x="729" 
d="M73 522h163v-80q43 48 95 72t117 24q102 0 157 -51.5t55 -147.5v-339h-166v308q0 53 -25.5 77.5t-81.5 24.5q-30 0 -59 -11t-50 -31q-39 -36 -39 -85v-283h-166v522z" />
    <glyph glyph-name="o" unicode="o" horiz-adv-x="729" 
d="M47 259q0 87 39 149.5t111.5 96t170.5 33.5q149 0 231.5 -72t82.5 -203q0 -86 -39 -148.5t-111 -96.5t-171 -34q-148 0 -231 72.5t-83 202.5zM513 261q0 74 -38.5 113.5t-109.5 39.5t-109.5 -39.5t-38.5 -113.5q0 -73 38 -112.5t109 -39.5q72 0 110.5 39.5t38.5 112.5z
" />
    <glyph glyph-name="p" unicode="p" horiz-adv-x="750" 
d="M73 522h163v-77q36 46 90 69.5t121 23.5q77 0 134 -34t89 -94.5t32 -142.5t-33 -146t-94 -100.5t-144 -36.5q-126 0 -192 83v-261h-166v716zM495.5 148.5q37.5 39.5 37.5 114.5q0 72 -37.5 111t-106.5 39q-66 0 -108.5 -39t-42.5 -98v-25q0 -63 39.5 -102.5t106.5 -39.5
q74 0 111.5 39.5z" />
    <glyph glyph-name="q" unicode="q" horiz-adv-x="750" 
d="M677 -194h-166v269q-35 -45 -88.5 -68t-119.5 -23q-77 0 -134.5 34t-89.5 95t-32 142q0 83 33 146.5t94 100t145 36.5q129 0 196 -87v71h162v-716zM512 272q0 63 -39.5 102t-107.5 39q-73 0 -110.5 -39.5t-37.5 -114.5q0 -72 37 -111t107 -39q67 0 109 38.5t42 99.5v25z
" />
    <glyph glyph-name="r" unicode="r" horiz-adv-x="502" 
d="M73 522h163v-82q75 91 187 91q14 0 29 -1.5t31 -3.5l-19 -132q-35 5 -61 5q-76 0 -121 -38q-43 -37 -43 -87v-274h-166v522z" />
    <glyph glyph-name="s" unicode="s" horiz-adv-x="653" 
d="M340 -16q-79 0 -143 16.5t-104.5 54.5t-49.5 104h149q11 -37 48 -54t97 -17q126 0 126 59q0 22 -23 34.5t-88 22.5l-64 9q-123 19 -176 56t-53 110q0 75 71 117t196 42q88 0 144.5 -18t87.5 -51.5t44 -81.5l-144 -14q-11 32 -43 47t-89 15q-59 0 -89.5 -15t-30.5 -39
q0 -22 22.5 -34t84.5 -22l70 -10q87 -12 137.5 -31.5t72 -51.5t21.5 -81q0 -82 -68 -124.5t-206 -42.5z" />
    <glyph glyph-name="t" unicode="t" horiz-adv-x="494" 
d="M123 401h-101v121h101v139h166v-139h167v-121h-167v-213q0 -39 19 -56t59 -17q39 0 84 14l22 -116q-37 -12 -72.5 -17.5t-79.5 -5.5q-105 0 -151.5 45.5t-46.5 145.5v220z" />
    <glyph glyph-name="u" unicode="u" horiz-adv-x="720" 
d="M648 0h-163v81q-41 -46 -92 -71.5t-118 -25.5q-97 0 -151.5 51.5t-54.5 145.5v341h166v-310q0 -100 101 -100q59 0 106 42q39 34 39 83v285h167v-522z" />
    <glyph glyph-name="v" unicode="v" horiz-adv-x="663" 
d="M8 522h178l147 -379l150 379h172l-235 -522h-177z" />
    <glyph glyph-name="w" unicode="w" horiz-adv-x="946" 
d="M10 522h160l113 -356l127 352h134l127 -348l112 352h154l-185 -522h-154l-124 338l-125 -338h-154z" />
    <glyph glyph-name="x" unicode="x" horiz-adv-x="671" 
d="M663 0h-190l-140 170l-140 -170h-185l233 269l-214 253h189l121 -150l119 150h184l-211 -244z" />
    <glyph glyph-name="y" unicode="y" horiz-adv-x="668" 
d="M393 -28q-33 -68 -63.5 -107t-67.5 -54.5t-90 -15.5q-35 0 -64 5t-62 17l24 113q19 -6 36.5 -8.5t36.5 -2.5q36 0 59 16t42 55l21 43l-257 489h181l155 -342l142 342h174z" />
    <glyph glyph-name="z" unicode="z" horiz-adv-x="611" 
d="M240 120h343l-16 -120h-538v102l323 300h-316v120h527v-101z" />
    <glyph glyph-name="braceleft" unicode="{" horiz-adv-x="423" 
d="M112 39v130q0 72 -79 72h-11v128h9q81 0 81 72v130q0 163 190 163h106v-131h-71q-62 0 -62 -62v-127q0 -90 -90 -109q90 -19 90 -109v-127q0 -62 62 -62h71v-131h-106q-190 0 -190 163z" />
    <glyph glyph-name="bar" unicode="|" horiz-adv-x="322" 
d="M86 734h149v-858h-149v858z" />
    <glyph glyph-name="braceright" unicode="}" horiz-adv-x="423" 
d="M311 571v-130q0 -72 79 -72h11v-128h-8q-82 0 -82 -72v-130q0 -163 -190 -163h-106v131h71q63 0 63 62v127q0 90 90 109q-90 19 -90 109v127q0 62 -63 62h-71v131h106q190 0 190 -163z" />
    <glyph glyph-name="asciitilde" unicode="~" horiz-adv-x="700" 
d="M217 459q41 0 77.5 -12t79.5 -41q33 -22 54 -31t43 -9q65 0 65 82h140q0 -228 -193 -228q-41 0 -77.5 12.5t-79.5 40.5q-33 22 -54 31t-43 9q-65 0 -65 -82h-140q0 228 193 228z" />
    <glyph glyph-name="uni00A0" unicode="&#xa0;" horiz-adv-x="274" 
 />
    <glyph glyph-name="exclamdown" unicode="&#xa1;" horiz-adv-x="322" 
d="M71 -192l14 496h152l14 -496h-180zM79 370v152h164v-152h-164z" />
    <glyph glyph-name="cent" unicode="&#xa2;" horiz-adv-x="700" 
d="M400 200q91 10 105 91h153q-30 -194 -258 -210v-97h-71v97q-130 7 -206 77t-76 196q0 125 76.5 197.5t205.5 81.5v92h71v-92q214 -14 249 -189l-152 -18q-9 38 -32 59.5t-65 27.5v-313zM210 356q0 -74 31 -110.5t88 -44.5v311q-55 -8 -87 -45.5t-32 -110.5z" />
    <glyph glyph-name="sterling" unicode="&#xa3;" horiz-adv-x="700" 
d="M658 0h-586v111q41 31 58 63t17 78q0 13 -1 30h-100v120h78q-7 28 -9.5 48.5t-2.5 38.5q0 103 75 162t205 59q119 0 187.5 -49t81.5 -143l-151 -18q-13 45 -39 63t-79 18q-58 0 -90 -26.5t-32 -74.5q0 -20 3.5 -40t8.5 -38h257v-120h-239q1 -14 1 -26q0 -34 -12 -64
t-43 -58h431z" />
    <glyph glyph-name="currency" unicode="&#xa4;" horiz-adv-x="700" 
d="M350 82q-64 0 -118 26l-63 -71l-100 89l65 71q-39 62 -39 140q0 79 39 141l-65 71l100 89l64 -71q53 26 117 26t118 -26l63 71l100 -89l-65 -71q39 -62 39 -141q0 -78 -39 -140l65 -71l-100 -89l-63 71q-54 -26 -118 -26zM442.5 445.5q-31.5 37.5 -92.5 37.5t-92.5 -37.5
t-31.5 -108.5q0 -70 31.5 -108t92.5 -38t92.5 38t31.5 108q0 71 -31.5 108.5z" />
    <glyph glyph-name="yen" unicode="&#xa5;" horiz-adv-x="700" 
d="M11 691h166l175 -283l176 283h160l-203 -309h153v-92h-211v-64h211v-93h-211v-133h-153v133h-212v93h212v64h-212v92h153z" />
    <glyph glyph-name="brokenbar" unicode="&#xa6;" horiz-adv-x="322" 
d="M86 -124v353h149v-353h-149zM86 398v336h149v-336h-149z" />
    <glyph glyph-name="section" unicode="&#xa7;" horiz-adv-x="660" 
d="M343 -121q-288 0 -313 189h160q9 -44 44.5 -64t104.5 -20q127 0 127 67q0 26 -22 41.5t-77 25.5l-111 22q-115 23 -164.5 60.5t-49.5 104.5q0 98 105 130q-53 20 -77 51.5t-24 76.5q0 81 74 125t210 44q250 0 290 -161l-154 -16q-14 38 -46 55t-91 17q-129 0 -129 -62
q0 -25 23.5 -40.5t75.5 -25.5l101 -19q120 -22 171 -60t51 -106q0 -96 -106 -133q107 -39 107 -131q0 -83 -71 -127t-209 -44zM379 372l-57 11q-13 3 -24 4t-22 1q-43 0 -68 -18.5t-25 -51.5q0 -28 23.5 -44.5t78.5 -27.5l56 -12q14 -2 25 -3.5t22 -1.5q44 0 68 18.5
t24 52.5q0 27 -22.5 44t-78.5 28z" />
    <glyph glyph-name="dieresis" unicode="&#xa8;" horiz-adv-x="729" 
d="M416 720h145v-116h-145v116zM168 720h143v-116h-143v116z" />
    <glyph glyph-name="copyright" unicode="&#xa9;" horiz-adv-x="914" 
d="M49 357q0 108 50.5 188.5t142.5 124.5t215 44q124 0 215.5 -44t142 -124.5t50.5 -188.5t-50.5 -188.5t-142 -124.5t-215.5 -44q-123 0 -215 44t-142.5 124.5t-50.5 188.5zM771 357q0 85 -38 146.5t-108.5 95t-167.5 33.5t-167 -33.5t-108 -95t-38 -146.5q0 -84 38 -146
t108 -95.5t167 -33.5t167.5 33.5t108.5 95.5t38 146zM241 355q0 93 61 147.5t164 54.5q83 0 135 -35t68 -102l-121 -14q-8 30 -27.5 43t-54.5 13q-47 0 -73 -27t-26 -77q0 -105 100 -105q73 0 86 58h122q-13 -74 -66.5 -113.5t-142.5 -39.5q-106 0 -165.5 53t-59.5 144z" />
    <glyph glyph-name="ordfeminine" unicode="&#xaa;" horiz-adv-x="532" 
d="M470 338h-115v52q-50 -62 -155 -62q-79 0 -121.5 30.5t-42.5 85.5q0 62 53.5 93t160.5 34l99 2v15q0 61 -84 61q-40 0 -61 -9t-30 -32l-114 10q14 59 64.5 86.5t144.5 27.5q201 0 201 -152v-242zM349 487v18l-91 -2q-54 -1 -77 -12.5t-23 -36.5q0 -44 74 -44q54 0 85 20
q32 22 32 57z" />
    <glyph glyph-name="guillemotleft" unicode="&#xab;" horiz-adv-x="660" 
d="M362 31h-164l-160 225l160 226h162l-149 -224zM621 31h-164l-160 225l160 226h162l-149 -224z" />
    <glyph glyph-name="logicalnot" unicode="&#xac;" horiz-adv-x="700" 
d="M615 150h-150v158h-402v137h552v-295z" />
    <glyph glyph-name="uni00AD" unicode="&#xad;" horiz-adv-x="487" 
d="M45 370h397v-145h-397v145z" />
    <glyph glyph-name="registered" unicode="&#xae;" horiz-adv-x="589" 
d="M158.5 318q-57.5 27 -89 77t-31.5 117t31.5 116.5t89 76.5t135.5 27q79 0 136.5 -27t89 -76.5t31.5 -116.5t-31.5 -117t-89 -77t-136.5 -27q-78 0 -135.5 27zM100 512q0 -77 51.5 -121t142.5 -44q92 0 143 44t51 121t-51 120.5t-143 43.5q-91 0 -142.5 -43.5
t-51.5 -120.5zM380 601.5q24 -17.5 24 -52.5q0 -41 -39 -58l53 -83h-67l-42 68h-53v-68h-63v211h111q52 0 76 -17.5zM299 570h-43v-44h46q23 0 31.5 6t8.5 16q0 11 -9.5 16.5t-33.5 5.5z" />
    <glyph glyph-name="macron" unicode="&#xaf;" horiz-adv-x="729" 
d="M202 697h323v-75h-323v75z" />
    <glyph glyph-name="degree" unicode="&#xb0;" horiz-adv-x="416" 
d="M208 365q-52 0 -92 22.5t-63 61.5t-23 90q0 52 23 91t63 61.5t92 22.5t92 -22.5t63 -61.5t23 -91q0 -51 -23 -90t-63 -61.5t-92 -22.5zM259.5 593q-19.5 21 -51.5 21t-51.5 -21t-19.5 -54q0 -32 19.5 -53t51.5 -21t51.5 21t19.5 53q0 33 -19.5 54z" />
    <glyph glyph-name="plusminus" unicode="&#xb1;" horiz-adv-x="700" 
d="M157 520h32v41h322v-41h32v-241h-32v-40h-322v40h-32v241zM614 0h-528v125h528v-125z" />
    <glyph glyph-name="uni00B2" unicode="&#xb2;" horiz-adv-x="492" 
d="M255 825q83 0 131 -34t48 -93q0 -26 -12 -48.5t-42.5 -48.5t-85.5 -62q-11 -7 -27 -17.5t-38 -23.5h213l-12 -92h-371v84q33 20 66.5 41.5t67.5 43.5q52 35 76.5 53.5t32.5 31t8 26.5q0 48 -62 48q-34 0 -53 -13.5t-27 -42.5l-115 11q32 136 202 136z" />
    <glyph glyph-name="uni00B3" unicode="&#xb3;" horiz-adv-x="492" 
d="M251 825q86 0 134.5 -30.5t48.5 -85.5q0 -58 -70 -87q81 -27 81 -99q0 -61 -51 -95.5t-143 -34.5q-94 0 -146.5 38.5t-54.5 108.5h113q5 -32 25.5 -46.5t58.5 -14.5q77 0 77 49q0 45 -70 45h-51v82h50q29 0 45.5 11.5t16.5 32.5q0 41 -69 41q-34 0 -52.5 -11.5
t-26.5 -37.5l-112 11q32 123 196 123z" />
    <glyph glyph-name="acute" unicode="&#xb4;" horiz-adv-x="729" 
d="M350 743h179l-182 -155h-145z" />
    <glyph glyph-name="mu" unicode="&#xb5;" horiz-adv-x="724" 
d="M73 522h166v-310q0 -99 101 -99q30 0 57 11t49 30q39 34 39 83v285h167v-522h-163v86q-68 -94 -170 -94q-51 0 -80 19v-205h-166v716z" />
    <glyph glyph-name="paragraph" unicode="&#xb6;" horiz-adv-x="807" 
d="M721 -139h-151v728h-118v-728h-151v387q-279 15 -279 229q0 124 84.5 180.5t267.5 56.5h347v-853z" />
    <glyph glyph-name="periodcentered" unicode="&#xb7;" horiz-adv-x="303" 
d="M69 460h165v-171h-165v171z" />
    <glyph glyph-name="cedilla" unicode="&#xb8;" horiz-adv-x="729" 
d="M315 17l77 -17l-18 -45q60 -6 87 -28t27 -58q0 -41 -38.5 -63.5t-111.5 -22.5q-34 0 -60.5 3t-42.5 9v70q22 -5 42 -7.5t38 -2.5q62 0 62 25q0 15 -17.5 21t-60.5 6h-32z" />
    <glyph glyph-name="uni00B9" unicode="&#xb9;" horiz-adv-x="492" 
d="M363 406h-126v283l-112 -68l-50 83l176 108h112v-406z" />
    <glyph glyph-name="ordmasculine" unicode="&#xba;" horiz-adv-x="561" 
d="M283 732q113 0 174.5 -53.5t61.5 -148.5q0 -96 -64.5 -151.5t-176.5 -55.5t-173.5 53t-61.5 149t64 151.5t176 55.5zM281 632q-52 0 -79.5 -27t-27.5 -78q0 -50 27.5 -77t78.5 -27q52 0 80 27t28 78q0 50 -28 77t-79 27z" />
    <glyph glyph-name="guillemotright" unicode="&#xbb;" horiz-adv-x="660" 
d="M40 482h163l162 -225l-162 -226h-161l148 224zM299 482h163l162 -225l-162 -226h-161l148 224z" />
    <glyph glyph-name="onequarter" unicode="&#xbc;" horiz-adv-x="1155" 
d="M718 691h152l-407 -691h-151zM933 406h123v-243h70l-11 -85h-59v-78h-110v78h-244v82zM946 307l-136 -144h136v144zM363 285h-126v283l-112 -68l-50 83l176 108h112v-406z" />
    <glyph glyph-name="onehalf" unicode="&#xbd;" horiz-adv-x="1155" 
d="M695 691h152l-407 -691h-151zM918 419q83 0 131 -34t48 -93q0 -26 -12 -48.5t-42.5 -48.5t-85.5 -62q-11 -7 -27 -17.5t-38 -23.5h213l-12 -92h-371v84q33 20 66.5 41.5t67.5 43.5q52 35 76.5 53.5t32.5 31t8 26.5q0 48 -62 48q-34 0 -53 -13.5t-27 -42.5l-115 11
q32 136 202 136zM363 285h-126v283l-112 -68l-50 83l176 108h112v-406z" />
    <glyph glyph-name="threequarters" unicode="&#xbe;" horiz-adv-x="1155" 
d="M733 691h152l-407 -691h-151zM933 406h123v-243h70l-11 -85h-59v-78h-110v78h-244v82zM946 307l-136 -144h136v144zM251 704q86 0 134.5 -30.5t48.5 -85.5q0 -58 -70 -87q81 -27 81 -99q0 -61 -51 -95.5t-143 -34.5q-94 0 -146.5 38.5t-54.5 108.5h113q5 -32 25.5 -46.5
t58.5 -14.5q77 0 77 49q0 45 -70 45h-51v82h50q29 0 45.5 11.5t16.5 32.5q0 41 -69 41q-34 0 -52.5 -11.5t-26.5 -37.5l-112 11q32 123 196 123z" />
    <glyph glyph-name="questiondown" unicode="&#xbf;" horiz-adv-x="648" 
d="M321 -204q-130 0 -203.5 50t-73.5 139q0 56 27.5 97.5t93.5 88.5q37 27 57 45.5t27.5 36t7.5 39.5v12h153v-16q0 -34 -10 -61.5t-33.5 -53t-65.5 -56.5q-36 -26 -55 -43.5t-25.5 -32t-6.5 -32.5q0 -79 115 -79q62 0 96.5 22.5t47.5 71.5l154 -16q-18 -104 -95 -158
t-211 -54zM416 522v-152h-164v152h164z" />
    <glyph glyph-name="Agrave" unicode="&#xc0;" horiz-adv-x="845" 
d="M341 714h162l336 -714h-183l-70 159h-336l-68 -159h-175zM534 289l-115 267l-115 -267h230zM169 926h221l153 -153h-183z" />
    <glyph glyph-name="Aacute" unicode="&#xc1;" horiz-adv-x="845" 
d="M341 714h162l336 -714h-183l-70 159h-336l-68 -159h-175zM534 289l-115 267l-115 -267h230zM468 919h188l-183 -146h-155z" />
    <glyph glyph-name="Acircumflex" unicode="&#xc2;" horiz-adv-x="845" 
d="M341 714h162l336 -714h-183l-70 159h-336l-68 -159h-175zM534 289l-115 267l-115 -267h230zM345 920h152l143 -147h-139l-80 77l-81 -77h-138z" />
    <glyph glyph-name="Atilde" unicode="&#xc3;" horiz-adv-x="845" 
d="M341 714h162l336 -714h-183l-70 159h-336l-68 -159h-175zM534 289l-115 267l-115 -267h230zM241 891q30 36 91 36q24 0 50.5 -9t60.5 -30q25 -14 38.5 -19.5t26.5 -5.5q20 0 26.5 14.5t6.5 46.5h97q0 -79 -30 -116t-91 -37q-24 0 -49 8.5t-60 28.5q-25 15 -39.5 21
t-27.5 6q-19 0 -26 -14.5t-7 -46.5h-97q0 81 30 117z" />
    <glyph glyph-name="Adieresis" unicode="&#xc4;" horiz-adv-x="845" 
d="M341 714h162l336 -714h-183l-70 159h-336l-68 -159h-175zM534 289l-115 267l-115 -267h230zM216 910h151v-127h-151v127zM475 910h151v-127h-151v127z" />
    <glyph glyph-name="Aring" unicode="&#xc5;" horiz-adv-x="845" 
d="M341 714h162l336 -714h-183l-70 159h-336l-68 -159h-175zM534 289l-115 267l-115 -267h230zM417 736q-64 0 -103.5 32.5t-39.5 86.5t39.5 86t103.5 32q65 0 104.5 -32.5t39.5 -86.5q0 -52 -39.5 -85t-104.5 -33zM475 855q0 26 -14.5 36.5t-43.5 10.5q-28 0 -42.5 -10.5
t-14.5 -37.5q0 -25 14.5 -35.5t42.5 -10.5q58 0 58 47z" />
    <glyph glyph-name="AE" unicode="&#xc6;" horiz-adv-x="1306" 
d="M517 714h723v-134h-404v-149h382v-133h-382v-164h427l-19 -134h-576v202h-323l-140 -202h-193zM668 335v245h-65l-169 -245h234z" />
    <glyph glyph-name="Ccedilla" unicode="&#xc7;" horiz-adv-x="868" 
d="M53 357q0 109 47 193.5t136.5 133t216.5 48.5q151 0 240.5 -61.5t121.5 -184.5l-165 -19q-23 68 -69.5 98t-127.5 30q-106 0 -166.5 -62.5t-60.5 -175.5t61 -175.5t170 -62.5q84 0 131 32.5t62 98.5h177q-16 -127 -112.5 -197.5t-260.5 -70.5q-129 0 -218.5 47.5
t-136 132t-46.5 195.5zM410 18l80 -18l-20 -47q118 -13 118 -90q0 -43 -40.5 -66t-114.5 -23q-34 0 -61 3.5t-46 8.5v71q49 -10 83 -10q64 0 64 27q0 17 -18 23t-65 6h-30z" />
    <glyph glyph-name="Egrave" unicode="&#xc8;" horiz-adv-x="758" 
d="M86 714h606v-134h-432v-149h411v-133h-411v-164h455l-19 -134h-610v714zM137 926h221l153 -153h-183z" />
    <glyph glyph-name="Eacute" unicode="&#xc9;" horiz-adv-x="758" 
d="M86 714h606v-134h-432v-149h411v-133h-411v-164h455l-19 -134h-610v714zM436 919h188l-183 -146h-155z" />
    <glyph glyph-name="Ecircumflex" unicode="&#xca;" horiz-adv-x="758" 
d="M86 714h606v-134h-432v-149h411v-133h-411v-164h455l-19 -134h-610v714zM313 920h152l143 -147h-139l-80 77l-81 -77h-138z" />
    <glyph glyph-name="Edieresis" unicode="&#xcb;" horiz-adv-x="758" 
d="M86 714h606v-134h-432v-149h411v-133h-411v-164h455l-19 -134h-610v714zM184 910h151v-127h-151v127zM443 910h151v-127h-151v127z" />
    <glyph glyph-name="Igrave" unicode="&#xcc;" horiz-adv-x="349" 
d="M86 714h176v-714h-176v714zM-77 926h221l153 -153h-183z" />
    <glyph glyph-name="Iacute" unicode="&#xcd;" horiz-adv-x="349" 
d="M86 714h176v-714h-176v714zM222 919h188l-183 -146h-155z" />
    <glyph glyph-name="Icircumflex" unicode="&#xce;" horiz-adv-x="349" 
d="M86 714h176v-714h-176v714zM99 920h152l143 -147h-139l-80 77l-81 -77h-138z" />
    <glyph glyph-name="Idieresis" unicode="&#xcf;" horiz-adv-x="349" 
d="M86 714h176v-714h-176v714zM-30 910h151v-127h-151v127zM229 910h151v-127h-151v127z" />
    <glyph glyph-name="Eth" unicode="&#xd0;" horiz-adv-x="923" 
d="M121 0v298h-101v131h101v285h325q209 0 317 -91t108 -266q0 -171 -113.5 -264t-325.5 -93h-311zM477 298h-186v-158h146q254 0 254 218q0 216 -242 216h-158v-145h186v-131z" />
    <glyph glyph-name="Ntilde" unicode="&#xd1;" horiz-adv-x="896" 
d="M86 714h159l397 -477v477h168v-714h-159l-397 478v-478h-168v714zM264 891q30 36 91 36q24 0 50.5 -9t60.5 -30q25 -14 38.5 -19.5t26.5 -5.5q20 0 26.5 14.5t6.5 46.5h97q0 -79 -30 -116t-91 -37q-24 0 -49 8.5t-60 28.5q-25 15 -39.5 21t-27.5 6q-19 0 -26 -14.5
t-7 -46.5h-97q0 81 30 117z" />
    <glyph glyph-name="Ograve" unicode="&#xd2;" horiz-adv-x="939" 
d="M52 357q0 116 51 200t145 129.5t223 45.5t222 -45.5t143.5 -129.5t50.5 -200t-51 -200t-145 -129.5t-223 -45.5q-128 0 -221.5 45.5t-144 129.5t-50.5 200zM704 357q0 110 -61.5 170t-172.5 60t-173 -60.5t-62 -169.5t61.5 -169.5t173.5 -60.5q110 0 172 60.5t62 169.5z
M218 926h221l153 -153h-183z" />
    <glyph glyph-name="Oacute" unicode="&#xd3;" horiz-adv-x="939" 
d="M52 357q0 116 51 200t145 129.5t223 45.5t222 -45.5t143.5 -129.5t50.5 -200t-51 -200t-145 -129.5t-223 -45.5q-128 0 -221.5 45.5t-144 129.5t-50.5 200zM704 357q0 110 -61.5 170t-172.5 60t-173 -60.5t-62 -169.5t61.5 -169.5t173.5 -60.5q110 0 172 60.5t62 169.5z
M517 919h188l-183 -146h-155z" />
    <glyph glyph-name="Ocircumflex" unicode="&#xd4;" horiz-adv-x="939" 
d="M52 357q0 116 51 200t145 129.5t223 45.5t222 -45.5t143.5 -129.5t50.5 -200t-51 -200t-145 -129.5t-223 -45.5q-128 0 -221.5 45.5t-144 129.5t-50.5 200zM704 357q0 110 -61.5 170t-172.5 60t-173 -60.5t-62 -169.5t61.5 -169.5t173.5 -60.5q110 0 172 60.5t62 169.5z
M394 920h152l143 -147h-139l-80 77l-81 -77h-138z" />
    <glyph glyph-name="Otilde" unicode="&#xd5;" horiz-adv-x="939" 
d="M52 357q0 116 51 200t145 129.5t223 45.5t222 -45.5t143.5 -129.5t50.5 -200t-51 -200t-145 -129.5t-223 -45.5q-128 0 -221.5 45.5t-144 129.5t-50.5 200zM704 357q0 110 -61.5 170t-172.5 60t-173 -60.5t-62 -169.5t61.5 -169.5t173.5 -60.5q110 0 172 60.5t62 169.5z
M290 891q30 36 91 36q24 0 50.5 -9t60.5 -30q25 -14 38.5 -19.5t26.5 -5.5q20 0 26.5 14.5t6.5 46.5h97q0 -79 -30 -116t-91 -37q-24 0 -49 8.5t-60 28.5q-25 15 -39.5 21t-27.5 6q-19 0 -26 -14.5t-7 -46.5h-97q0 81 30 117z" />
    <glyph glyph-name="Odieresis" unicode="&#xd6;" horiz-adv-x="939" 
d="M52 357q0 116 51 200t145 129.5t223 45.5t222 -45.5t143.5 -129.5t50.5 -200t-51 -200t-145 -129.5t-223 -45.5q-128 0 -221.5 45.5t-144 129.5t-50.5 200zM704 357q0 110 -61.5 170t-172.5 60t-173 -60.5t-62 -169.5t61.5 -169.5t173.5 -60.5q110 0 172 60.5t62 169.5z
M265 910h151v-127h-151v127zM524 910h151v-127h-151v127z" />
    <glyph glyph-name="multiply" unicode="&#xd7;" horiz-adv-x="700" 
d="M251 342l-157 156l98 97l158 -156l158 156l98 -97l-157 -156l157 -156l-98 -97l-158 156l-158 -156l-98 97z" />
    <glyph glyph-name="Oslash" unicode="&#xd8;" horiz-adv-x="939" 
d="M84.5 193q-32.5 72 -32.5 164q0 116 51 200t145 129.5t223 45.5q118 0 208 -39l67 82l78 -57l-61 -76q60 -48 92 -120.5t32 -164.5q0 -116 -51 -200t-145 -129.5t-223 -45.5q-118 0 -208 39l-67 -82l-78 57l61 76q-59 49 -91.5 121zM358 143q49 -19 112 -19
q113 0 176 60.5t63 172.5q0 99 -49 158zM230 357q0 -98 50 -158l301 372q-48 19 -111 19q-113 0 -176.5 -60.5t-63.5 -172.5z" />
    <glyph glyph-name="Ugrave" unicode="&#xd9;" horiz-adv-x="867" 
d="M254 292q0 -85 43.5 -125t136.5 -40q92 0 135.5 40t43.5 125v422h176v-410q0 -168 -91 -245t-264 -77q-174 0 -265 77t-91 245v410h176v-422zM182 926h221l153 -153h-183z" />
    <glyph glyph-name="Uacute" unicode="&#xda;" horiz-adv-x="867" 
d="M254 292q0 -85 43.5 -125t136.5 -40q92 0 135.5 40t43.5 125v422h176v-410q0 -168 -91 -245t-264 -77q-174 0 -265 77t-91 245v410h176v-422zM481 919h188l-183 -146h-155z" />
    <glyph glyph-name="Ucircumflex" unicode="&#xdb;" horiz-adv-x="867" 
d="M254 292q0 -85 43.5 -125t136.5 -40q92 0 135.5 40t43.5 125v422h176v-410q0 -168 -91 -245t-264 -77q-174 0 -265 77t-91 245v410h176v-422zM358 920h152l143 -147h-139l-80 77l-81 -77h-138z" />
    <glyph glyph-name="Udieresis" unicode="&#xdc;" horiz-adv-x="867" 
d="M254 292q0 -85 43.5 -125t136.5 -40q92 0 135.5 40t43.5 125v422h176v-410q0 -168 -91 -245t-264 -77q-174 0 -265 77t-91 245v410h176v-422zM229 910h151v-127h-151v127zM488 910h151v-127h-151v127z" />
    <glyph glyph-name="Yacute" unicode="&#xdd;" horiz-adv-x="801" 
d="M488 281v-281h-176v282l-300 432h195l196 -297l197 297h189zM450 919h188l-183 -146h-155z" />
    <glyph glyph-name="Thorn" unicode="&#xde;" horiz-adv-x="785" 
d="M86 714h172v-113h177q307 0 307 -238q0 -123 -79 -182t-240 -59h-165v-122h-172v714zM422 258q74 0 110 25t36 81q0 53 -35 77.5t-109 24.5h-166v-208h164z" />
    <glyph glyph-name="germandbls" unicode="&#xdf;" horiz-adv-x="752" 
d="M235 0h-164v484q0 113 76 175.5t215 62.5q134 0 208.5 -47.5t74.5 -133.5q0 -52 -26.5 -87.5t-83.5 -57.5q80 -18 125 -69.5t45 -122.5q0 -104 -72.5 -162t-201.5 -58q-36 0 -70 4.5t-65 11.5l20 119q19 -4 41.5 -7t44.5 -3q73 0 105.5 24t32.5 77q0 102 -170 102h-55
v120h43q125 0 125 89q0 38 -31.5 58.5t-90.5 20.5q-126 0 -126 -101v-499z" />
    <glyph glyph-name="agrave" unicode="&#xe0;" horiz-adv-x="687" 
d="M617 0h-145v69q-44 -43 -95.5 -63t-120.5 -20q-102 0 -158 41t-56 119q0 85 74 127t227 46l125 3v20q0 89 -120 89q-111 0 -133 -60l-141 12q32 155 280 155q263 0 263 -208v-330zM380.5 106.5q38.5 13.5 63 40t24.5 63.5v19l-114 -3q-82 -3 -119 -19t-37 -50
q0 -64 101 -64q43 0 81.5 13.5zM133 743h179l146 -155h-144z" />
    <glyph glyph-name="aacute" unicode="&#xe1;" horiz-adv-x="687" 
d="M617 0h-145v69q-44 -43 -95.5 -63t-120.5 -20q-102 0 -158 41t-56 119q0 85 74 127t227 46l125 3v20q0 89 -120 89q-111 0 -133 -60l-141 12q32 155 280 155q263 0 263 -208v-330zM380.5 106.5q38.5 13.5 63 40t24.5 63.5v19l-114 -3q-82 -3 -119 -19t-37 -50
q0 -64 101 -64q43 0 81.5 13.5zM399 743h179l-182 -155h-145z" />
    <glyph glyph-name="acircumflex" unicode="&#xe2;" horiz-adv-x="687" 
d="M617 0h-145v69q-44 -43 -95.5 -63t-120.5 -20q-102 0 -158 41t-56 119q0 85 74 127t227 46l125 3v20q0 89 -120 89q-111 0 -133 -60l-141 12q32 155 280 155q263 0 263 -208v-330zM380.5 106.5q38.5 13.5 63 40t24.5 63.5v19l-114 -3q-82 -3 -119 -19t-37 -50
q0 -64 101 -64q43 0 81.5 13.5zM281 745h147l148 -157h-134l-87 85l-87 -85h-134z" />
    <glyph glyph-name="atilde" unicode="&#xe3;" horiz-adv-x="687" 
d="M617 0h-145v69q-44 -43 -95.5 -63t-120.5 -20q-102 0 -158 41t-56 119q0 85 74 127t227 46l125 3v20q0 89 -120 89q-111 0 -133 -60l-141 12q32 155 280 155q263 0 263 -208v-330zM380.5 106.5q38.5 13.5 63 40t24.5 63.5v19l-114 -3q-82 -3 -119 -19t-37 -50
q0 -64 101 -64q43 0 81.5 13.5zM174.5 707q29.5 37 89.5 37q28 0 53 -9.5t57 -30.5q21 -15 33.5 -20t24.5 -5q21 0 29.5 15t8.5 46h95q0 -79 -30 -116t-89 -37q-28 0 -53 9t-57 31q-22 14 -34 19.5t-25 5.5q-38 0 -38 -62h-94q0 80 29.5 117z" />
    <glyph glyph-name="adieresis" unicode="&#xe4;" horiz-adv-x="687" 
d="M617 0h-145v69q-44 -43 -95.5 -63t-120.5 -20q-102 0 -158 41t-56 119q0 85 74 127t227 46l125 3v20q0 89 -120 89q-111 0 -133 -60l-141 12q32 155 280 155q263 0 263 -208v-330zM380.5 106.5q38.5 13.5 63 40t24.5 63.5v19l-114 -3q-82 -3 -119 -19t-37 -50
q0 -64 101 -64q43 0 81.5 13.5zM407 720h145v-116h-145v116zM159 720h143v-116h-143v116z" />
    <glyph glyph-name="aring" unicode="&#xe5;" horiz-adv-x="687" 
d="M617 0h-145v69q-44 -43 -95.5 -63t-120.5 -20q-102 0 -158 41t-56 119q0 85 74 127t227 46l125 3v20q0 89 -120 89q-111 0 -133 -60l-141 12q32 155 280 155q263 0 263 -208v-330zM380.5 106.5q38.5 13.5 63 40t24.5 63.5v19l-114 -3q-82 -3 -119 -19t-37 -50
q0 -64 101 -64q43 0 81.5 13.5zM355 580q-57 0 -97.5 29.5t-40.5 84.5q0 56 40 85t98 29t98.5 -29t40.5 -85q0 -55 -41 -84.5t-98 -29.5zM355 648q26 0 41 12t15 34q0 23 -15 34.5t-41 11.5t-41 -11.5t-15 -34.5q0 -22 15 -34t41 -12z" />
    <glyph glyph-name="ae" unicode="&#xe6;" horiz-adv-x="1095" 
d="M753 -16q-165 0 -235 104q-43 -54 -112 -78t-153 -24q-101 0 -157 41.5t-56 118.5q0 86 75 127.5t225 45.5l119 3v23q0 86 -114 86q-112 0 -132 -60l-142 12q17 80 86 117.5t195 37.5q82 0 129 -21.5t69 -54.5q78 76 207 76q139 0 214.5 -71t75.5 -198v-46h-441
q7 -68 46 -100.5t106 -32.5q109 0 135 69h147q-43 -175 -287 -175zM195 157q0 -34 25.5 -49t76.5 -15q44 0 81 14.5t59 41t22 61.5v18l-108 -2q-79 -2 -117.5 -18.5t-38.5 -50.5zM755 433q-71 0 -103.5 -33t-41.5 -80h288q-4 55 -40.5 84t-102.5 29z" />
    <glyph glyph-name="ccedilla" unicode="&#xe7;" horiz-adv-x="681" 
d="M47 258q0 87 38 150t108 96.5t166 33.5q84 0 141 -25t90 -67.5t44 -97.5l-157 -18q-21 84 -117 84q-69 0 -106 -39.5t-37 -113.5t37 -113t107 -39q109 0 124 86h158q-14 -96 -85 -153.5t-201 -57.5q-151 0 -230.5 73.5t-79.5 200.5zM308 17l77 -17l-18 -45q60 -6 87 -28
t27 -58q0 -41 -38.5 -63.5t-111.5 -22.5q-34 0 -60.5 3t-42.5 9v70q22 -5 42 -7.5t38 -2.5q62 0 62 25q0 15 -17.5 21t-60.5 6h-32z" />
    <glyph glyph-name="egrave" unicode="&#xe8;" horiz-adv-x="697" 
d="M349 -16q-142 0 -221.5 71.5t-79.5 199.5q0 86 38.5 149.5t107.5 98.5t160 35q141 0 217.5 -70.5t76.5 -198.5v-46h-448q7 -67 47 -100t108 -33q113 0 139 69h147q-41 -175 -292 -175zM205 320h293q-5 59 -39 86t-106 27q-73 0 -105.5 -32.5t-42.5 -80.5zM133 743h179
l146 -155h-144z" />
    <glyph glyph-name="eacute" unicode="&#xe9;" horiz-adv-x="697" 
d="M349 -16q-142 0 -221.5 71.5t-79.5 199.5q0 86 38.5 149.5t107.5 98.5t160 35q141 0 217.5 -70.5t76.5 -198.5v-46h-448q7 -67 47 -100t108 -33q113 0 139 69h147q-41 -175 -292 -175zM205 320h293q-5 59 -39 86t-106 27q-73 0 -105.5 -32.5t-42.5 -80.5zM399 743h179
l-182 -155h-145z" />
    <glyph glyph-name="ecircumflex" unicode="&#xea;" horiz-adv-x="697" 
d="M349 -16q-142 0 -221.5 71.5t-79.5 199.5q0 86 38.5 149.5t107.5 98.5t160 35q141 0 217.5 -70.5t76.5 -198.5v-46h-448q7 -67 47 -100t108 -33q113 0 139 69h147q-41 -175 -292 -175zM205 320h293q-5 59 -39 86t-106 27q-73 0 -105.5 -32.5t-42.5 -80.5zM281 745h147
l148 -157h-134l-87 85l-87 -85h-134z" />
    <glyph glyph-name="edieresis" unicode="&#xeb;" horiz-adv-x="697" 
d="M349 -16q-142 0 -221.5 71.5t-79.5 199.5q0 86 38.5 149.5t107.5 98.5t160 35q141 0 217.5 -70.5t76.5 -198.5v-46h-448q7 -67 47 -100t108 -33q113 0 139 69h147q-41 -175 -292 -175zM205 320h293q-5 59 -39 86t-106 27q-73 0 -105.5 -32.5t-42.5 -80.5zM407 720h145
v-116h-145v116zM159 720h143v-116h-143v116z" />
    <glyph glyph-name="igrave" unicode="&#xec;" horiz-adv-x="312" 
d="M73 522h166v-522h-166v522zM-66 743h179l146 -155h-144z" />
    <glyph glyph-name="iacute" unicode="&#xed;" horiz-adv-x="312" 
d="M73 522h166v-522h-166v522zM200 743h179l-182 -155h-145z" />
    <glyph glyph-name="icircumflex" unicode="&#xee;" horiz-adv-x="312" 
d="M73 522h166v-522h-166v522zM82 745h147l148 -157h-134l-87 85l-87 -85h-134z" />
    <glyph glyph-name="idieresis" unicode="&#xef;" horiz-adv-x="312" 
d="M73 522h166v-522h-166v522zM208 720h145v-116h-145v116zM-40 720h143v-116h-143v116z" />
    <glyph glyph-name="eth" unicode="&#xf0;" horiz-adv-x="724" 
d="M677 295q0 -85 -32.5 -155.5t-103 -113t-186.5 -42.5q-143 0 -225 66t-82 181q0 67 32 124.5t96 93t158 35.5q60 0 102.5 -14t79.5 -46q-16 63 -54.5 103.5t-93.5 64.5l-88 -77l-60 62l50 44q-27 5 -55.5 8.5t-59.5 5.5l14 108q57 -3 108.5 -10.5t96.5 -20.5l76 66
l60 -62l-47 -41q102 -54 158 -146.5t56 -233.5zM518 238q0 64 -41 97t-115 33q-54 0 -88 -18.5t-50 -49t-16 -66.5q0 -62 41 -98t114 -36q81 0 118 41t37 97z" />
    <glyph glyph-name="ntilde" unicode="&#xf1;" horiz-adv-x="729" 
d="M73 522h163v-80q43 48 95 72t117 24q102 0 157 -51.5t55 -147.5v-339h-166v308q0 53 -25.5 77.5t-81.5 24.5q-30 0 -59 -11t-50 -31q-39 -36 -39 -85v-283h-166v522zM188.5 707q29.5 37 89.5 37q28 0 53 -9.5t57 -30.5q21 -15 33.5 -20t24.5 -5q21 0 29.5 15t8.5 46h95
q0 -79 -30 -116t-89 -37q-28 0 -53 9t-57 31q-22 14 -34 19.5t-25 5.5q-38 0 -38 -62h-94q0 80 29.5 117z" />
    <glyph glyph-name="ograve" unicode="&#xf2;" horiz-adv-x="729" 
d="M47 259q0 87 39 149.5t111.5 96t170.5 33.5q149 0 231.5 -72t82.5 -203q0 -86 -39 -148.5t-111 -96.5t-171 -34q-148 0 -231 72.5t-83 202.5zM513 261q0 74 -38.5 113.5t-109.5 39.5t-109.5 -39.5t-38.5 -113.5q0 -73 38 -112.5t109 -39.5q72 0 110.5 39.5t38.5 112.5z
M143 743h179l146 -155h-144z" />
    <glyph glyph-name="oacute" unicode="&#xf3;" horiz-adv-x="729" 
d="M47 259q0 87 39 149.5t111.5 96t170.5 33.5q149 0 231.5 -72t82.5 -203q0 -86 -39 -148.5t-111 -96.5t-171 -34q-148 0 -231 72.5t-83 202.5zM513 261q0 74 -38.5 113.5t-109.5 39.5t-109.5 -39.5t-38.5 -113.5q0 -73 38 -112.5t109 -39.5q72 0 110.5 39.5t38.5 112.5z
M409 743h179l-182 -155h-145z" />
    <glyph glyph-name="ocircumflex" unicode="&#xf4;" horiz-adv-x="729" 
d="M47 259q0 87 39 149.5t111.5 96t170.5 33.5q149 0 231.5 -72t82.5 -203q0 -86 -39 -148.5t-111 -96.5t-171 -34q-148 0 -231 72.5t-83 202.5zM513 261q0 74 -38.5 113.5t-109.5 39.5t-109.5 -39.5t-38.5 -113.5q0 -73 38 -112.5t109 -39.5q72 0 110.5 39.5t38.5 112.5z
M291 745h147l148 -157h-134l-87 85l-87 -85h-134z" />
    <glyph glyph-name="otilde" unicode="&#xf5;" horiz-adv-x="729" 
d="M47 259q0 87 39 149.5t111.5 96t170.5 33.5q149 0 231.5 -72t82.5 -203q0 -86 -39 -148.5t-111 -96.5t-171 -34q-148 0 -231 72.5t-83 202.5zM513 261q0 74 -38.5 113.5t-109.5 39.5t-109.5 -39.5t-38.5 -113.5q0 -73 38 -112.5t109 -39.5q72 0 110.5 39.5t38.5 112.5z
M184.5 707q29.5 37 89.5 37q28 0 53 -9.5t57 -30.5q21 -15 33.5 -20t24.5 -5q21 0 29.5 15t8.5 46h95q0 -79 -30 -116t-89 -37q-28 0 -53 9t-57 31q-22 14 -34 19.5t-25 5.5q-38 0 -38 -62h-94q0 80 29.5 117z" />
    <glyph glyph-name="odieresis" unicode="&#xf6;" horiz-adv-x="729" 
d="M47 259q0 87 39 149.5t111.5 96t170.5 33.5q149 0 231.5 -72t82.5 -203q0 -86 -39 -148.5t-111 -96.5t-171 -34q-148 0 -231 72.5t-83 202.5zM513 261q0 74 -38.5 113.5t-109.5 39.5t-109.5 -39.5t-38.5 -113.5q0 -73 38 -112.5t109 -39.5q72 0 110.5 39.5t38.5 112.5z
M417 720h145v-116h-145v116zM169 720h143v-116h-143v116z" />
    <glyph glyph-name="divide" unicode="&#xf7;" horiz-adv-x="700" 
d="M68 272v137h564v-137h-564zM276 71v128h148v-128h-148zM276 482v127h148v-127h-148z" />
    <glyph glyph-name="oslash" unicode="&#xf8;" horiz-adv-x="729" 
d="M682 263q0 -86 -39 -148.5t-111 -96.5t-171 -34q-86 0 -151 25l-61 -73l-66 54l52 62q-88 73 -88 207q0 87 39 149.5t111.5 96t170.5 33.5q86 0 151 -25l61 73l66 -54l-52 -62q88 -73 88 -207zM246.5 380.5q-41.5 -41.5 -41.5 -119.5q0 -58 24 -96l205 246q-30 11 -69 11
q-77 0 -118.5 -41.5zM501 358l-206 -247q30 -11 69 -11q77 0 118.5 42t41.5 119q0 59 -23 97z" />
    <glyph glyph-name="ugrave" unicode="&#xf9;" horiz-adv-x="720" 
d="M648 0h-163v81q-41 -46 -92 -71.5t-118 -25.5q-97 0 -151.5 51.5t-54.5 145.5v341h166v-310q0 -100 101 -100q59 0 106 42q39 34 39 83v285h167v-522zM137 743h179l146 -155h-144z" />
    <glyph glyph-name="uacute" unicode="&#xfa;" horiz-adv-x="720" 
d="M648 0h-163v81q-41 -46 -92 -71.5t-118 -25.5q-97 0 -151.5 51.5t-54.5 145.5v341h166v-310q0 -100 101 -100q59 0 106 42q39 34 39 83v285h167v-522zM403 743h179l-182 -155h-145z" />
    <glyph glyph-name="ucircumflex" unicode="&#xfb;" horiz-adv-x="720" 
d="M648 0h-163v81q-41 -46 -92 -71.5t-118 -25.5q-97 0 -151.5 51.5t-54.5 145.5v341h166v-310q0 -100 101 -100q59 0 106 42q39 34 39 83v285h167v-522zM285 745h147l148 -157h-134l-87 85l-87 -85h-134z" />
    <glyph glyph-name="udieresis" unicode="&#xfc;" horiz-adv-x="720" 
d="M648 0h-163v81q-41 -46 -92 -71.5t-118 -25.5q-97 0 -151.5 51.5t-54.5 145.5v341h166v-310q0 -100 101 -100q59 0 106 42q39 34 39 83v285h167v-522zM411 720h145v-116h-145v116zM163 720h143v-116h-143v116z" />
    <glyph glyph-name="yacute" unicode="&#xfd;" horiz-adv-x="668" 
d="M393 -28q-33 -68 -63.5 -107t-67.5 -54.5t-90 -15.5q-35 0 -64 5t-62 17l24 113q19 -6 36.5 -8.5t36.5 -2.5q36 0 59 16t42 55l21 43l-257 489h181l155 -342l142 342h174zM382 743h179l-182 -155h-145z" />
    <glyph glyph-name="thorn" unicode="&#xfe;" horiz-adv-x="750" 
d="M73 714h166v-265q35 43 88.5 66t119.5 23q77 0 134 -34t89 -94.5t32 -142.5t-33 -146t-94 -100.5t-144 -36.5q-126 0 -192 83v-261h-166v908zM495.5 148.5q37.5 39.5 37.5 114.5q0 72 -37.5 111t-106.5 39q-66 0 -108.5 -39t-42.5 -98v-25q0 -63 39.5 -102.5t106.5 -39.5
q74 0 111.5 39.5z" />
    <glyph glyph-name="ydieresis" unicode="&#xff;" horiz-adv-x="668" 
d="M393 -28q-33 -68 -63.5 -107t-67.5 -54.5t-90 -15.5q-35 0 -64 5t-62 17l24 113q19 -6 36.5 -8.5t36.5 -2.5q36 0 59 16t42 55l21 43l-257 489h181l155 -342l142 342h174zM390 720h145v-116h-145v116zM142 720h143v-116h-143v116z" />
    <glyph glyph-name="Amacron" unicode="&#x100;" horiz-adv-x="845" 
d="M341 714h162l336 -714h-183l-70 159h-336l-68 -159h-175zM534 289l-115 267l-115 -267h230zM230 898h382v-110h-382v110z" />
    <glyph glyph-name="amacron" unicode="&#x101;" horiz-adv-x="687" 
d="M617 0h-145v69q-44 -43 -95.5 -63t-120.5 -20q-102 0 -158 41t-56 119q0 85 74 127t227 46l125 3v20q0 89 -120 89q-111 0 -133 -60l-141 12q32 155 280 155q263 0 263 -208v-330zM380.5 106.5q38.5 13.5 63 40t24.5 63.5v19l-114 -3q-82 -3 -119 -19t-37 -50
q0 -64 101 -64q43 0 81.5 13.5zM193 697h323v-75h-323v75z" />
    <glyph glyph-name="Abreve" unicode="&#x102;" horiz-adv-x="845" 
d="M341 714h162l336 -714h-183l-70 159h-336l-68 -159h-175zM534 289l-115 267l-115 -267h230zM228 922h115q0 -29 20.5 -46t57.5 -17t57.5 17t20.5 46h115q0 -76 -50 -113.5t-141 -37.5q-92 0 -143.5 38t-51.5 113z" />
    <glyph glyph-name="abreve" unicode="&#x103;" horiz-adv-x="687" 
d="M617 0h-145v69q-44 -43 -95.5 -63t-120.5 -20q-102 0 -158 41t-56 119q0 85 74 127t227 46l125 3v20q0 89 -120 89q-111 0 -133 -60l-141 12q32 155 280 155q263 0 263 -208v-330zM380.5 106.5q38.5 13.5 63 40t24.5 63.5v19l-114 -3q-82 -3 -119 -19t-37 -50
q0 -64 101 -64q43 0 81.5 13.5zM163 741h111q0 -31 21.5 -49.5t60.5 -18.5q38 0 59 18.5t21 49.5h112q0 -76 -50 -115.5t-141 -39.5t-142.5 40t-51.5 115z" />
    <glyph glyph-name="Aogonek" unicode="&#x104;" horiz-adv-x="845" 
d="M341 714h162l336 -714h-183l-70 159h-336l-68 -159h-175zM534 289l-115 267l-115 -267h230zM840 -197q-13 -3 -29.5 -4t-37.5 -1q-82 0 -116 24t-34 65q0 40 31.5 72t95.5 60l88 -19q-41 -19 -63.5 -39t-22.5 -41q0 -18 15 -25t39 -7q9 0 17.5 1.5t16.5 2.5v-89z" />
    <glyph glyph-name="aogonek" unicode="&#x105;" horiz-adv-x="687" 
d="M617 0h-145v69q-44 -43 -95.5 -63t-120.5 -20q-102 0 -158 41t-56 119q0 85 74 127t227 46l125 3v20q0 89 -120 89q-111 0 -133 -60l-141 12q32 155 280 155q263 0 263 -208v-330zM380.5 106.5q38.5 13.5 63 40t24.5 63.5v19l-114 -3q-82 -3 -119 -19t-37 -50
q0 -64 101 -64q43 0 81.5 13.5zM619 -190q-13 -3 -28.5 -5t-35.5 -2q-80 0 -113 24t-33 64q0 37 32 68t93 59l82 -18q-39 -20 -60.5 -38.5t-21.5 -39.5q0 -17 14.5 -23.5t36.5 -6.5q8 0 16 1t18 2v-85z" />
    <glyph glyph-name="Cacute" unicode="&#x106;" horiz-adv-x="868" 
d="M53 357q0 109 47 193.5t136.5 133t216.5 48.5q151 0 240.5 -61.5t121.5 -184.5l-165 -19q-23 68 -69.5 98t-127.5 30q-106 0 -166.5 -62.5t-60.5 -175.5t61 -175.5t170 -62.5q84 0 131 32.5t62 98.5h177q-16 -127 -112.5 -197.5t-260.5 -70.5q-129 0 -218.5 47.5
t-136 132t-46.5 195.5zM497 919h188l-183 -146h-155z" />
    <glyph glyph-name="cacute" unicode="&#x107;" horiz-adv-x="681" 
d="M47 258q0 87 38 150t108 96.5t166 33.5q84 0 141 -25t90 -67.5t44 -97.5l-157 -18q-21 84 -117 84q-69 0 -106 -39.5t-37 -113.5t37 -113t107 -39q109 0 124 86h158q-14 -96 -85 -153.5t-201 -57.5q-151 0 -230.5 73.5t-79.5 200.5zM397 743h179l-182 -155h-145z" />
    <glyph glyph-name="Ccircumflex" unicode="&#x108;" horiz-adv-x="868" 
d="M53 357q0 109 47 193.5t136.5 133t216.5 48.5q151 0 240.5 -61.5t121.5 -184.5l-165 -19q-23 68 -69.5 98t-127.5 30q-106 0 -166.5 -62.5t-60.5 -175.5t61 -175.5t170 -62.5q84 0 131 32.5t62 98.5h177q-16 -127 -112.5 -197.5t-260.5 -70.5q-129 0 -218.5 47.5
t-136 132t-46.5 195.5zM374 920h152l143 -147h-139l-80 77l-81 -77h-138z" />
    <glyph glyph-name="ccircumflex" unicode="&#x109;" horiz-adv-x="681" 
d="M47 258q0 87 38 150t108 96.5t166 33.5q84 0 141 -25t90 -67.5t44 -97.5l-157 -18q-21 84 -117 84q-69 0 -106 -39.5t-37 -113.5t37 -113t107 -39q109 0 124 86h158q-14 -96 -85 -153.5t-201 -57.5q-151 0 -230.5 73.5t-79.5 200.5zM279 745h147l148 -157h-134l-87 85
l-87 -85h-134z" />
    <glyph glyph-name="Cdotaccent" unicode="&#x10a;" horiz-adv-x="868" 
d="M53 357q0 109 47 193.5t136.5 133t216.5 48.5q151 0 240.5 -61.5t121.5 -184.5l-165 -19q-23 68 -69.5 98t-127.5 30q-106 0 -166.5 -62.5t-60.5 -175.5t61 -175.5t170 -62.5q84 0 131 32.5t62 98.5h177q-16 -127 -112.5 -197.5t-260.5 -70.5q-129 0 -218.5 47.5
t-136 132t-46.5 195.5zM365 911h170v-129h-170v129z" />
    <glyph glyph-name="cdotaccent" unicode="&#x10b;" horiz-adv-x="681" 
d="M47 258q0 87 38 150t108 96.5t166 33.5q84 0 141 -25t90 -67.5t44 -97.5l-157 -18q-21 84 -117 84q-69 0 -106 -39.5t-37 -113.5t37 -113t107 -39q109 0 124 86h158q-14 -96 -85 -153.5t-201 -57.5q-151 0 -230.5 73.5t-79.5 200.5zM273 726h160v-117h-160v117z" />
    <glyph glyph-name="Ccaron" unicode="&#x10c;" horiz-adv-x="868" 
d="M53 357q0 109 47 193.5t136.5 133t216.5 48.5q151 0 240.5 -61.5t121.5 -184.5l-165 -19q-23 68 -69.5 98t-127.5 30q-106 0 -166.5 -62.5t-60.5 -175.5t61 -175.5t170 -62.5q84 0 131 32.5t62 98.5h177q-16 -127 -112.5 -197.5t-260.5 -70.5q-129 0 -218.5 47.5
t-136 132t-46.5 195.5zM526 773h-152l-143 147h139l80 -77l81 77h138z" />
    <glyph glyph-name="ccaron" unicode="&#x10d;" horiz-adv-x="681" 
d="M47 258q0 87 38 150t108 96.5t166 33.5q84 0 141 -25t90 -67.5t44 -97.5l-157 -18q-21 84 -117 84q-69 0 -106 -39.5t-37 -113.5t37 -113t107 -39q109 0 124 86h158q-14 -96 -85 -153.5t-201 -57.5q-151 0 -230.5 73.5t-79.5 200.5zM426 588h-147l-147 157h135l86 -85
l88 85h133z" />
    <glyph glyph-name="Dcaron" unicode="&#x10e;" horiz-adv-x="889" 
d="M86 714h326q208 0 316 -91t108 -266q0 -171 -113.5 -264t-325.5 -93h-311v714zM402 142q254 0 254 216q0 214 -242 214h-154v-430h142zM499 773h-152l-143 147h139l80 -77l81 77h138z" />
    <glyph glyph-name="dcaron" unicode="&#x10f;" horiz-adv-x="750" 
d="M677 0h-163v77q-36 -46 -90 -69.5t-121 -23.5q-77 0 -134.5 34t-89.5 95t-32 142q0 83 33 146.5t94 100t145 36.5q125 0 192 -82v258h166v-714zM361 109q44 0 78 18t53.5 49.5t19.5 70.5v25q0 63 -39.5 102t-107.5 39q-73 0 -110.5 -39.5t-37.5 -114.5q0 -72 37 -111
t107 -39zM786 714h155l-69 -260h-123z" />
    <glyph glyph-name="Dcroat" unicode="&#x110;" horiz-adv-x="923" 
d="M121 0v298h-101v131h101v285h325q209 0 317 -91t108 -266q0 -171 -113.5 -264t-325.5 -93h-311zM477 298h-186v-158h146q254 0 254 218q0 216 -242 216h-158v-145h186v-131z" />
    <glyph glyph-name="dcroat" unicode="&#x111;" horiz-adv-x="769" 
d="M677 0h-163v75q-36 -45 -90 -68t-121 -23q-76 0 -134 32t-90 90t-32 135q0 68 30 128.5t90.5 99t151.5 38.5q125 0 192 -80v132h-196v92h196v63h166v-63h82v-92h-82v-559zM472 349.5q-40 35.5 -105 35.5q-56 0 -89 -19t-47 -51t-14 -71q0 -66 37 -101.5t107 -35.5
q42 0 76 15.5t54.5 44t20.5 66.5v21q0 60 -40 95.5z" />
    <glyph glyph-name="Emacron" unicode="&#x112;" horiz-adv-x="758" 
d="M86 714h606v-134h-432v-149h411v-133h-411v-164h455l-19 -134h-610v714zM198 898h382v-110h-382v110z" />
    <glyph glyph-name="emacron" unicode="&#x113;" horiz-adv-x="697" 
d="M349 -16q-142 0 -221.5 71.5t-79.5 199.5q0 86 38.5 149.5t107.5 98.5t160 35q141 0 217.5 -70.5t76.5 -198.5v-46h-448q7 -67 47 -100t108 -33q113 0 139 69h147q-41 -175 -292 -175zM205 320h293q-5 59 -39 86t-106 27q-73 0 -105.5 -32.5t-42.5 -80.5zM193 697h323
v-75h-323v75z" />
    <glyph glyph-name="Ebreve" unicode="&#x114;" horiz-adv-x="758" 
d="M86 714h606v-134h-432v-149h411v-133h-411v-164h455l-19 -134h-610v714zM196 922h115q0 -29 20.5 -46t57.5 -17t57.5 17t20.5 46h115q0 -76 -50 -113.5t-141 -37.5q-92 0 -143.5 38t-51.5 113z" />
    <glyph glyph-name="ebreve" unicode="&#x115;" horiz-adv-x="697" 
d="M349 -16q-142 0 -221.5 71.5t-79.5 199.5q0 86 38.5 149.5t107.5 98.5t160 35q141 0 217.5 -70.5t76.5 -198.5v-46h-448q7 -67 47 -100t108 -33q113 0 139 69h147q-41 -175 -292 -175zM205 320h293q-5 59 -39 86t-106 27q-73 0 -105.5 -32.5t-42.5 -80.5zM163 741h111
q0 -31 21.5 -49.5t60.5 -18.5q38 0 59 18.5t21 49.5h112q0 -76 -50 -115.5t-141 -39.5t-142.5 40t-51.5 115z" />
    <glyph glyph-name="Edotaccent" unicode="&#x116;" horiz-adv-x="758" 
d="M86 714h606v-134h-432v-149h411v-133h-411v-164h455l-19 -134h-610v714zM304 911h170v-129h-170v129z" />
    <glyph glyph-name="edotaccent" unicode="&#x117;" horiz-adv-x="697" 
d="M349 -16q-142 0 -221.5 71.5t-79.5 199.5q0 86 38.5 149.5t107.5 98.5t160 35q141 0 217.5 -70.5t76.5 -198.5v-46h-448q7 -67 47 -100t108 -33q113 0 139 69h147q-41 -175 -292 -175zM205 320h293q-5 59 -39 86t-106 27q-73 0 -105.5 -32.5t-42.5 -80.5zM275 726h160
v-117h-160v117z" />
    <glyph glyph-name="Eogonek" unicode="&#x118;" horiz-adv-x="758" 
d="M86 714h606v-134h-432v-149h411v-133h-411v-164h455l-19 -134h-610v714zM696 -197q-13 -3 -29.5 -4t-37.5 -1q-82 0 -116 24t-34 65q0 40 31.5 72t95.5 60l88 -19q-41 -19 -63.5 -39t-22.5 -41q0 -18 15 -25t39 -7q9 0 17.5 1.5t16.5 2.5v-89z" />
    <glyph glyph-name="eogonek" unicode="&#x119;" horiz-adv-x="697" 
d="M349 -16q-142 0 -221.5 71.5t-79.5 199.5q0 86 38.5 149.5t107.5 98.5t160 35q141 0 217.5 -70.5t76.5 -198.5v-46h-448q7 -67 47 -100t108 -33q113 0 139 69h147q-41 -175 -292 -175zM205 320h293q-5 59 -39 86t-106 27q-73 0 -105.5 -32.5t-42.5 -80.5zM498 -190
q-13 -3 -28.5 -5t-35.5 -2q-80 0 -113 24t-33 64q0 38 35.5 69.5t103.5 59.5l67 -15q-81 -41 -81 -81q0 -19 14.5 -25.5t37.5 -6.5q14 0 33 3v-85z" />
    <glyph glyph-name="Ecaron" unicode="&#x11a;" horiz-adv-x="758" 
d="M86 714h606v-134h-432v-149h411v-133h-411v-164h455l-19 -134h-610v714zM465 773h-152l-143 147h139l80 -77l81 77h138z" />
    <glyph glyph-name="ecaron" unicode="&#x11b;" horiz-adv-x="697" 
d="M349 -16q-142 0 -221.5 71.5t-79.5 199.5q0 86 38.5 149.5t107.5 98.5t160 35q141 0 217.5 -70.5t76.5 -198.5v-46h-448q7 -67 47 -100t108 -33q113 0 139 69h147q-41 -175 -292 -175zM205 320h293q-5 59 -39 86t-106 27q-73 0 -105.5 -32.5t-42.5 -80.5zM428 588h-147
l-147 157h135l86 -85l88 85h133z" />
    <glyph glyph-name="Gcircumflex" unicode="&#x11c;" horiz-adv-x="879" 
d="M826 88q-68 -50 -155.5 -78t-191.5 -28q-132 0 -227 44t-146 127t-51 199q0 122 51.5 206.5t144 129t213.5 44.5q100 0 170.5 -28t115 -78t63.5 -115l-167 -22q-19 54 -64 82t-125 28q-112 0 -171 -64.5t-59 -182.5q0 -115 62.5 -175.5t191.5 -60.5q54 0 103 10t89 28
v112h-191v129h344v-307zM392 920h152l143 -147h-139l-80 77l-81 -77h-138z" />
    <glyph glyph-name="gcircumflex" unicode="&#x11d;" horiz-adv-x="740" 
d="M677 83q0 -150 -74.5 -219t-232.5 -69q-139 0 -212 43.5t-86 132.5h161q11 -34 42.5 -49t93.5 -15q73 0 107.5 34.5t34.5 108.5v53q-71 -84 -208 -84q-76 0 -133.5 32t-90 90t-32.5 134t33.5 135.5t95 93.5t143.5 34q65 0 113 -20.5t83 -62.5v67h162v-439zM469 175
q43 35 43 94v15q0 61 -41 96t-106 35q-71 0 -109.5 -36t-38.5 -101t38 -101.5t106 -36.5q65 0 108 35zM306 745h147l148 -157h-134l-87 85l-87 -85h-134z" />
    <glyph glyph-name="Gbreve" unicode="&#x11e;" horiz-adv-x="879" 
d="M826 88q-68 -50 -155.5 -78t-191.5 -28q-132 0 -227 44t-146 127t-51 199q0 122 51.5 206.5t144 129t213.5 44.5q100 0 170.5 -28t115 -78t63.5 -115l-167 -22q-19 54 -64 82t-125 28q-112 0 -171 -64.5t-59 -182.5q0 -115 62.5 -175.5t191.5 -60.5q54 0 103 10t89 28
v112h-191v129h344v-307zM275 922h115q0 -29 20.5 -46t57.5 -17t57.5 17t20.5 46h115q0 -76 -50 -113.5t-141 -37.5q-92 0 -143.5 38t-51.5 113z" />
    <glyph glyph-name="gbreve" unicode="&#x11f;" horiz-adv-x="740" 
d="M677 83q0 -150 -74.5 -219t-232.5 -69q-139 0 -212 43.5t-86 132.5h161q11 -34 42.5 -49t93.5 -15q73 0 107.5 34.5t34.5 108.5v53q-71 -84 -208 -84q-76 0 -133.5 32t-90 90t-32.5 134t33.5 135.5t95 93.5t143.5 34q65 0 113 -20.5t83 -62.5v67h162v-439zM469 175
q43 35 43 94v15q0 61 -41 96t-106 35q-71 0 -109.5 -36t-38.5 -101t38 -101.5t106 -36.5q65 0 108 35zM188 741h111q0 -31 21.5 -49.5t60.5 -18.5q38 0 59 18.5t21 49.5h112q0 -76 -50 -115.5t-141 -39.5t-142.5 40t-51.5 115z" />
    <glyph glyph-name="Gdotaccent" unicode="&#x120;" horiz-adv-x="879" 
d="M826 88q-68 -50 -155.5 -78t-191.5 -28q-132 0 -227 44t-146 127t-51 199q0 122 51.5 206.5t144 129t213.5 44.5q100 0 170.5 -28t115 -78t63.5 -115l-167 -22q-19 54 -64 82t-125 28q-112 0 -171 -64.5t-59 -182.5q0 -115 62.5 -175.5t191.5 -60.5q54 0 103 10t89 28
v112h-191v129h344v-307zM383 911h170v-129h-170v129z" />
    <glyph glyph-name="gdotaccent" unicode="&#x121;" horiz-adv-x="740" 
d="M677 83q0 -150 -74.5 -219t-232.5 -69q-139 0 -212 43.5t-86 132.5h161q11 -34 42.5 -49t93.5 -15q73 0 107.5 34.5t34.5 108.5v53q-71 -84 -208 -84q-76 0 -133.5 32t-90 90t-32.5 134t33.5 135.5t95 93.5t143.5 34q65 0 113 -20.5t83 -62.5v67h162v-439zM469 175
q43 35 43 94v15q0 61 -41 96t-106 35q-71 0 -109.5 -36t-38.5 -101t38 -101.5t106 -36.5q65 0 108 35zM300 726h160v-117h-160v117z" />
    <glyph glyph-name="uni0122" unicode="&#x122;" horiz-adv-x="879" 
d="M826 88q-68 -50 -155.5 -78t-191.5 -28q-132 0 -227 44t-146 127t-51 199q0 122 51.5 206.5t144 129t213.5 44.5q100 0 170.5 -28t115 -78t63.5 -115l-167 -22q-19 54 -64 82t-125 28q-112 0 -171 -64.5t-59 -182.5q0 -115 62.5 -175.5t191.5 -60.5q54 0 103 10t89 28
v112h-191v129h344v-307zM400 -67h175l-131 -161h-144z" />
    <glyph glyph-name="uni0123" unicode="&#x123;" horiz-adv-x="740" 
d="M677 83q0 -150 -74.5 -219t-232.5 -69q-139 0 -212 43.5t-86 132.5h161q11 -34 42.5 -49t93.5 -15q73 0 107.5 34.5t34.5 108.5v53q-71 -84 -208 -84q-76 0 -133.5 32t-90 90t-32.5 134t33.5 135.5t95 93.5t143.5 34q65 0 113 -20.5t83 -62.5v67h162v-439zM469 175
q43 35 43 94v15q0 61 -41 96t-106 35q-71 0 -109.5 -36t-38.5 -101t38 -101.5t106 -36.5q65 0 108 35zM410 747h148l-96 -160h-180z" />
    <glyph glyph-name="Hcircumflex" unicode="&#x124;" horiz-adv-x="894" 
d="M86 714h176v-270h370v270h176v-714h-176v293h-370v-293h-176v714zM371 920h152l143 -147h-139l-80 77l-81 -77h-138z" />
    <glyph glyph-name="hcircumflex" unicode="&#x125;" horiz-adv-x="729" 
d="M73 714h166v-270q43 47 94 70.5t115 23.5q102 0 157 -51.5t55 -147.5v-339h-166v308q0 53 -25.5 77.5t-81.5 24.5q-30 0 -59 -11t-50 -31q-39 -36 -39 -85v-283h-166v714zM234 920h152l143 -147h-139l-80 77l-81 -77h-138z" />
    <glyph glyph-name="Hbar" unicode="&#x126;" horiz-adv-x="964" 
d="M121 514h-101v111h101v89h173v-89h376v89h173v-89h101v-111h-101v-514h-173v270h-376v-270h-173v514zM670 417v97h-376v-97h376z" />
    <glyph glyph-name="hbar" unicode="&#x127;" horiz-adv-x="748" 
d="M92 559h-82v92h82v63h166v-63h196v-92h-196v-146q40 45 92 69.5t117 24.5q102 0 157 -51.5t55 -147.5v-308h-166v277q0 53 -25.5 77.5t-81.5 24.5q-30 0 -58.5 -11t-50.5 -31q-39 -37 -39 -85v-252h-166v559z" />
    <glyph glyph-name="Itilde" unicode="&#x128;" horiz-adv-x="349" 
d="M86 714h176v-714h-176v714zM-5 891q30 36 91 36q24 0 50.5 -9t60.5 -30q25 -14 38.5 -19.5t26.5 -5.5q20 0 26.5 14.5t6.5 46.5h97q0 -79 -30 -116t-91 -37q-24 0 -49 8.5t-60 28.5q-25 15 -39.5 21t-27.5 6q-19 0 -26 -14.5t-7 -46.5h-97q0 81 30 117z" />
    <glyph glyph-name="itilde" unicode="&#x129;" horiz-adv-x="312" 
d="M73 522h166v-522h-166v522zM-24.5 707q29.5 37 89.5 37q28 0 53 -9.5t57 -30.5q21 -15 33.5 -20t24.5 -5q21 0 29.5 15t8.5 46h95q0 -79 -30 -116t-89 -37q-28 0 -53 9t-57 31q-22 14 -34 19.5t-25 5.5q-38 0 -38 -62h-94q0 80 29.5 117z" />
    <glyph glyph-name="Imacron" unicode="&#x12a;" horiz-adv-x="349" 
d="M86 714h176v-714h-176v714zM-16 898h382v-110h-382v110z" />
    <glyph glyph-name="imacron" unicode="&#x12b;" horiz-adv-x="312" 
d="M73 522h166v-522h-166v522zM-6 697h323v-75h-323v75z" />
    <glyph glyph-name="Ibreve" unicode="&#x12c;" horiz-adv-x="349" 
d="M86 714h176v-714h-176v714zM-18 922h115q0 -29 20.5 -46t57.5 -17t57.5 17t20.5 46h115q0 -76 -50 -113.5t-141 -37.5q-92 0 -143.5 38t-51.5 113z" />
    <glyph glyph-name="ibreve" unicode="&#x12d;" horiz-adv-x="312" 
d="M73 522h166v-522h-166v522zM-36 741h111q0 -31 21.5 -49.5t60.5 -18.5q38 0 59 18.5t21 49.5h112q0 -76 -50 -115.5t-141 -39.5t-142.5 40t-51.5 115z" />
    <glyph glyph-name="Iogonek" unicode="&#x12e;" horiz-adv-x="349" 
d="M86 714h176v-714h-176v714zM263 -197q-13 -3 -29.5 -4t-37.5 -1q-82 0 -116 24t-34 65q0 40 31.5 72t95.5 60l88 -19q-41 -19 -63.5 -39t-22.5 -41q0 -18 15 -25t39 -7q9 0 17.5 1.5t16.5 2.5v-89z" />
    <glyph glyph-name="iogonek" unicode="&#x12f;" horiz-adv-x="312" 
d="M73 522h166v-522h-166v522zM76 726h160v-117h-160v117zM239 -190q-13 -3 -28.5 -5t-35.5 -2q-80 0 -113 24t-33 64q0 37 32 68t93 59l82 -18q-39 -20 -60.5 -38.5t-21.5 -39.5q0 -17 14.5 -23.5t36.5 -6.5q8 0 16 1t18 2v-85z" />
    <glyph glyph-name="Idotaccent" unicode="&#x130;" horiz-adv-x="349" 
d="M86 714h176v-714h-176v714zM90 911h170v-129h-170v129z" />
    <glyph glyph-name="dotlessi" unicode="&#x131;" horiz-adv-x="312" 
d="M73 522h166v-522h-166v522z" />
    <glyph glyph-name="IJ" unicode="&#x132;" horiz-adv-x="1112" 
d="M86 714h176v-714h-176v714zM857 714h177v-434q0 -147 -83 -222.5t-244 -75.5q-153 0 -237.5 68.5t-95.5 200.5h177q9 -63 47 -93.5t108 -30.5q77 0 114 36t37 111v440z" />
    <glyph glyph-name="ij" unicode="&#x133;" horiz-adv-x="624" 
d="M73 522h166v-522h-166v522zM76 726h160v-117h-160v117zM385 522h166v-534q0 -101 -44.5 -147t-142.5 -46q-71 0 -136 19l24 111q22 -4 39 -6t31 -2q35 0 49 14.5t14 51.5v539zM388 726h160v-117h-160v117z" />
    <glyph glyph-name="Jcircumflex" unicode="&#x134;" horiz-adv-x="763" 
d="M508 714h177v-434q0 -147 -83 -222.5t-244 -75.5q-153 0 -237.5 68.5t-95.5 200.5h177q9 -63 47 -93.5t108 -30.5q77 0 114 36t37 111v440zM521 920h152l143 -147h-139l-80 77l-81 -77h-138z" />
    <glyph glyph-name="jcircumflex" unicode="&#x135;" horiz-adv-x="312" 
d="M73 522h166v-534q0 -101 -44.5 -147t-142.5 -46q-71 0 -136 19l24 111q22 -4 39 -6t31 -2q35 0 49 14.5t14 51.5v539zM82 745h147l148 -157h-134l-87 85l-87 -85h-134z" />
    <glyph glyph-name="uni0136" unicode="&#x136;" horiz-adv-x="850" 
d="M86 714h176v-304l341 304h204l-302 -273l331 -441h-204l-249 333l-121 -103v-230h-176v714zM374 -67h175l-131 -161h-144z" />
    <glyph glyph-name="uni0137" unicode="&#x137;" horiz-adv-x="702" 
d="M73 714h166v-369l231 177h206l-225 -171l248 -351h-184l-180 265l-96 -72v-193h-166v714zM302 -67h170l-128 -158h-139z" />
    <glyph glyph-name="kgreenlandic" unicode="&#x138;" horiz-adv-x="702" 
d="M73 522h166v-198l238 198h199l-227 -184l250 -338h-186l-176 249l-98 -80v-169h-166v522z" />
    <glyph glyph-name="Lacute" unicode="&#x139;" horiz-adv-x="714" 
d="M86 714h176v-569h428l-21 -145h-583v714zM222 919h188l-183 -146h-155z" />
    <glyph glyph-name="lacute" unicode="&#x13a;" horiz-adv-x="312" 
d="M73 714h166v-714h-166v714zM203 919h188l-183 -146h-155z" />
    <glyph glyph-name="uni013B" unicode="&#x13b;" horiz-adv-x="714" 
d="M86 714h176v-569h428l-21 -145h-583v714zM307 -67h175l-131 -161h-144z" />
    <glyph glyph-name="uni013C" unicode="&#x13c;" horiz-adv-x="312" 
d="M73 714h166v-714h-166v714zM75 -67h170l-128 -158h-139z" />
    <glyph glyph-name="Lcaron" unicode="&#x13d;" horiz-adv-x="714" 
d="M86 714h176v-569h428l-21 -145h-583v714zM461 714h155l-69 -260h-123z" />
    <glyph glyph-name="lcaron" unicode="&#x13e;" horiz-adv-x="312" 
d="M73 714h166v-714h-166v714zM348 714h155l-69 -260h-123z" />
    <glyph glyph-name="Ldot" unicode="&#x13f;" horiz-adv-x="714" 
d="M86 714h176v-569h428l-21 -145h-583v714zM472 506h165v-171h-165v171z" />
    <glyph glyph-name="ldot" unicode="&#x140;" horiz-adv-x="517" 
d="M73 714h166v-714h-166v714zM332 449h165v-171h-165v171z" />
    <glyph glyph-name="Lslash" unicode="&#x141;" horiz-adv-x="749" 
d="M121 714h176v-261l223 119v-144l-223 -119v-164h427l-20 -145h-583v222l-101 -53v144l101 53v348z" />
    <glyph glyph-name="lslash" unicode="&#x142;" horiz-adv-x="420" 
d="M293 0h-166v285l-114 -57v129l114 57v300h166v-221l114 56v-128l-114 -57v-364z" />
    <glyph glyph-name="Nacute" unicode="&#x143;" horiz-adv-x="896" 
d="M86 714h159l397 -477v477h168v-714h-159l-397 478v-478h-168v714zM491 919h188l-183 -146h-155z" />
    <glyph glyph-name="nacute" unicode="&#x144;" horiz-adv-x="729" 
d="M73 522h163v-80q43 48 95 72t117 24q102 0 157 -51.5t55 -147.5v-339h-166v308q0 53 -25.5 77.5t-81.5 24.5q-30 0 -59 -11t-50 -31q-39 -36 -39 -85v-283h-166v522zM413 743h179l-182 -155h-145z" />
    <glyph glyph-name="uni0145" unicode="&#x145;" horiz-adv-x="896" 
d="M86 714h159l397 -477v477h168v-714h-159l-397 478v-478h-168v714zM377 -67h175l-131 -161h-144z" />
    <glyph glyph-name="uni0146" unicode="&#x146;" horiz-adv-x="729" 
d="M73 522h163v-80q43 48 95 72t117 24q102 0 157 -51.5t55 -147.5v-339h-166v308q0 53 -25.5 77.5t-81.5 24.5q-30 0 -59 -11t-50 -31q-39 -36 -39 -85v-283h-166v522zM285 -67h170l-128 -158h-139z" />
    <glyph glyph-name="Ncaron" unicode="&#x147;" horiz-adv-x="896" 
d="M86 714h159l397 -477v477h168v-714h-159l-397 478v-478h-168v714zM520 773h-152l-143 147h139l80 -77l81 77h138z" />
    <glyph glyph-name="ncaron" unicode="&#x148;" horiz-adv-x="729" 
d="M73 522h163v-80q43 48 95 72t117 24q102 0 157 -51.5t55 -147.5v-339h-166v308q0 53 -25.5 77.5t-81.5 24.5q-30 0 -59 -11t-50 -31q-39 -36 -39 -85v-283h-166v522zM442 588h-147l-147 157h135l86 -85l88 85h133z" />
    <glyph glyph-name="napostrophe" unicode="&#x149;" horiz-adv-x="896" 
d="M240 522h163v-80q43 48 95 72t117 24q102 0 157 -51.5t55 -147.5v-339h-166v308q0 53 -25.5 77.5t-81.5 24.5q-30 0 -59 -11t-50 -31q-39 -36 -39 -85v-283h-166v522zM63 714h166l-77 -272h-133z" />
    <glyph glyph-name="Eng" unicode="&#x14a;" horiz-adv-x="896" 
d="M86 714h159l397 -475v475h168v-681q0 -121 -69 -179.5t-211 -58.5q-111 0 -187 26l34 126q27 -8 60 -13t67 -5q129 0 138 89l-388 459v-477h-168v714z" />
    <glyph glyph-name="eng" unicode="&#x14b;" horiz-adv-x="729" 
d="M73 522h163v-80q43 48 95 72t117 24q102 0 157 -51.5t55 -147.5v-351q0 -99 -43.5 -146t-143.5 -47q-71 0 -136 19l24 111q19 -4 37 -6t34 -2q36 0 49 16t13 50v325q0 53 -25.5 77.5t-81.5 24.5q-30 0 -59 -11t-50 -31q-18 -18 -28.5 -39.5t-10.5 -45.5v-283h-166v522z
" />
    <glyph glyph-name="Omacron" unicode="&#x14c;" horiz-adv-x="939" 
d="M52 357q0 116 51 200t145 129.5t223 45.5t222 -45.5t143.5 -129.5t50.5 -200t-51 -200t-145 -129.5t-223 -45.5q-128 0 -221.5 45.5t-144 129.5t-50.5 200zM704 357q0 110 -61.5 170t-172.5 60t-173 -60.5t-62 -169.5t61.5 -169.5t173.5 -60.5q110 0 172 60.5t62 169.5z
M279 898h382v-110h-382v110z" />
    <glyph glyph-name="omacron" unicode="&#x14d;" horiz-adv-x="729" 
d="M47 259q0 87 39 149.5t111.5 96t170.5 33.5q149 0 231.5 -72t82.5 -203q0 -86 -39 -148.5t-111 -96.5t-171 -34q-148 0 -231 72.5t-83 202.5zM513 261q0 74 -38.5 113.5t-109.5 39.5t-109.5 -39.5t-38.5 -113.5q0 -73 38 -112.5t109 -39.5q72 0 110.5 39.5t38.5 112.5z
M203 697h323v-75h-323v75z" />
    <glyph glyph-name="Obreve" unicode="&#x14e;" horiz-adv-x="939" 
d="M52 357q0 116 51 200t145 129.5t223 45.5t222 -45.5t143.5 -129.5t50.5 -200t-51 -200t-145 -129.5t-223 -45.5q-128 0 -221.5 45.5t-144 129.5t-50.5 200zM704 357q0 110 -61.5 170t-172.5 60t-173 -60.5t-62 -169.5t61.5 -169.5t173.5 -60.5q110 0 172 60.5t62 169.5z
M277 922h115q0 -29 20.5 -46t57.5 -17t57.5 17t20.5 46h115q0 -76 -50 -113.5t-141 -37.5q-92 0 -143.5 38t-51.5 113z" />
    <glyph glyph-name="obreve" unicode="&#x14f;" horiz-adv-x="729" 
d="M47 259q0 87 39 149.5t111.5 96t170.5 33.5q149 0 231.5 -72t82.5 -203q0 -86 -39 -148.5t-111 -96.5t-171 -34q-148 0 -231 72.5t-83 202.5zM513 261q0 74 -38.5 113.5t-109.5 39.5t-109.5 -39.5t-38.5 -113.5q0 -73 38 -112.5t109 -39.5q72 0 110.5 39.5t38.5 112.5z
M173 741h111q0 -31 21.5 -49.5t60.5 -18.5q38 0 59 18.5t21 49.5h112q0 -76 -50 -115.5t-141 -39.5t-142.5 40t-51.5 115z" />
    <glyph glyph-name="Ohungarumlaut" unicode="&#x150;" horiz-adv-x="939" 
d="M52 357q0 116 51 200t145 129.5t223 45.5t222 -45.5t143.5 -129.5t50.5 -200t-51 -200t-145 -129.5t-223 -45.5q-128 0 -221.5 45.5t-144 129.5t-50.5 200zM704 357q0 110 -61.5 170t-172.5 60t-173 -60.5t-62 -169.5t61.5 -169.5t173.5 -60.5q110 0 172 60.5t62 169.5z
M396 923h171l-168 -150h-139zM648 923h170l-167 -150h-139z" />
    <glyph glyph-name="ohungarumlaut" unicode="&#x151;" horiz-adv-x="729" 
d="M47 259q0 87 39 149.5t111.5 96t170.5 33.5q149 0 231.5 -72t82.5 -203q0 -86 -39 -148.5t-111 -96.5t-171 -34q-148 0 -231 72.5t-83 202.5zM513 261q0 74 -38.5 113.5t-109.5 39.5t-109.5 -39.5t-38.5 -113.5q0 -73 38 -112.5t109 -39.5q72 0 110.5 39.5t38.5 112.5z
M540 747h165l-163 -160h-134zM298 747h164l-162 -160h-134z" />
    <glyph glyph-name="OE" unicode="&#x152;" horiz-adv-x="1316" 
d="M52 357q0 73 22.5 140t69.5 120t118.5 84t169.5 31q158 0 248 -94v76h570v-134h-404v-149h382v-133h-382v-164h427l-19 -134h-574v78q-90 -96 -248 -96q-114 0 -199.5 45.5t-133 129.5t-47.5 200zM680 357q0 113 -58.5 171.5t-161.5 58.5q-62 0 -105 -19.5t-69.5 -53
t-38.5 -74.5t-12 -83q0 -109 59 -169.5t166 -60.5q103 0 161.5 58.5t58.5 171.5z" />
    <glyph glyph-name="oe" unicode="&#x153;" horiz-adv-x="1151" 
d="M814 538q138 0 213.5 -71t75.5 -198v-46h-440q7 -68 46 -100.5t106 -32.5q109 0 135 69h147q-21 -85 -93 -130t-194 -45q-150 0 -223 91q-38 -44 -95.5 -67.5t-130.5 -23.5q-148 0 -230.5 72.5t-82.5 202.5q0 86 39 148.5t111 96.5t170 34q74 0 131 -24t94 -70
q37 46 93 70t128 24zM209 261q0 -76 39.5 -117.5t114.5 -41.5q72 0 111 41.5t39 116.5q0 77 -39 118t-110 41q-75 0 -115 -41t-40 -117zM812 433q-71 0 -103.5 -33t-41.5 -80h288q-8 113 -143 113z" />
    <glyph glyph-name="Racute" unicode="&#x154;" horiz-adv-x="800" 
d="M88 714h350q155 0 229 -58t74 -169q0 -74 -33 -121t-97 -73l176 -293h-183l-151 259h-13.5h-18.5h-171v-259h-162v714zM428 388q76 0 111.5 23.5t35.5 75.5q0 53 -33.5 75.5t-112.5 22.5h-179v-197h178zM439 919h188l-183 -146h-155z" />
    <glyph glyph-name="racute" unicode="&#x155;" horiz-adv-x="502" 
d="M73 522h163v-82q75 91 187 91q14 0 29 -1.5t31 -3.5l-19 -132q-35 5 -61 5q-76 0 -121 -38q-43 -37 -43 -87v-274h-166v522zM333 743h179l-182 -155h-145z" />
    <glyph glyph-name="uni0156" unicode="&#x156;" horiz-adv-x="800" 
d="M88 714h350q155 0 229 -58t74 -169q0 -74 -33 -121t-97 -73l176 -293h-183l-151 259h-13.5h-18.5h-171v-259h-162v714zM428 388q76 0 111.5 23.5t35.5 75.5q0 53 -33.5 75.5t-112.5 22.5h-179v-197h178zM340 -67h175l-131 -161h-144z" />
    <glyph glyph-name="uni0157" unicode="&#x157;" horiz-adv-x="502" 
d="M73 522h163v-82q75 91 187 91q14 0 29 -1.5t31 -3.5l-19 -132q-35 5 -61 5q-76 0 -121 -38q-43 -37 -43 -87v-274h-166v522zM75 -67h170l-128 -158h-139z" />
    <glyph glyph-name="Rcaron" unicode="&#x158;" horiz-adv-x="800" 
d="M88 714h350q155 0 229 -58t74 -169q0 -74 -33 -121t-97 -73l176 -293h-183l-151 259h-13.5h-18.5h-171v-259h-162v714zM428 388q76 0 111.5 23.5t35.5 75.5q0 53 -33.5 75.5t-112.5 22.5h-179v-197h178zM468 773h-152l-143 147h139l80 -77l81 77h138z" />
    <glyph glyph-name="rcaron" unicode="&#x159;" horiz-adv-x="502" 
d="M73 522h163v-82q75 91 187 91q14 0 29 -1.5t31 -3.5l-19 -132q-35 5 -61 5q-76 0 -121 -38q-43 -37 -43 -87v-274h-166v522zM362 588h-147l-147 157h135l86 -85l88 85h133z" />
    <glyph glyph-name="Sacute" unicode="&#x15a;" horiz-adv-x="772" 
d="M30 238h169q10 -67 58.5 -96.5t132.5 -29.5q85 0 130.5 22t45.5 62q0 32 -27 54.5t-86 32.5l-126 20q-142 22 -211.5 73t-69.5 141q0 104 92 159.5t251 55.5q152 0 229.5 -55.5t98.5 -161.5l-157 -19q-18 56 -58 82t-120 26q-38 0 -76.5 -5t-64 -21t-25.5 -50
q0 -32 26.5 -52.5t95.5 -31.5l149 -23q122 -19 186 -72t64 -146q0 -109 -87 -165t-255 -56q-162 0 -258 60t-107 196zM434 919h188l-183 -146h-155z" />
    <glyph glyph-name="sacute" unicode="&#x15b;" horiz-adv-x="653" 
d="M340 -16q-79 0 -143 16.5t-104.5 54.5t-49.5 104h149q11 -37 48 -54t97 -17q126 0 126 59q0 22 -23 34.5t-88 22.5l-64 9q-123 19 -176 56t-53 110q0 75 71 117t196 42q88 0 144.5 -18t87.5 -51.5t44 -81.5l-144 -14q-11 32 -43 47t-89 15q-59 0 -89.5 -15t-30.5 -39
q0 -22 22.5 -34t84.5 -22l70 -10q87 -12 137.5 -31.5t72 -51.5t21.5 -81q0 -82 -68 -124.5t-206 -42.5zM366 743h179l-182 -155h-145z" />
    <glyph glyph-name="Scircumflex" unicode="&#x15c;" horiz-adv-x="772" 
d="M30 238h169q10 -67 58.5 -96.5t132.5 -29.5q85 0 130.5 22t45.5 62q0 32 -27 54.5t-86 32.5l-126 20q-142 22 -211.5 73t-69.5 141q0 104 92 159.5t251 55.5q152 0 229.5 -55.5t98.5 -161.5l-157 -19q-18 56 -58 82t-120 26q-38 0 -76.5 -5t-64 -21t-25.5 -50
q0 -32 26.5 -52.5t95.5 -31.5l149 -23q122 -19 186 -72t64 -146q0 -109 -87 -165t-255 -56q-162 0 -258 60t-107 196zM311 920h152l143 -147h-139l-80 77l-81 -77h-138z" />
    <glyph glyph-name="scircumflex" unicode="&#x15d;" horiz-adv-x="653" 
d="M340 -16q-79 0 -143 16.5t-104.5 54.5t-49.5 104h149q11 -37 48 -54t97 -17q126 0 126 59q0 22 -23 34.5t-88 22.5l-64 9q-123 19 -176 56t-53 110q0 75 71 117t196 42q88 0 144.5 -18t87.5 -51.5t44 -81.5l-144 -14q-11 32 -43 47t-89 15q-59 0 -89.5 -15t-30.5 -39
q0 -22 22.5 -34t84.5 -22l70 -10q87 -12 137.5 -31.5t72 -51.5t21.5 -81q0 -82 -68 -124.5t-206 -42.5zM248 745h147l148 -157h-134l-87 85l-87 -85h-134z" />
    <glyph glyph-name="Scedilla" unicode="&#x15e;" horiz-adv-x="772" 
d="M30 238h169q10 -67 58.5 -96.5t132.5 -29.5q85 0 130.5 22t45.5 62q0 32 -27 54.5t-86 32.5l-126 20q-142 22 -211.5 73t-69.5 141q0 104 92 159.5t251 55.5q152 0 229.5 -55.5t98.5 -161.5l-157 -19q-18 56 -58 82t-120 26q-38 0 -76.5 -5t-64 -21t-25.5 -50
q0 -32 26.5 -52.5t95.5 -31.5l149 -23q122 -19 186 -72t64 -146q0 -109 -87 -165t-255 -56q-162 0 -258 60t-107 196zM352 18l80 -18l-20 -47q118 -13 118 -90q0 -43 -40.5 -66t-114.5 -23q-34 0 -61 3.5t-46 8.5v71q49 -10 83 -10q64 0 64 27q0 17 -18 23t-65 6h-30z" />
    <glyph glyph-name="scedilla" unicode="&#x15f;" horiz-adv-x="653" 
d="M340 -16q-79 0 -143 16.5t-104.5 54.5t-49.5 104h149q11 -37 48 -54t97 -17q126 0 126 59q0 22 -23 34.5t-88 22.5l-64 9q-123 19 -176 56t-53 110q0 75 71 117t196 42q88 0 144.5 -18t87.5 -51.5t44 -81.5l-144 -14q-11 32 -43 47t-89 15q-59 0 -89.5 -15t-30.5 -39
q0 -22 22.5 -34t84.5 -22l70 -10q87 -12 137.5 -31.5t72 -51.5t21.5 -81q0 -82 -68 -124.5t-206 -42.5zM291 17l77 -17l-18 -45q60 -6 87 -28t27 -58q0 -41 -38.5 -63.5t-111.5 -22.5q-34 0 -60.5 3t-42.5 9v70q22 -5 42 -7.5t38 -2.5q62 0 62 25q0 15 -17.5 21t-60.5 6h-32
z" />
    <glyph glyph-name="Scaron" unicode="&#x160;" horiz-adv-x="772" 
d="M30 238h169q10 -67 58.5 -96.5t132.5 -29.5q85 0 130.5 22t45.5 62q0 32 -27 54.5t-86 32.5l-126 20q-142 22 -211.5 73t-69.5 141q0 104 92 159.5t251 55.5q152 0 229.5 -55.5t98.5 -161.5l-157 -19q-18 56 -58 82t-120 26q-38 0 -76.5 -5t-64 -21t-25.5 -50
q0 -32 26.5 -52.5t95.5 -31.5l149 -23q122 -19 186 -72t64 -146q0 -109 -87 -165t-255 -56q-162 0 -258 60t-107 196zM463 773h-152l-143 147h139l80 -77l81 77h138z" />
    <glyph glyph-name="scaron" unicode="&#x161;" horiz-adv-x="653" 
d="M340 -16q-79 0 -143 16.5t-104.5 54.5t-49.5 104h149q11 -37 48 -54t97 -17q126 0 126 59q0 22 -23 34.5t-88 22.5l-64 9q-123 19 -176 56t-53 110q0 75 71 117t196 42q88 0 144.5 -18t87.5 -51.5t44 -81.5l-144 -14q-11 32 -43 47t-89 15q-59 0 -89.5 -15t-30.5 -39
q0 -22 22.5 -34t84.5 -22l70 -10q87 -12 137.5 -31.5t72 -51.5t21.5 -81q0 -82 -68 -124.5t-206 -42.5zM395 588h-147l-147 157h135l86 -85l88 85h133z" />
    <glyph glyph-name="uni0162" unicode="&#x162;" horiz-adv-x="737" 
d="M285 577h-273v137h712v-137h-272v-577h-167v577zM329 18l80 -18l-20 -47q118 -13 118 -90q0 -43 -40.5 -66t-114.5 -23q-34 0 -61 3.5t-46 8.5v71q49 -10 83 -10q64 0 64 27q0 17 -18 23t-65 6h-30z" />
    <glyph glyph-name="uni0163" unicode="&#x163;" horiz-adv-x="494" 
d="M123 401h-101v121h101v139h166v-139h167v-121h-167v-213q0 -39 19 -56t59 -17q39 0 84 14l22 -116q-37 -12 -72.5 -17.5t-79.5 -5.5q-105 0 -151.5 45.5t-46.5 145.5v220zM250 17l77 -17l-18 -45q60 -6 87 -28t27 -58q0 -41 -38.5 -63.5t-111.5 -22.5q-34 0 -60.5 3
t-42.5 9v70q22 -5 42 -7.5t38 -2.5q62 0 62 25q0 15 -17.5 21t-60.5 6h-32z" />
    <glyph glyph-name="Tcaron" unicode="&#x164;" horiz-adv-x="737" 
d="M285 577h-273v137h712v-137h-272v-577h-167v577zM444 773h-152l-143 147h139l80 -77l81 77h138z" />
    <glyph glyph-name="tcaron" unicode="&#x165;" horiz-adv-x="494" 
d="M123 401h-101v121h101v139h166v-139h167v-121h-167v-213q0 -39 19 -56t59 -17q39 0 84 14l22 -116q-37 -12 -72.5 -17.5t-79.5 -5.5q-105 0 -151.5 45.5t-46.5 145.5v220zM380 752h137l-52 -176h-107z" />
    <glyph glyph-name="Tbar" unicode="&#x166;" horiz-adv-x="737" 
d="M285 260h-170v123h170v194h-273v137h712v-137h-273v-194h170v-123h-170v-260h-166v260z" />
    <glyph glyph-name="tbar" unicode="&#x167;" horiz-adv-x="522" 
d="M137 661h166v-139h167v-106h-167v-92h167v-95h-167v-44q0 -37 19 -53.5t59 -16.5q38 0 85 14l21 -116q-37 -12 -72.5 -17.5t-79.5 -5.5q-105 0 -151.5 45.5t-46.5 145.5v48h-101v95h101v92h-101v106h101v139z" />
    <glyph glyph-name="Utilde" unicode="&#x168;" horiz-adv-x="867" 
d="M254 292q0 -85 43.5 -125t136.5 -40q92 0 135.5 40t43.5 125v422h176v-410q0 -168 -91 -245t-264 -77q-174 0 -265 77t-91 245v410h176v-422zM253 891q30 36 91 36q24 0 50.5 -9t60.5 -30q25 -14 38.5 -19.5t26.5 -5.5q20 0 26.5 14.5t6.5 46.5h97q0 -79 -30 -116
t-91 -37q-24 0 -49 8.5t-60 28.5q-25 15 -39.5 21t-27.5 6q-19 0 -26 -14.5t-7 -46.5h-97q0 81 30 117z" />
    <glyph glyph-name="utilde" unicode="&#x169;" horiz-adv-x="720" 
d="M648 0h-163v81q-41 -46 -92 -71.5t-118 -25.5q-97 0 -151.5 51.5t-54.5 145.5v341h166v-310q0 -100 101 -100q59 0 106 42q39 34 39 83v285h167v-522zM178.5 707q29.5 37 89.5 37q28 0 53 -9.5t57 -30.5q21 -15 33.5 -20t24.5 -5q21 0 29.5 15t8.5 46h95q0 -79 -30 -116
t-89 -37q-28 0 -53 9t-57 31q-22 14 -34 19.5t-25 5.5q-38 0 -38 -62h-94q0 80 29.5 117z" />
    <glyph glyph-name="Umacron" unicode="&#x16a;" horiz-adv-x="867" 
d="M254 292q0 -85 43.5 -125t136.5 -40q92 0 135.5 40t43.5 125v422h176v-410q0 -168 -91 -245t-264 -77q-174 0 -265 77t-91 245v410h176v-422zM243 898h382v-110h-382v110z" />
    <glyph glyph-name="umacron" unicode="&#x16b;" horiz-adv-x="720" 
d="M648 0h-163v81q-41 -46 -92 -71.5t-118 -25.5q-97 0 -151.5 51.5t-54.5 145.5v341h166v-310q0 -100 101 -100q59 0 106 42q39 34 39 83v285h167v-522zM197 697h323v-75h-323v75z" />
    <glyph glyph-name="Ubreve" unicode="&#x16c;" horiz-adv-x="867" 
d="M254 292q0 -85 43.5 -125t136.5 -40q92 0 135.5 40t43.5 125v422h176v-410q0 -168 -91 -245t-264 -77q-174 0 -265 77t-91 245v410h176v-422zM241 922h115q0 -29 20.5 -46t57.5 -17t57.5 17t20.5 46h115q0 -76 -50 -113.5t-141 -37.5q-92 0 -143.5 38t-51.5 113z" />
    <glyph glyph-name="ubreve" unicode="&#x16d;" horiz-adv-x="720" 
d="M648 0h-163v81q-41 -46 -92 -71.5t-118 -25.5q-97 0 -151.5 51.5t-54.5 145.5v341h166v-310q0 -100 101 -100q59 0 106 42q39 34 39 83v285h167v-522zM167 741h111q0 -31 21.5 -49.5t60.5 -18.5q38 0 59 18.5t21 49.5h112q0 -76 -50 -115.5t-141 -39.5t-142.5 40
t-51.5 115z" />
    <glyph glyph-name="Uring" unicode="&#x16e;" horiz-adv-x="867" 
d="M254 292q0 -85 43.5 -125t136.5 -40q92 0 135.5 40t43.5 125v422h176v-410q0 -168 -91 -245t-264 -77q-174 0 -265 77t-91 245v410h176v-422zM433 736q-64 0 -103.5 32.5t-39.5 86.5t39.5 86t103.5 32q65 0 104.5 -32.5t39.5 -86.5q0 -52 -39.5 -85t-104.5 -33zM491 855
q0 26 -14.5 36.5t-43.5 10.5q-28 0 -42.5 -10.5t-14.5 -37.5q0 -25 14.5 -35.5t42.5 -10.5q58 0 58 47z" />
    <glyph glyph-name="uring" unicode="&#x16f;" horiz-adv-x="720" 
d="M648 0h-163v81q-41 -46 -92 -71.5t-118 -25.5q-97 0 -151.5 51.5t-54.5 145.5v341h166v-310q0 -100 101 -100q59 0 106 42q39 34 39 83v285h167v-522zM359 580q-57 0 -97.5 29.5t-40.5 84.5q0 56 40 85t98 29t98.5 -29t40.5 -85q0 -55 -41 -84.5t-98 -29.5zM359 648
q26 0 41 12t15 34q0 23 -15 34.5t-41 11.5t-41 -11.5t-15 -34.5q0 -22 15 -34t41 -12z" />
    <glyph glyph-name="Uhungarumlaut" unicode="&#x170;" horiz-adv-x="867" 
d="M254 292q0 -85 43.5 -125t136.5 -40q92 0 135.5 40t43.5 125v422h176v-410q0 -168 -91 -245t-264 -77q-174 0 -265 77t-91 245v410h176v-422zM360 923h171l-168 -150h-139zM612 923h170l-167 -150h-139z" />
    <glyph glyph-name="uhungarumlaut" unicode="&#x171;" horiz-adv-x="720" 
d="M648 0h-163v81q-41 -46 -92 -71.5t-118 -25.5q-97 0 -151.5 51.5t-54.5 145.5v341h166v-310q0 -100 101 -100q59 0 106 42q39 34 39 83v285h167v-522zM534 747h165l-163 -160h-134zM292 747h164l-162 -160h-134z" />
    <glyph glyph-name="Uogonek" unicode="&#x172;" horiz-adv-x="867" 
d="M254 292q0 -85 43.5 -125t136.5 -40q92 0 135.5 40t43.5 125v422h176v-410q0 -168 -91 -245t-264 -77q-174 0 -265 77t-91 245v410h176v-422zM593 -198q-15 -3 -31.5 -4.5t-39.5 -1.5q-83 0 -118 24t-35 66q0 40 34 71.5t104 61.5l75 -17q-77 -38 -77 -78
q0 -19 14.5 -26.5t38.5 -7.5q19 0 35 3v-91z" />
    <glyph glyph-name="uogonek" unicode="&#x173;" horiz-adv-x="720" 
d="M648 0h-163v81q-41 -46 -92 -71.5t-118 -25.5q-97 0 -151.5 51.5t-54.5 145.5v341h166v-310q0 -100 101 -100q59 0 106 42q39 34 39 83v285h167v-522zM648 -190q-13 -3 -28.5 -5t-35.5 -2q-80 0 -113 24t-33 64q0 37 32 68t93 59l82 -18q-39 -20 -60.5 -38.5t-21.5 -39.5
q0 -17 14.5 -23.5t36.5 -6.5q8 0 16 1t18 2v-85z" />
    <glyph glyph-name="Wcircumflex" unicode="&#x174;" horiz-adv-x="1170" 
d="M10 714h182l152 -504l164 499h159l165 -500l151 505h176l-237 -714h-179l-160 482l-160 -482h-175zM512 920h152l143 -147h-139l-80 77l-81 -77h-138z" />
    <glyph glyph-name="wcircumflex" unicode="&#x175;" horiz-adv-x="946" 
d="M10 522h160l113 -356l127 352h134l127 -348l112 352h154l-185 -522h-154l-124 338l-125 -338h-154zM402 745h147l148 -157h-134l-87 85l-87 -85h-134z" />
    <glyph glyph-name="Ycircumflex" unicode="&#x176;" horiz-adv-x="801" 
d="M488 281v-281h-176v282l-300 432h195l196 -297l197 297h189zM327 920h152l143 -147h-139l-80 77l-81 -77h-138z" />
    <glyph glyph-name="ycircumflex" unicode="&#x177;" horiz-adv-x="668" 
d="M393 -28q-33 -68 -63.5 -107t-67.5 -54.5t-90 -15.5q-35 0 -64 5t-62 17l24 113q19 -6 36.5 -8.5t36.5 -2.5q36 0 59 16t42 55l21 43l-257 489h181l155 -342l142 342h174zM264 745h147l148 -157h-134l-87 85l-87 -85h-134z" />
    <glyph glyph-name="Ydieresis" unicode="&#x178;" horiz-adv-x="801" 
d="M488 281v-281h-176v282l-300 432h195l196 -297l197 297h189zM198 910h151v-127h-151v127zM457 910h151v-127h-151v127z" />
    <glyph glyph-name="Zacute" unicode="&#x179;" horiz-adv-x="740" 
d="M474 575h-432v139h653v-126l-441 -449h461l-19 -139h-663v126zM416 919h188l-183 -146h-155z" />
    <glyph glyph-name="zacute" unicode="&#x17a;" horiz-adv-x="611" 
d="M240 120h343l-16 -120h-538v102l323 300h-316v120h527v-101zM344 743h179l-182 -155h-145z" />
    <glyph glyph-name="Zdotaccent" unicode="&#x17b;" horiz-adv-x="740" 
d="M474 575h-432v139h653v-126l-441 -449h461l-19 -139h-663v126zM284 911h170v-129h-170v129z" />
    <glyph glyph-name="zdotaccent" unicode="&#x17c;" horiz-adv-x="611" 
d="M240 120h343l-16 -120h-538v102l323 300h-316v120h527v-101zM220 726h160v-117h-160v117z" />
    <glyph glyph-name="Zcaron" unicode="&#x17d;" horiz-adv-x="740" 
d="M474 575h-432v139h653v-126l-441 -449h461l-19 -139h-663v126zM445 773h-152l-143 147h139l80 -77l81 77h138z" />
    <glyph glyph-name="zcaron" unicode="&#x17e;" horiz-adv-x="611" 
d="M240 120h343l-16 -120h-538v102l323 300h-316v120h527v-101zM373 588h-147l-147 157h135l86 -85l88 85h133z" />
    <glyph glyph-name="longs" unicode="&#x17f;" horiz-adv-x="312" 
d="M73 535q0 88 58.5 137.5t163.5 49.5q37 0 70 -4t67 -14l-25 -117q-19 5 -36 7t-40 2q-92 0 -92 -69v-527h-166v535z" />
    <glyph glyph-name="florin" unicode="&#x192;" horiz-adv-x="476" 
d="M123 387h-101v121h101v27q0 88 58.5 137.5t163.5 49.5q37 0 70 -4t67 -14l-24 -110q-19 5 -37 6.5t-40 1.5q-92 0 -92 -69v-25h163v-121h-163v-399q0 -99 -44 -146t-143 -47q-71 0 -136 19l24 111q38 -8 70 -8q37 0 50 16t13 50v404z" />
    <glyph glyph-name="Ohorn" unicode="&#x1a0;" horiz-adv-x="949" 
d="M52 357q0 116 51 200t145 129.5t223 45.5q23 0 47.5 -1.5t46.5 -4.5q32 -4 61 -8t55 -4q59 0 82.5 19.5t23.5 56.5q0 19 -3 35h136l4.5 -22.5t2.5 -26.5q1 -68 -33.5 -112.5t-92.5 -59.5q42 -47 64 -109.5t22 -137.5q0 -116 -51 -200t-145 -129.5t-223 -45.5
q-128 0 -221.5 45.5t-144 129.5t-50.5 200zM704 357q0 110 -61.5 170t-172.5 60t-173 -60.5t-62 -169.5t61.5 -169.5t173.5 -60.5q110 0 172 60.5t62 169.5z" />
    <glyph glyph-name="ohorn" unicode="&#x1a1;" horiz-adv-x="746" 
d="M47 259q0 87 39 149.5t111.5 96t170.5 33.5q20 0 39.5 -1.5t37.5 -3.5q23 -2 44 -4t41 -2q44 0 61.5 18t17.5 54q-1 8 -1.5 15t-1.5 14h124q2 -9 3 -20t2 -25q0 -64 -27 -103.5t-72 -54.5q46 -66 46 -162q0 -86 -39 -148.5t-111 -96.5t-171 -34q-148 0 -231 72.5
t-83 202.5zM513 261q0 74 -39.5 113.5t-108.5 39.5q-71 0 -109.5 -39.5t-38.5 -113.5q0 -73 38 -112.5t109 -39.5q72 0 110.5 39.5t38.5 112.5z" />
    <glyph glyph-name="Uhorn" unicode="&#x1af;" horiz-adv-x="909" 
d="M254 292q0 -85 43.5 -125t136.5 -40q92 0 135.5 40t43.5 125v422h75q63 0 86.5 19.5t23.5 58.5q0 17 -3 33h135q8 -19 8 -46q0 -76 -39.5 -119.5t-109.5 -57.5v-298q0 -168 -91 -245t-264 -77q-174 0 -265 77t-91 245v410h176v-422z" />
    <glyph glyph-name="uhorn" unicode="&#x1b0;" horiz-adv-x="771" 
d="M648 0h-163v81q-41 -46 -92 -71.5t-118 -25.5q-97 0 -151.5 51.5t-54.5 145.5v341h166v-310q0 -100 101 -100q59 0 106 42q39 34 39 83v285h65q57 0 78 19.5t21 56.5q0 17 -3 30h124q2 -9 3.5 -19t1.5 -23q0 -66 -33.5 -105t-89.5 -55v-426z" />
    <glyph glyph-name="uni0218" unicode="&#x218;" horiz-adv-x="772" 
d="M30 238h169q10 -67 58.5 -96.5t132.5 -29.5q85 0 130.5 22t45.5 62q0 32 -27 54.5t-86 32.5l-126 20q-142 22 -211.5 73t-69.5 141q0 104 92 159.5t251 55.5q152 0 229.5 -55.5t98.5 -161.5l-157 -19q-18 56 -58 82t-120 26q-38 0 -76.5 -5t-64 -21t-25.5 -50
q0 -32 26.5 -52.5t95.5 -31.5l149 -23q122 -19 186 -72t64 -146q0 -109 -87 -165t-255 -56q-162 0 -258 60t-107 196zM321 -67h175l-131 -161h-144z" />
    <glyph glyph-name="uni0219" unicode="&#x219;" horiz-adv-x="653" 
d="M340 -16q-79 0 -143 16.5t-104.5 54.5t-49.5 104h149q11 -37 48 -54t97 -17q126 0 126 59q0 22 -23 34.5t-88 22.5l-64 9q-123 19 -176 56t-53 110q0 75 71 117t196 42q88 0 144.5 -18t87.5 -51.5t44 -81.5l-144 -14q-11 32 -43 47t-89 15q-59 0 -89.5 -15t-30.5 -39
q0 -22 22.5 -34t84.5 -22l70 -10q87 -12 137.5 -31.5t72 -51.5t21.5 -81q0 -82 -68 -124.5t-206 -42.5zM254 -67h170l-128 -158h-139z" />
    <glyph glyph-name="uni021A" unicode="&#x21a;" horiz-adv-x="737" 
d="M285 577h-273v137h712v-137h-272v-577h-167v577zM298 -67h175l-131 -161h-144z" />
    <glyph glyph-name="uni021B" unicode="&#x21b;" horiz-adv-x="494" 
d="M123 401h-101v121h101v139h166v-139h167v-121h-167v-213q0 -39 19 -56t59 -17q39 0 84 14l22 -116q-37 -12 -72.5 -17.5t-79.5 -5.5q-105 0 -151.5 45.5t-46.5 145.5v220zM213 -67h170l-128 -158h-139z" />
    <glyph glyph-name="uni0237" unicode="&#x237;" horiz-adv-x="312" 
d="M73 522h166v-534q0 -101 -44.5 -147t-142.5 -46q-71 0 -136 19l24 111q22 -4 39 -6t31 -2q35 0 49 14.5t14 51.5v539z" />
    <glyph glyph-name="uni02BC" unicode="&#x2bc;" horiz-adv-x="729" 
d="M304 714h166l-77 -272h-133z" />
    <glyph glyph-name="uni02C2" unicode="&#x2c2;" horiz-adv-x="380" 
d="M264 569l65 -66l-159 -158l159 -157l-65 -66l-224 223z" />
    <glyph glyph-name="uni02C3" unicode="&#x2c3;" horiz-adv-x="380" 
d="M340 345l-224 -223l-65 66l158 157l-158 158l65 66z" />
    <glyph glyph-name="circumflex" unicode="&#x2c6;" horiz-adv-x="729" 
d="M290 745h147l148 -157h-134l-87 85l-87 -85h-134z" />
    <glyph glyph-name="caron" unicode="&#x2c7;" horiz-adv-x="729" 
d="M437 588h-147l-147 157h135l86 -85l88 85h133z" />
    <glyph glyph-name="uni02C9" unicode="&#x2c9;" horiz-adv-x="729" 
d="M202 697h323v-75h-323v75z" />
    <glyph glyph-name="uni02CB" unicode="&#x2cb;" horiz-adv-x="729" 
d="M202 743h179l146 -155h-144z" />
    <glyph glyph-name="breve" unicode="&#x2d8;" horiz-adv-x="729" 
d="M172 741h111q0 -31 21.5 -49.5t60.5 -18.5q38 0 59 18.5t21 49.5h112q0 -76 -50 -115.5t-141 -39.5t-142.5 40t-51.5 115z" />
    <glyph glyph-name="dotaccent" unicode="&#x2d9;" horiz-adv-x="729" 
d="M284 726h160v-117h-160v117z" />
    <glyph glyph-name="ring" unicode="&#x2da;" horiz-adv-x="729" 
d="M364 580q-57 0 -97.5 29.5t-40.5 84.5q0 56 40 85t98 29t98.5 -29t40.5 -85q0 -55 -41 -84.5t-98 -29.5zM364 648q26 0 41 12t15 34q0 23 -15 34.5t-41 11.5t-41 -11.5t-15 -34.5q0 -22 15 -34t41 -12z" />
    <glyph glyph-name="ogonek" unicode="&#x2db;" horiz-adv-x="729" 
d="M470 -190q-13 -3 -28.5 -5t-35.5 -2q-80 0 -113 24t-33 64q0 37 32 68t93 59l82 -18q-39 -20 -60.5 -38.5t-21.5 -39.5q0 -17 14.5 -23.5t36.5 -6.5q8 0 16 1t18 2v-85z" />
    <glyph glyph-name="tilde" unicode="&#x2dc;" horiz-adv-x="729" 
d="M183.5 707q29.5 37 89.5 37q28 0 53 -9.5t57 -30.5q21 -15 33.5 -20t24.5 -5q21 0 29.5 15t8.5 46h95q0 -79 -30 -116t-89 -37q-28 0 -53 9t-57 31q-22 14 -34 19.5t-25 5.5q-38 0 -38 -62h-94q0 80 29.5 117z" />
    <glyph glyph-name="hungarumlaut" unicode="&#x2dd;" horiz-adv-x="729" 
d="M469 747h165l-163 -160h-134zM227 747h164l-162 -160h-134z" />
    <glyph glyph-name="gravecomb" unicode="&#x300;" 
d="M-222 743h179l146 -155h-144z" />
    <glyph glyph-name="acutecomb" unicode="&#x301;" 
d="M44 743h179l-182 -155h-145z" />
    <glyph glyph-name="uni0302" unicode="&#x302;" 
d="M-74 745h147l148 -157h-134l-87 85l-87 -85h-134z" />
    <glyph glyph-name="tildecomb" unicode="&#x303;" 
d="M-180.5 707q29.5 37 89.5 37q28 0 53 -9.5t57 -30.5q21 -15 33.5 -20t24.5 -5q21 0 29.5 15t8.5 46h95q0 -79 -30 -116t-89 -37q-28 0 -53 9t-57 31q-22 14 -34 19.5t-25 5.5q-38 0 -38 -62h-94q0 80 29.5 117z" />
    <glyph glyph-name="uni0304" unicode="&#x304;" 
d="M-162 697h323v-75h-323v75z" />
    <glyph glyph-name="uni0306" unicode="&#x306;" 
d="M-192 741h111q0 -31 21.5 -49.5t60.5 -18.5q38 0 59 18.5t21 49.5h112q0 -76 -50 -115.5t-141 -39.5t-142.5 40t-51.5 115z" />
    <glyph glyph-name="uni0307" unicode="&#x307;" 
d="M-80 726h160v-117h-160v117z" />
    <glyph glyph-name="uni0308" unicode="&#x308;" 
d="M52 720h145v-116h-145v116zM-196 720h143v-116h-143v116z" />
    <glyph glyph-name="hookabovecomb" unicode="&#x309;" 
d="M-79 648q78 6 78 39q0 30 -49 30q-14 0 -26 -2t-26 -5v68q16 5 35 8t46 3q67 0 99.5 -26t32.5 -67q0 -57 -46 -85.5t-144 -30.5v68z" />
    <glyph glyph-name="uni030A" unicode="&#x30a;" 
d="M0 580q-57 0 -97.5 29.5t-40.5 84.5q0 56 40 85t98 29t98.5 -29t40.5 -85q0 -55 -41 -84.5t-98 -29.5zM0 648q26 0 41 12t15 34q0 23 -15 34.5t-41 11.5t-41 -11.5t-15 -34.5q0 -22 15 -34t41 -12z" />
    <glyph glyph-name="uni030B" unicode="&#x30b;" 
d="M175 747h165l-163 -160h-134zM-67 747h164l-162 -160h-134z" />
    <glyph glyph-name="uni030C" unicode="&#x30c;" 
d="M73 588h-147l-147 157h135l86 -85l88 85h133z" />
    <glyph glyph-name="uni0312" unicode="&#x312;" 
d="M30 747h148l-96 -160h-180z" />
    <glyph glyph-name="uni0315" unicode="&#x315;" 
d="M-40 714h155l-69 -260h-123z" />
    <glyph glyph-name="dotbelowcomb" unicode="&#x323;" 
d="M-85 -74h169v-120h-169v120z" />
    <glyph glyph-name="uni0326" unicode="&#x326;" 
d="M-81 -67h170l-128 -158h-139z" />
    <glyph glyph-name="uni0327" unicode="&#x327;" 
d="M-44 17l77 -17l-18 -45q60 -6 87 -28t27 -58q0 -41 -38.5 -63.5t-111.5 -22.5q-34 0 -60.5 3t-42.5 9v70q22 -5 42 -7.5t38 -2.5q62 0 62 25q0 15 -17.5 21t-60.5 6h-32z" />
    <glyph glyph-name="uni0328" unicode="&#x328;" 
d="M83 -190q-13 -3 -28.5 -5t-35.5 -2q-80 0 -113 24t-33 64q0 37 32 68t93 59l82 -18q-39 -20 -60.5 -38.5t-21.5 -39.5q0 -17 14.5 -23.5t36.5 -6.5q8 0 16 1t18 2v-85z" />
    <glyph glyph-name="uni0344" unicode="&#x344;" 
d="M-13 787h145l-96 -203h-112zM-246 721h135v-120h-135v120zM138 721h135v-120h-135v120z" />
    <glyph glyph-name="uni0374" unicode="&#x374;" horiz-adv-x="298" 
d="M97 714h159l-87 -273h-127z" />
    <glyph glyph-name="uni0375" unicode="&#x375;" horiz-adv-x="298" 
d="M129 157h127l-55 -273h-159z" />
    <glyph glyph-name="uni037E" unicode="&#x37e;" horiz-adv-x="303" 
d="M82 171h166l-77 -272h-133zM80 522h165v-171h-165v171z" />
    <glyph glyph-name="tonos" unicode="&#x384;" horiz-adv-x="729" 
d="M330 785h166l-129 -193h-134z" />
    <glyph glyph-name="dieresistonos" unicode="&#x385;" horiz-adv-x="729" 
d="M338 787h145l-96 -203h-112zM105 721h135v-120h-135v120zM489 721h135v-120h-135v120z" />
    <glyph glyph-name="Alphatonos" unicode="&#x386;" horiz-adv-x="870" 
d="M341 714h162l336 -714h-183l-70 159h-336l-68 -159h-175zM534 289l-115 267l-115 -267h230zM31 714h163l-129 -238h-127z" />
    <glyph glyph-name="anoteleia" unicode="&#x387;" horiz-adv-x="303" 
d="M69 522h165v-171h-165v171z" />
    <glyph glyph-name="Epsilontonos" unicode="&#x388;" horiz-adv-x="758" 
d="M86 714h606v-134h-432v-149h411v-133h-411v-164h455l-19 -134h-610v714zM-146 714h163l-129 -238h-127z" />
    <glyph glyph-name="Etatonos" unicode="&#x389;" horiz-adv-x="894" 
d="M86 714h176v-270h370v270h176v-714h-176v293h-370v-293h-176v714zM-146 714h163l-129 -238h-127z" />
    <glyph glyph-name="Iotatonos" unicode="&#x38a;" horiz-adv-x="349" 
d="M86 714h176v-714h-176v714zM-146 714h163l-129 -238h-127z" />
    <glyph glyph-name="Omicrontonos" unicode="&#x38c;" horiz-adv-x="939" 
d="M52 357q0 116 51 200t145 129.5t223 45.5t222 -45.5t143.5 -129.5t50.5 -200t-51 -200t-145 -129.5t-223 -45.5q-128 0 -221.5 45.5t-144 129.5t-50.5 200zM704 357q0 110 -61.5 170t-172.5 60t-173 -60.5t-62 -169.5t61.5 -169.5t173.5 -60.5q110 0 172 60.5t62 169.5z
M-86 714h163l-129 -238h-127z" />
    <glyph glyph-name="Upsilontonos" unicode="&#x38e;" horiz-adv-x="801" 
d="M488 281v-281h-176v282l-300 432h195l196 -297l197 297h189zM-179 714h163l-129 -238h-127z" />
    <glyph glyph-name="Omegatonos" unicode="&#x38f;" horiz-adv-x="943" 
d="M257 690q91 42 214 42q124 0 215 -42t141 -119t50 -181q0 -78 -33 -140.5t-104 -114.5h172l-19 -135h-346v124q77 42 112 101.5t35 145.5q0 107 -56.5 161.5t-166.5 54.5q-109 0 -165.5 -54.5t-56.5 -161.5q0 -86 35.5 -145.5t111.5 -101.5v-124h-365v135h172
q-71 52 -104 114.5t-33 140.5q0 104 50 181t141 119zM-97 714h163l-129 -238h-127z" />
    <glyph glyph-name="iotadieresistonos" unicode="&#x390;" horiz-adv-x="393" 
d="M73 522h166v-319q0 -52 17.5 -71t52.5 -19q15 0 29.5 2t30.5 6l20 -115q-30 -10 -60.5 -14t-62.5 -4q-97 0 -145 45t-48 148v341zM143 787h145l-96 -203h-112zM-90 721h135v-120h-135v120zM294 721h135v-120h-135v120z" />
    <glyph glyph-name="Alpha" unicode="&#x391;" horiz-adv-x="870" 
d="M341 714h162l336 -714h-183l-70 159h-336l-68 -159h-175zM534 289l-115 267l-115 -267h230z" />
    <glyph glyph-name="Beta" unicode="&#x392;" horiz-adv-x="813" 
d="M88 714h347q151 0 224 -46.5t73 -137.5q0 -54 -27.5 -93t-85.5 -59q140 -48 140 -170q0 -101 -77 -154.5t-228 -53.5h-366v714zM441 122q82 0 117 22t35 71q0 51 -36 74t-114 23h-196v-190h194zM438 429q66 0 97.5 20.5t31.5 64.5q0 41 -32 59.5t-106 18.5h-182v-163h191
z" />
    <glyph glyph-name="Gamma" unicode="&#x393;" horiz-adv-x="675" 
d="M86 714h573v-143h-397v-571h-176v714z" />
    <glyph glyph-name="uni0394" unicode="&#x394;" horiz-adv-x="871" 
d="M335 714h201l298 -592v-122h-797v122zM432 572l-205 -433h410z" />
    <glyph glyph-name="Epsilon" unicode="&#x395;" horiz-adv-x="758" 
d="M86 714h606v-134h-432v-149h411v-133h-411v-164h455l-19 -134h-610v714z" />
    <glyph glyph-name="Zeta" unicode="&#x396;" horiz-adv-x="740" 
d="M474 575h-432v139h653v-126l-441 -449h461l-19 -139h-663v126z" />
    <glyph glyph-name="Eta" unicode="&#x397;" horiz-adv-x="894" 
d="M86 714h176v-270h370v270h176v-714h-176v293h-370v-293h-176v714z" />
    <glyph glyph-name="Theta" unicode="&#x398;" horiz-adv-x="939" 
d="M887 357q0 -116 -51 -200t-145 -129.5t-223 -45.5q-128 0 -221.5 45.5t-144 129.5t-50.5 200t51 200t145 129.5t223 45.5t222 -45.5t143.5 -129.5t50.5 -200zM646 530q-63 62 -176 62q-112 0 -176 -62t-64 -173t63.5 -173t176.5 -62t176 62t63 173t-63 173zM312 307v116
h315v-116h-315z" />
    <glyph glyph-name="Iota" unicode="&#x399;" horiz-adv-x="349" 
d="M86 714h176v-714h-176v714z" />
    <glyph glyph-name="Kappa" unicode="&#x39a;" horiz-adv-x="850" 
d="M86 714h176v-304l341 304h204l-302 -273l331 -441h-204l-249 333l-121 -103v-230h-176v714z" />
    <glyph glyph-name="Lambda" unicode="&#x39b;" horiz-adv-x="865" 
d="M331 714h202l319 -714h-194l-228 554l-229 -554h-189z" />
    <glyph glyph-name="Mu" unicode="&#x39c;" horiz-adv-x="1059" 
d="M86 714h203l243 -525l242 525h198v-714h-164v472l-214 -472h-133l-214 471v-471h-161v714z" />
    <glyph glyph-name="Nu" unicode="&#x39d;" horiz-adv-x="896" 
d="M86 714h159l397 -477v477h168v-714h-159l-397 478v-478h-168v714z" />
    <glyph glyph-name="Xi" unicode="&#x39e;" horiz-adv-x="769" 
d="M59 0v141h664l-20 -141h-644zM65 573v141h639v-141h-639zM128 297v137h515v-137h-515z" />
    <glyph glyph-name="Omicron" unicode="&#x39f;" horiz-adv-x="939" 
d="M52 357q0 116 51 200t145 129.5t223 45.5t222 -45.5t143.5 -129.5t50.5 -200t-51 -200t-145 -129.5t-223 -45.5q-128 0 -221.5 45.5t-144 129.5t-50.5 200zM704 357q0 110 -61.5 170t-172.5 60t-173 -60.5t-62 -169.5t61.5 -169.5t173.5 -60.5q110 0 172 60.5t62 169.5z
" />
    <glyph glyph-name="Pi" unicode="&#x3a0;" horiz-adv-x="883" 
d="M86 714h711v-714h-176v571h-359v-571h-176v714z" />
    <glyph glyph-name="Rho" unicode="&#x3a1;" horiz-adv-x="785" 
d="M88 714h346q153 0 228.5 -60t75.5 -176q0 -118 -78 -178t-238 -60h-168v-240h-166v714zM420 373q76 0 112 25t36 81q0 54 -35 78t-111 24h-168v-208h166z" />
    <glyph glyph-name="Sigma" unicode="&#x3a3;" horiz-adv-x="728" 
d="M300 364l-261 225v125h648v-139h-408l233 -208l-248 -228h443l-19 -139h-657v125z" />
    <glyph glyph-name="Tau" unicode="&#x3a4;" horiz-adv-x="752" 
d="M285 577h-273v137h712v-137h-272v-577h-167v577z" />
    <glyph glyph-name="Upsilon" unicode="&#x3a5;" horiz-adv-x="801" 
d="M488 281v-281h-176v282l-300 432h195l196 -297l197 297h189z" />
    <glyph glyph-name="Phi" unicode="&#x3a6;" horiz-adv-x="1060" 
d="M447 53q-196 13 -296.5 90t-100.5 214t100.5 214t296.5 90v76h166v-76q196 -13 296.5 -90t100.5 -214t-100.5 -214t-296.5 -90v-76h-166v76zM279.5 235.5q53.5 -41.5 167.5 -48.5v340q-114 -7 -167.5 -48.5t-53.5 -121.5t53.5 -121.5zM779.5 478.5
q-53.5 41.5 -166.5 48.5v-340q113 7 166.5 48.5t53.5 121.5t-53.5 121.5z" />
    <glyph glyph-name="Chi" unicode="&#x3a7;" horiz-adv-x="847" 
d="M835 0h-210l-208 265l-207 -265h-198l296 371l-274 343h210l176 -233l184 233h197l-271 -336z" />
    <glyph glyph-name="Psi" unicode="&#x3a8;" horiz-adv-x="1044" 
d="M437 714h170v-405q101 3 148.5 45t47.5 128v232h170v-222q0 -297 -366 -317v-175h-170v174q-186 10 -276 88t-90 230v222h170v-232q0 -86 47 -128t149 -45v405z" />
    <glyph glyph-name="uni03A9" unicode="&#x3a9;" horiz-adv-x="943" 
d="M257 690q91 42 214 42q124 0 215 -42t141 -119t50 -181q0 -78 -33 -140.5t-104 -114.5h172l-19 -135h-346v124q77 42 112 101.5t35 145.5q0 107 -56.5 161.5t-166.5 54.5q-109 0 -165.5 -54.5t-56.5 -161.5q0 -86 35.5 -145.5t111.5 -101.5v-124h-365v135h172
q-71 52 -104 114.5t-33 140.5q0 104 50 181t141 119z" />
    <glyph glyph-name="Iotadieresis" unicode="&#x3aa;" horiz-adv-x="349" 
d="M86 714h176v-714h-176v714zM-30 910h151v-127h-151v127zM229 910h151v-127h-151v127z" />
    <glyph glyph-name="Upsilondieresis" unicode="&#x3ab;" horiz-adv-x="801" 
d="M488 281v-281h-176v282l-300 432h195l196 -297l197 297h189zM198 910h151v-127h-151v127zM457 910h151v-127h-151v127z" />
    <glyph glyph-name="alphatonos" unicode="&#x3ac;" horiz-adv-x="817" 
d="M642 261l32 -87q14 -38 31.5 -51.5t42.5 -13.5q20 0 40 8l24 -109q-25 -10 -50.5 -15t-48.5 -5q-63 0 -101.5 26.5t-64.5 91.5l-9 23q-42 -76 -98 -110.5t-136 -34.5q-77 0 -135 33t-90 94.5t-32 144.5q0 87 34 150t95 97.5t143 34.5q81 0 135.5 -34t93.5 -114l58 132
h175zM487 259q-29 86 -63 120.5t-84 34.5q-55 0 -89 -39.5t-34 -115.5q0 -72 33.5 -111t80.5 -39q49 0 84 33.5t72 116.5zM418 785h166l-129 -193h-134z" />
    <glyph glyph-name="epsilontonos" unicode="&#x3ad;" horiz-adv-x="681" 
d="M637 387l-149 -23q-9 33 -41.5 48.5t-93.5 15.5q-60 0 -92 -15t-32 -45q0 -51 94 -51h122v-101h-127q-106 0 -106 -58q0 -31 31.5 -47t101.5 -16q67 0 103 16.5t45 53.5h155q-16 -88 -93 -134.5t-214 -46.5q-142 0 -216 41.5t-74 119.5q0 48 29.5 80.5t82.5 43.5
q-87 32 -87 113q0 74 71.5 115t202.5 41q251 0 287 -151zM374 785h166l-129 -193h-134z" />
    <glyph glyph-name="etatonos" unicode="&#x3ae;" horiz-adv-x="763" 
d="M694 -194h-166v502q0 53 -25.5 77.5t-81.5 24.5q-64 0 -109 -42q-39 -36 -39 -85v-283h-166v349q0 33 -10.5 47.5t-34.5 14.5q-18 0 -39 -8l-21 111q22 10 51.5 15t59.5 5q65 0 101 -24.5t48 -77.5q47 56 101.5 81t118.5 25q102 0 157 -51.5t55 -147.5v-533zM412 785h166
l-129 -193h-134z" />
    <glyph glyph-name="iotatonos" unicode="&#x3af;" horiz-adv-x="393" 
d="M73 522h166v-319q0 -52 17.5 -71t52.5 -19q15 0 29.5 2t30.5 6l20 -115q-30 -10 -60.5 -14t-62.5 -4q-97 0 -145 45t-48 148v341zM180 785h166l-129 -193h-134z" />
    <glyph glyph-name="upsilondieresistonos" unicode="&#x3b0;" horiz-adv-x="720" 
d="M235 253q0 -73 30 -107t90 -34q67 0 101.5 42.5t34.5 136.5q0 53 -7.5 109t-21.5 122h169q15 -67 22 -124t7 -107q0 -151 -78 -229t-229 -78q-150 0 -217 66.5t-67 203.5v268h166v-269zM336 787h145l-96 -203h-112zM103 721h135v-120h-135v120zM487 721h135v-120h-135
v120z" />
    <glyph glyph-name="alpha" unicode="&#x3b1;" horiz-adv-x="817" 
d="M642 261l32 -87q14 -38 31.5 -51.5t42.5 -13.5q20 0 40 8l24 -109q-25 -10 -50.5 -15t-48.5 -5q-63 0 -101.5 26.5t-64.5 91.5l-9 23q-42 -76 -98 -110.5t-136 -34.5q-77 0 -135 33t-90 94.5t-32 144.5q0 87 34 150t95 97.5t143 34.5q81 0 135.5 -34t93.5 -114l58 132
h175zM487 259q-29 86 -63 120.5t-84 34.5q-55 0 -89 -39.5t-34 -115.5q0 -72 33.5 -111t80.5 -39q49 0 84 33.5t72 116.5z" />
    <glyph glyph-name="beta" unicode="&#x3b2;" horiz-adv-x="754" 
d="M73 472q0 122 77.5 186t219.5 64q129 0 200.5 -49.5t71.5 -132.5q0 -105 -102 -152q166 -41 166 -190q0 -65 -32 -113.5t-90 -74.5t-136 -26q-145 0 -209 85v-263h-166v666zM504.5 133q35.5 27 35.5 78q0 52 -41.5 76t-117.5 24h-55v121h49q51 0 77.5 22.5t26.5 57.5
q0 44 -28.5 67t-79.5 23q-67 0 -99.5 -34.5t-32.5 -115.5v-182q0 -82 40.5 -123t127.5 -41q62 0 97.5 27z" />
    <glyph glyph-name="gamma" unicode="&#x3b3;" horiz-adv-x="679" 
d="M8 522h178l157 -385q38 66 65 124t48.5 120.5t42.5 140.5h172q-29 -96 -63.5 -178.5t-80 -164t-107.5 -177.5v-196h-166v193z" />
    <glyph glyph-name="delta" unicode="&#x3b4;" horiz-adv-x="729" 
d="M362 -16q-96 0 -167 28t-109.5 80t-38.5 123q0 75 48.5 132.5t130.5 84.5q-56 28 -79 61.5t-23 73.5q0 73 68 114t186 41q240 0 264 -163l-156 -17q-7 38 -31.5 53.5t-74.5 15.5q-46 0 -71.5 -12.5t-25.5 -33.5q0 -17 14.5 -30.5t65.5 -33.5l123 -48q105 -41 150.5 -98
t45.5 -134q0 -71 -39.5 -124.5t-111 -83t-169.5 -29.5zM484 298.5q-26 31.5 -89 59.5l-48 21q-128 -45 -128 -154q0 -56 38.5 -88t109.5 -32t107 31.5t36 85.5q0 45 -26 76.5z" />
    <glyph glyph-name="epsilon" unicode="&#x3b5;" horiz-adv-x="681" 
d="M637 387l-149 -23q-9 33 -41.5 48.5t-93.5 15.5q-60 0 -92 -15t-32 -45q0 -51 94 -51h122v-101h-127q-106 0 -106 -58q0 -31 31.5 -47t101.5 -16q67 0 103 16.5t45 53.5h155q-16 -88 -93 -134.5t-214 -46.5q-142 0 -216 41.5t-74 119.5q0 48 29.5 80.5t82.5 43.5
q-87 32 -87 113q0 74 71.5 115t202.5 41q251 0 287 -151z" />
    <glyph glyph-name="zeta" unicode="&#x3b6;" horiz-adv-x="623" 
d="M371 595h-293v119h527v-103q-141 -77 -226 -140t-123.5 -117.5t-38.5 -107.5q0 -52 31.5 -80t113.5 -45l93 -18q86 -17 124 -51.5t38 -92.5q0 -56 -34.5 -96.5t-97.5 -72.5l-81 87q29 15 41.5 28t12.5 30t-14.5 27t-53.5 17l-87 17q-129 26 -192.5 78t-63.5 149
q0 90 77.5 182.5t246.5 189.5z" />
    <glyph glyph-name="eta" unicode="&#x3b7;" horiz-adv-x="763" 
d="M694 -194h-166v502q0 53 -25.5 77.5t-81.5 24.5q-64 0 -109 -42q-39 -36 -39 -85v-283h-166v349q0 33 -10.5 47.5t-34.5 14.5q-18 0 -39 -8l-21 111q22 10 51.5 15t59.5 5q65 0 101 -24.5t48 -77.5q47 56 101.5 81t118.5 25q102 0 157 -51.5t55 -147.5v-533z" />
    <glyph glyph-name="theta" unicode="&#x3b8;" horiz-adv-x="729" 
d="M600 629q82 -93 82 -278q0 -184 -82.5 -276t-233.5 -92q-154 0 -236.5 92t-82.5 276t84 277.5t235 93.5q152 0 234 -93zM259 146q38 -45 107 -45t105.5 44.5t43.5 152.5h-301q7 -107 45 -152zM258.5 560q-37.5 -44 -44.5 -149h301q-7 106 -44 149.5t-105 43.5
q-70 0 -107.5 -44z" />
    <glyph glyph-name="iota" unicode="&#x3b9;" horiz-adv-x="393" 
d="M73 522h166v-319q0 -52 17.5 -71t52.5 -19q15 0 29.5 2t30.5 6l20 -115q-30 -10 -60.5 -14t-62.5 -4q-97 0 -145 45t-48 148v341z" />
    <glyph glyph-name="kappa" unicode="&#x3ba;" horiz-adv-x="711" 
d="M73 522h166v-204l248 204h206l-234 -192l247 -330h-188l-176 241l-103 -81v-160h-166v522z" />
    <glyph glyph-name="lambda" unicode="&#x3bb;" horiz-adv-x="695" 
d="M687 0h-169l-162 372l-180 -372h-168l270 519l-17 35q-12 23 -32 33t-46 10q-30 0 -66 -13l-36 112q58 26 122 26q81 0 129 -30.5t84 -107.5z" />
    </font>
</defs>
</svg>
